<mxfile host="app.diagrams.net" agent="Mozilla/5.0 (Windows NT 10.0; Win64; x64) AppleWebKit/537.36 (KHTML, like Gecko) Chrome/138.0.0.0 Safari/537.36" version="28.0.3">
  <diagram name="Page-1" id="90a13364-a465-7bf4-72fc-28e22215d7a0">
    <mxGraphModel dx="267" dy="153" grid="1" gridSize="10" guides="1" tooltips="1" connect="1" arrows="1" fold="1" page="1" pageScale="1.5" pageWidth="1169" pageHeight="826" background="none" math="0" shadow="0">
      <root>
        <mxCell id="0" style=";html=1;" />
        <mxCell id="1" style=";html=1;" parent="0" />
        <mxCell id="iKwgrwwHFy8eXeqNAH09-2174" value="" style="whiteSpace=wrap;html=1;shadow=1;fontSize=18;fillColor=#fff2cc;strokeColor=#d6b656;" parent="1" vertex="1">
          <mxGeometry x="200" y="471" width="1300" height="760" as="geometry" />
        </mxCell>
        <mxCell id="iKwgrwwHFy8eXeqNAH09-2200" value="&lt;div style=&quot;line-height: 100%;&quot;&gt;&lt;br&gt;&lt;/div&gt;" style="whiteSpace=wrap;html=1;shadow=1;fontSize=18;fillColor=#f5f5f5;strokeColor=#666666;fontColor=#333333;" parent="1" vertex="1">
          <mxGeometry x="380" y="510" width="990" height="590" as="geometry" />
        </mxCell>
        <mxCell id="iKwgrwwHFy8eXeqNAH09-2175" value="" style="whiteSpace=wrap;html=1;shadow=1;fontSize=18;fillColor=#fff2cc;strokeColor=#d6b656;" parent="1" vertex="1">
          <mxGeometry x="200" y="471" width="1300" height="760" as="geometry" />
        </mxCell>
        <mxCell id="iKwgrwwHFy8eXeqNAH09-4718" value="" style="group;noLabel=1;strokeColor=#666666;fillColor=#f5f5f5;fontColor=#333333;" parent="1" vertex="1" connectable="0">
          <mxGeometry x="381.42" y="510" width="990.17" height="590" as="geometry" />
        </mxCell>
        <mxCell id="iKwgrwwHFy8eXeqNAH09-822" value="" style="group" parent="1" vertex="1" connectable="0">
          <mxGeometry x="586.5" y="4" width="580" height="460" as="geometry" />
        </mxCell>
        <mxCell id="iKwgrwwHFy8eXeqNAH09-606" value="" style="whiteSpace=wrap;html=1;shadow=1;fontSize=18;fillColor=#f5f5f5;strokeColor=#666666;" parent="iKwgrwwHFy8eXeqNAH09-822" vertex="1">
          <mxGeometry width="580" height="460" as="geometry" />
        </mxCell>
        <mxCell id="iKwgrwwHFy8eXeqNAH09-1135" style="edgeStyle=orthogonalEdgeStyle;rounded=0;orthogonalLoop=1;jettySize=auto;html=1;entryX=0.5;entryY=1;entryDx=0;entryDy=0;jumpStyle=arc;" parent="iKwgrwwHFy8eXeqNAH09-822" source="iKwgrwwHFy8eXeqNAH09-1134" target="iKwgrwwHFy8eXeqNAH09-648" edge="1">
          <mxGeometry relative="1" as="geometry">
            <mxPoint x="421.5" y="345" as="sourcePoint" />
            <mxPoint x="279" y="355" as="targetPoint" />
            <Array as="points">
              <mxPoint x="424" y="440" />
              <mxPoint x="232" y="440" />
              <mxPoint x="232" y="355" />
            </Array>
          </mxGeometry>
        </mxCell>
        <mxCell id="iKwgrwwHFy8eXeqNAH09-648" value="" style="shape=trapezoid;perimeter=trapezoidPerimeter;whiteSpace=wrap;html=1;fixedSize=1;shadow=1;strokeColor=#6c8ebf;align=center;verticalAlign=middle;fontFamily=Helvetica;fontSize=18;fillColor=#dae8fc;rotation=90;container=0;" parent="iKwgrwwHFy8eXeqNAH09-822" vertex="1">
          <mxGeometry x="251" y="345" width="80" height="20" as="geometry" />
        </mxCell>
        <mxCell id="iKwgrwwHFy8eXeqNAH09-671" style="edgeStyle=orthogonalEdgeStyle;rounded=0;orthogonalLoop=1;jettySize=auto;html=1;entryX=0.75;entryY=1;entryDx=0;entryDy=0;jumpStyle=arc;" parent="iKwgrwwHFy8eXeqNAH09-822" source="iKwgrwwHFy8eXeqNAH09-672" target="iKwgrwwHFy8eXeqNAH09-662" edge="1">
          <mxGeometry relative="1" as="geometry">
            <Array as="points">
              <mxPoint x="241" y="430" />
              <mxPoint x="464" y="430" />
              <mxPoint x="464" y="360" />
            </Array>
          </mxGeometry>
        </mxCell>
        <mxCell id="iKwgrwwHFy8eXeqNAH09-1049" style="edgeStyle=orthogonalEdgeStyle;rounded=0;orthogonalLoop=1;jettySize=auto;html=1;entryX=0;entryY=0.5;entryDx=0;entryDy=0;" parent="iKwgrwwHFy8eXeqNAH09-822" source="iKwgrwwHFy8eXeqNAH09-1048" target="iKwgrwwHFy8eXeqNAH09-1043" edge="1">
          <mxGeometry relative="1" as="geometry">
            <Array as="points">
              <mxPoint x="324" y="430" />
              <mxPoint x="324" y="360" />
            </Array>
          </mxGeometry>
        </mxCell>
        <mxCell id="iKwgrwwHFy8eXeqNAH09-1047" style="edgeStyle=orthogonalEdgeStyle;rounded=0;orthogonalLoop=1;jettySize=auto;html=1;entryX=0;entryY=0.75;entryDx=0;entryDy=0;" parent="iKwgrwwHFy8eXeqNAH09-822" source="iKwgrwwHFy8eXeqNAH09-1046" target="iKwgrwwHFy8eXeqNAH09-1043" edge="1">
          <mxGeometry relative="1" as="geometry">
            <Array as="points">
              <mxPoint x="331" y="375" />
            </Array>
          </mxGeometry>
        </mxCell>
        <mxCell id="iKwgrwwHFy8eXeqNAH09-607" style="edgeStyle=orthogonalEdgeStyle;rounded=0;orthogonalLoop=1;jettySize=auto;html=1;entryX=0;entryY=0.5;entryDx=0;entryDy=0;" parent="iKwgrwwHFy8eXeqNAH09-822" source="iKwgrwwHFy8eXeqNAH09-609" target="iKwgrwwHFy8eXeqNAH09-611" edge="1">
          <mxGeometry relative="1" as="geometry" />
        </mxCell>
        <mxCell id="iKwgrwwHFy8eXeqNAH09-608" style="edgeStyle=orthogonalEdgeStyle;rounded=0;orthogonalLoop=1;jettySize=auto;html=1;entryX=0.75;entryY=1;entryDx=0;entryDy=0;" parent="iKwgrwwHFy8eXeqNAH09-822" source="U4OhBhmkpJD2XP-6xcDB-33" target="iKwgrwwHFy8eXeqNAH09-619" edge="1">
          <mxGeometry relative="1" as="geometry">
            <Array as="points">
              <mxPoint x="101" y="200" />
              <mxPoint x="131" y="200" />
            </Array>
          </mxGeometry>
        </mxCell>
        <mxCell id="iKwgrwwHFy8eXeqNAH09-609" value="&lt;div style=&quot;line-height: 80%;&quot;&gt;&lt;font style=&quot;font-size: 13px; line-height: 80%;&quot;&gt;Program&lt;/font&gt;&lt;div&gt;&lt;font style=&quot;font-size: 13px; line-height: 80%;&quot;&gt;Counter&lt;/font&gt;&lt;/div&gt;&lt;/div&gt;" style="whiteSpace=wrap;html=1;shadow=1;fontSize=18;fillColor=#f5f5f5;strokeColor=#666666;fontStyle=1" parent="iKwgrwwHFy8eXeqNAH09-822" vertex="1">
          <mxGeometry x="31" y="210" width="60" height="40" as="geometry" />
        </mxCell>
        <mxCell id="iKwgrwwHFy8eXeqNAH09-610" style="edgeStyle=orthogonalEdgeStyle;rounded=0;orthogonalLoop=1;jettySize=auto;html=1;entryX=0;entryY=0.5;entryDx=0;entryDy=0;" parent="iKwgrwwHFy8eXeqNAH09-822" source="iKwgrwwHFy8eXeqNAH09-611" target="iKwgrwwHFy8eXeqNAH09-615" edge="1">
          <mxGeometry relative="1" as="geometry" />
        </mxCell>
        <mxCell id="iKwgrwwHFy8eXeqNAH09-611" value="&lt;div style=&quot;line-height: 80%;&quot;&gt;&lt;font style=&quot;font-size: 13px; line-height: 80%;&quot;&gt;&lt;b&gt;Instruction&lt;/b&gt;&lt;/font&gt;&lt;div&gt;&lt;font style=&quot;font-size: 13px; line-height: 80%;&quot;&gt;&lt;b&gt;Memory&lt;/b&gt;&lt;/font&gt;&lt;/div&gt;&lt;/div&gt;" style="whiteSpace=wrap;html=1;shadow=1;fontSize=18;fillColor=#f5f5f5;strokeColor=#666666;align=center;" parent="iKwgrwwHFy8eXeqNAH09-822" vertex="1">
          <mxGeometry x="115" y="210" width="70" height="40" as="geometry" />
        </mxCell>
        <mxCell id="iKwgrwwHFy8eXeqNAH09-612" style="edgeStyle=orthogonalEdgeStyle;rounded=0;orthogonalLoop=1;jettySize=auto;html=1;entryX=0.5;entryY=1;entryDx=0;entryDy=0;" parent="iKwgrwwHFy8eXeqNAH09-822" source="iKwgrwwHFy8eXeqNAH09-615" target="iKwgrwwHFy8eXeqNAH09-625" edge="1">
          <mxGeometry relative="1" as="geometry" />
        </mxCell>
        <mxCell id="iKwgrwwHFy8eXeqNAH09-613" style="edgeStyle=orthogonalEdgeStyle;rounded=0;orthogonalLoop=1;jettySize=auto;html=1;entryX=0;entryY=0.25;entryDx=0;entryDy=0;" parent="iKwgrwwHFy8eXeqNAH09-822" source="iKwgrwwHFy8eXeqNAH09-637" target="iKwgrwwHFy8eXeqNAH09-626" edge="1">
          <mxGeometry relative="1" as="geometry">
            <Array as="points">
              <mxPoint x="301" y="290" />
            </Array>
          </mxGeometry>
        </mxCell>
        <mxCell id="iKwgrwwHFy8eXeqNAH09-614" style="edgeStyle=orthogonalEdgeStyle;rounded=0;orthogonalLoop=1;jettySize=auto;html=1;entryX=0.5;entryY=0;entryDx=0;entryDy=0;" parent="iKwgrwwHFy8eXeqNAH09-822" source="iKwgrwwHFy8eXeqNAH09-615" target="iKwgrwwHFy8eXeqNAH09-621" edge="1">
          <mxGeometry relative="1" as="geometry" />
        </mxCell>
        <mxCell id="iKwgrwwHFy8eXeqNAH09-615" value="&lt;div style=&quot;line-height: 80%;&quot;&gt;&lt;font style=&quot;font-size: 13px; line-height: 80%;&quot;&gt;&lt;b&gt;Instruction&lt;/b&gt;&lt;/font&gt;&lt;div&gt;&lt;font style=&quot;font-size: 13px; line-height: 80%;&quot;&gt;&lt;b&gt;Decoder&lt;/b&gt;&lt;/font&gt;&lt;/div&gt;&lt;/div&gt;" style="whiteSpace=wrap;html=1;shadow=1;fontSize=18;fillColor=#f5f5f5;strokeColor=#666666;align=center;" parent="iKwgrwwHFy8eXeqNAH09-822" vertex="1">
          <mxGeometry x="201" y="210" width="80" height="40" as="geometry" />
        </mxCell>
        <mxCell id="iKwgrwwHFy8eXeqNAH09-616" style="edgeStyle=orthogonalEdgeStyle;rounded=0;orthogonalLoop=1;jettySize=auto;html=1;entryX=0;entryY=0.5;entryDx=0;entryDy=0;exitX=0;exitY=0.5;exitDx=0;exitDy=0;" parent="iKwgrwwHFy8eXeqNAH09-822" source="iKwgrwwHFy8eXeqNAH09-617" target="iKwgrwwHFy8eXeqNAH09-609" edge="1">
          <mxGeometry relative="1" as="geometry">
            <mxPoint x="46" y="225" as="targetPoint" />
            <Array as="points">
              <mxPoint x="11" y="170" />
              <mxPoint x="11" y="230" />
            </Array>
          </mxGeometry>
        </mxCell>
        <mxCell id="iKwgrwwHFy8eXeqNAH09-617" value="&lt;div style=&quot;line-height: 80%;&quot;&gt;&lt;font style=&quot;font-size: 13px; line-height: 80%;&quot;&gt;PC&lt;/font&gt;&lt;div&gt;&lt;font style=&quot;font-size: 13px; line-height: 80%;&quot;&gt;Aligner&lt;/font&gt;&lt;/div&gt;&lt;/div&gt;" style="whiteSpace=wrap;html=1;shadow=1;fontSize=18;fillColor=#f5f5f5;strokeColor=#666666;fontStyle=1" parent="iKwgrwwHFy8eXeqNAH09-822" vertex="1">
          <mxGeometry x="31" y="150" width="50" height="40" as="geometry" />
        </mxCell>
        <mxCell id="iKwgrwwHFy8eXeqNAH09-618" style="edgeStyle=orthogonalEdgeStyle;rounded=0;orthogonalLoop=1;jettySize=auto;html=1;entryX=1;entryY=0.5;entryDx=0;entryDy=0;" parent="iKwgrwwHFy8eXeqNAH09-822" source="iKwgrwwHFy8eXeqNAH09-619" target="iKwgrwwHFy8eXeqNAH09-617" edge="1">
          <mxGeometry relative="1" as="geometry" />
        </mxCell>
        <mxCell id="iKwgrwwHFy8eXeqNAH09-619" value="&lt;div style=&quot;line-height: 80%;&quot;&gt;&lt;font style=&quot;font-size: 13px; line-height: 80%;&quot;&gt;PC&lt;/font&gt;&lt;div&gt;&lt;font style=&quot;font-size: 13px; line-height: 80%;&quot;&gt;Controller&lt;/font&gt;&lt;/div&gt;&lt;/div&gt;" style="whiteSpace=wrap;html=1;shadow=1;fontSize=18;fillColor=#f5f5f5;strokeColor=#666666;fontStyle=1" parent="iKwgrwwHFy8eXeqNAH09-822" vertex="1">
          <mxGeometry x="71" y="100" width="80" height="40" as="geometry" />
        </mxCell>
        <mxCell id="iKwgrwwHFy8eXeqNAH09-620" style="edgeStyle=orthogonalEdgeStyle;rounded=0;orthogonalLoop=1;jettySize=auto;html=1;entryX=0.25;entryY=1;entryDx=0;entryDy=0;" parent="iKwgrwwHFy8eXeqNAH09-822" source="iKwgrwwHFy8eXeqNAH09-621" target="iKwgrwwHFy8eXeqNAH09-648" edge="1">
          <mxGeometry relative="1" as="geometry">
            <mxPoint x="281" y="330" as="targetPoint" />
            <Array as="points">
              <mxPoint x="241" y="335" />
            </Array>
          </mxGeometry>
        </mxCell>
        <mxCell id="iKwgrwwHFy8eXeqNAH09-621" value="&lt;div style=&quot;line-height: 80%;&quot;&gt;&lt;span style=&quot;font-size: 13px;&quot;&gt;&lt;b&gt;Immediate&lt;/b&gt;&lt;/span&gt;&lt;/div&gt;&lt;div style=&quot;line-height: 80%;&quot;&gt;&lt;span style=&quot;font-size: 13px;&quot;&gt;&lt;b&gt;Generator&lt;/b&gt;&lt;/span&gt;&lt;/div&gt;" style="whiteSpace=wrap;html=1;shadow=1;fontSize=18;fillColor=#f5f5f5;strokeColor=#666666;align=center;" parent="iKwgrwwHFy8eXeqNAH09-822" vertex="1">
          <mxGeometry x="201" y="270" width="80" height="40" as="geometry" />
        </mxCell>
        <mxCell id="iKwgrwwHFy8eXeqNAH09-623" style="edgeStyle=orthogonalEdgeStyle;rounded=0;orthogonalLoop=1;jettySize=auto;html=1;entryX=1;entryY=0.5;entryDx=0;entryDy=0;" parent="iKwgrwwHFy8eXeqNAH09-822" source="iKwgrwwHFy8eXeqNAH09-625" target="iKwgrwwHFy8eXeqNAH09-619" edge="1">
          <mxGeometry relative="1" as="geometry">
            <mxPoint x="161" y="120" as="targetPoint" />
          </mxGeometry>
        </mxCell>
        <mxCell id="iKwgrwwHFy8eXeqNAH09-624" style="edgeStyle=orthogonalEdgeStyle;rounded=0;orthogonalLoop=1;jettySize=auto;html=1;entryX=0;entryY=0.5;entryDx=0;entryDy=0;" parent="iKwgrwwHFy8eXeqNAH09-822" source="iKwgrwwHFy8eXeqNAH09-625" target="iKwgrwwHFy8eXeqNAH09-632" edge="1">
          <mxGeometry relative="1" as="geometry">
            <Array as="points">
              <mxPoint x="291" y="100" />
              <mxPoint x="291" y="170" />
            </Array>
          </mxGeometry>
        </mxCell>
        <mxCell id="iKwgrwwHFy8eXeqNAH09-625" value="&lt;div style=&quot;line-height: 80%;&quot;&gt;&lt;span style=&quot;font-size: 13px;&quot;&gt;&lt;b&gt;Control&lt;/b&gt;&lt;/span&gt;&lt;/div&gt;&lt;div style=&quot;line-height: 80%;&quot;&gt;&lt;span style=&quot;font-size: 13px;&quot;&gt;&lt;b&gt;Unit&lt;/b&gt;&lt;/span&gt;&lt;/div&gt;" style="whiteSpace=wrap;html=1;shadow=1;fontSize=18;fillColor=#f5f5f5;strokeColor=#666666;align=center;" parent="iKwgrwwHFy8eXeqNAH09-822" vertex="1">
          <mxGeometry x="211" y="80" width="60" height="80" as="geometry" />
        </mxCell>
        <mxCell id="iKwgrwwHFy8eXeqNAH09-626" value="&lt;div style=&quot;line-height: 80%;&quot;&gt;&lt;span style=&quot;font-size: 13px;&quot;&gt;&lt;b&gt;Register&lt;/b&gt;&lt;/span&gt;&lt;/div&gt;&lt;div style=&quot;line-height: 80%;&quot;&gt;&lt;span style=&quot;font-size: 13px;&quot;&gt;&lt;b&gt;File&lt;/b&gt;&lt;/span&gt;&lt;/div&gt;" style="whiteSpace=wrap;html=1;shadow=1;fontSize=18;fillColor=#f5f5f5;strokeColor=#666666;align=center;" parent="iKwgrwwHFy8eXeqNAH09-822" vertex="1">
          <mxGeometry x="353.5" y="280" width="60" height="40" as="geometry" />
        </mxCell>
        <mxCell id="iKwgrwwHFy8eXeqNAH09-627" value="&lt;div style=&quot;line-height: 80%;&quot;&gt;&lt;span style=&quot;font-size: 13px;&quot;&gt;&lt;b&gt;ALU&lt;/b&gt;&lt;/span&gt;&lt;/div&gt;&lt;div style=&quot;line-height: 80%;&quot;&gt;&lt;span style=&quot;font-size: 13px;&quot;&gt;&lt;b&gt;Controller&lt;/b&gt;&lt;/span&gt;&lt;/div&gt;" style="whiteSpace=wrap;html=1;shadow=1;fontSize=18;fillColor=#f5f5f5;strokeColor=#666666;align=center;" parent="iKwgrwwHFy8eXeqNAH09-822" vertex="1">
          <mxGeometry x="321" y="210" width="80" height="40" as="geometry" />
        </mxCell>
        <mxCell id="iKwgrwwHFy8eXeqNAH09-628" style="edgeStyle=orthogonalEdgeStyle;rounded=0;orthogonalLoop=1;jettySize=auto;html=1;entryX=0.75;entryY=1;entryDx=0;entryDy=0;exitX=0.5;exitY=1;exitDx=0;exitDy=0;jumpStyle=arc;" parent="iKwgrwwHFy8eXeqNAH09-822" source="iKwgrwwHFy8eXeqNAH09-629" edge="1">
          <mxGeometry relative="1" as="geometry">
            <mxPoint x="541" y="290" as="sourcePoint" />
            <mxPoint x="281" y="365" as="targetPoint" />
            <Array as="points">
              <mxPoint x="541" y="420" />
              <mxPoint x="251" y="420" />
              <mxPoint x="251" y="365" />
            </Array>
          </mxGeometry>
        </mxCell>
        <mxCell id="iKwgrwwHFy8eXeqNAH09-629" value="&lt;div style=&quot;line-height: 80%;&quot;&gt;&lt;span style=&quot;font-size: 13px;&quot;&gt;&lt;b&gt;ALU&lt;/b&gt;&lt;/span&gt;&lt;/div&gt;" style="whiteSpace=wrap;html=1;shadow=1;fontSize=18;fillColor=#f5f5f5;strokeColor=#666666;align=center;" parent="iKwgrwwHFy8eXeqNAH09-822" vertex="1">
          <mxGeometry x="511" y="200" width="60" height="100" as="geometry" />
        </mxCell>
        <mxCell id="iKwgrwwHFy8eXeqNAH09-630" style="edgeStyle=orthogonalEdgeStyle;rounded=0;orthogonalLoop=1;jettySize=auto;html=1;entryX=0.5;entryY=0;entryDx=0;entryDy=0;" parent="iKwgrwwHFy8eXeqNAH09-822" source="iKwgrwwHFy8eXeqNAH09-631" target="iKwgrwwHFy8eXeqNAH09-632" edge="1">
          <mxGeometry relative="1" as="geometry" />
        </mxCell>
        <mxCell id="iKwgrwwHFy8eXeqNAH09-631" value="&lt;div style=&quot;line-height: 80%;&quot;&gt;&lt;span style=&quot;font-size: 13px;&quot;&gt;&lt;b&gt;Data&lt;br&gt;Memory&lt;/b&gt;&lt;/span&gt;&lt;/div&gt;" style="whiteSpace=wrap;html=1;shadow=1;fontSize=18;fillColor=#f5f5f5;strokeColor=#666666;align=center;" parent="iKwgrwwHFy8eXeqNAH09-822" vertex="1">
          <mxGeometry x="311" y="80" width="80" height="40" as="geometry" />
        </mxCell>
        <mxCell id="iKwgrwwHFy8eXeqNAH09-632" value="&lt;div style=&quot;line-height: 80%;&quot;&gt;&lt;span style=&quot;font-size: 13px;&quot;&gt;&lt;b&gt;Byte Enable&lt;br&gt;Logic&lt;/b&gt;&lt;/span&gt;&lt;/div&gt;" style="whiteSpace=wrap;html=1;shadow=1;fontSize=18;fillColor=#f5f5f5;strokeColor=#666666;align=center;" parent="iKwgrwwHFy8eXeqNAH09-822" vertex="1">
          <mxGeometry x="311" y="150" width="80" height="40" as="geometry" />
        </mxCell>
        <mxCell id="iKwgrwwHFy8eXeqNAH09-633" style="edgeStyle=orthogonalEdgeStyle;rounded=0;orthogonalLoop=1;jettySize=auto;html=1;entryX=0.75;entryY=0;entryDx=0;entryDy=0;" parent="iKwgrwwHFy8eXeqNAH09-822" source="iKwgrwwHFy8eXeqNAH09-634" target="iKwgrwwHFy8eXeqNAH09-619" edge="1">
          <mxGeometry relative="1" as="geometry">
            <Array as="points">
              <mxPoint x="451" y="70" />
              <mxPoint x="131" y="70" />
            </Array>
          </mxGeometry>
        </mxCell>
        <mxCell id="iKwgrwwHFy8eXeqNAH09-634" value="&lt;div style=&quot;line-height: 80%;&quot;&gt;&lt;span style=&quot;font-size: 13px;&quot;&gt;&lt;b&gt;Branch&lt;/b&gt;&lt;/span&gt;&lt;/div&gt;&lt;div style=&quot;line-height: 80%;&quot;&gt;&lt;span style=&quot;font-size: 13px;&quot;&gt;&lt;b&gt;Logic&lt;/b&gt;&lt;/span&gt;&lt;/div&gt;" style="whiteSpace=wrap;html=1;shadow=1;fontSize=18;fillColor=#f5f5f5;strokeColor=#666666;align=center;" parent="iKwgrwwHFy8eXeqNAH09-822" vertex="1">
          <mxGeometry x="421" y="100" width="60" height="50" as="geometry" />
        </mxCell>
        <mxCell id="iKwgrwwHFy8eXeqNAH09-636" value="" style="shape=waypoint;sketch=0;size=6;pointerEvents=1;points=[];fillColor=none;resizable=0;rotatable=0;perimeter=centerPerimeter;snapToPoint=1;" parent="iKwgrwwHFy8eXeqNAH09-822" vertex="1">
          <mxGeometry x="1" y="220" width="20" height="20" as="geometry" />
        </mxCell>
        <mxCell id="iKwgrwwHFy8eXeqNAH09-637" value="" style="shape=waypoint;sketch=0;size=6;pointerEvents=1;points=[];fillColor=none;resizable=0;rotatable=0;perimeter=centerPerimeter;snapToPoint=1;" parent="iKwgrwwHFy8eXeqNAH09-822" vertex="1">
          <mxGeometry x="291" y="220" width="20" height="20" as="geometry" />
        </mxCell>
        <mxCell id="iKwgrwwHFy8eXeqNAH09-638" style="edgeStyle=orthogonalEdgeStyle;rounded=0;orthogonalLoop=1;jettySize=auto;html=1;entryX=0;entryY=0.5;entryDx=0;entryDy=0;" parent="iKwgrwwHFy8eXeqNAH09-822" source="iKwgrwwHFy8eXeqNAH09-639" target="iKwgrwwHFy8eXeqNAH09-631" edge="1">
          <mxGeometry relative="1" as="geometry">
            <Array as="points">
              <mxPoint x="291" y="100" />
            </Array>
          </mxGeometry>
        </mxCell>
        <mxCell id="iKwgrwwHFy8eXeqNAH09-639" value="" style="shape=waypoint;sketch=0;size=6;pointerEvents=1;points=[];fillColor=none;resizable=0;rotatable=0;perimeter=centerPerimeter;snapToPoint=1;" parent="iKwgrwwHFy8eXeqNAH09-822" vertex="1">
          <mxGeometry x="281" y="90" width="20" height="20" as="geometry" />
        </mxCell>
        <mxCell id="iKwgrwwHFy8eXeqNAH09-640" style="edgeStyle=orthogonalEdgeStyle;rounded=0;orthogonalLoop=1;jettySize=auto;html=1;entryX=0.5;entryY=0;entryDx=0;entryDy=0;" parent="iKwgrwwHFy8eXeqNAH09-822" source="iKwgrwwHFy8eXeqNAH09-641" target="iKwgrwwHFy8eXeqNAH09-619" edge="1">
          <mxGeometry relative="1" as="geometry">
            <mxPoint x="121" y="100" as="targetPoint" />
            <Array as="points">
              <mxPoint x="541" y="60" />
              <mxPoint x="111" y="60" />
            </Array>
          </mxGeometry>
        </mxCell>
        <mxCell id="iKwgrwwHFy8eXeqNAH09-641" value="" style="shape=waypoint;sketch=0;size=6;pointerEvents=1;points=[];fillColor=none;resizable=0;rotatable=0;perimeter=centerPerimeter;snapToPoint=1;" parent="iKwgrwwHFy8eXeqNAH09-822" vertex="1">
          <mxGeometry x="531" y="80" width="20" height="20" as="geometry" />
        </mxCell>
        <mxCell id="iKwgrwwHFy8eXeqNAH09-642" value="" style="shape=waypoint;sketch=0;size=6;pointerEvents=1;points=[];fillColor=none;resizable=0;rotatable=0;perimeter=centerPerimeter;snapToPoint=1;" parent="iKwgrwwHFy8eXeqNAH09-822" vertex="1">
          <mxGeometry x="281" y="125" width="20" height="20" as="geometry" />
        </mxCell>
        <mxCell id="iKwgrwwHFy8eXeqNAH09-643" style="edgeStyle=orthogonalEdgeStyle;rounded=0;orthogonalLoop=1;jettySize=auto;html=1;entryX=0;entryY=0.5;entryDx=0;entryDy=0;jumpStyle=arc;" parent="iKwgrwwHFy8eXeqNAH09-822" source="iKwgrwwHFy8eXeqNAH09-642" target="iKwgrwwHFy8eXeqNAH09-634" edge="1">
          <mxGeometry relative="1" as="geometry" />
        </mxCell>
        <mxCell id="iKwgrwwHFy8eXeqNAH09-644" style="edgeStyle=orthogonalEdgeStyle;rounded=0;orthogonalLoop=1;jettySize=auto;html=1;entryX=1;entryY=0.25;entryDx=0;entryDy=0;" parent="iKwgrwwHFy8eXeqNAH09-822" source="iKwgrwwHFy8eXeqNAH09-656" target="iKwgrwwHFy8eXeqNAH09-632" edge="1">
          <mxGeometry relative="1" as="geometry">
            <Array as="points" />
          </mxGeometry>
        </mxCell>
        <mxCell id="iKwgrwwHFy8eXeqNAH09-645" value="" style="shape=waypoint;sketch=0;size=6;pointerEvents=1;points=[];fillColor=none;resizable=0;rotatable=0;perimeter=centerPerimeter;snapToPoint=1;" parent="iKwgrwwHFy8eXeqNAH09-822" vertex="1">
          <mxGeometry x="531" y="115" width="20" height="20" as="geometry" />
        </mxCell>
        <mxCell id="iKwgrwwHFy8eXeqNAH09-646" style="edgeStyle=orthogonalEdgeStyle;rounded=0;orthogonalLoop=1;jettySize=auto;html=1;entryX=1;entryY=0.5;entryDx=0;entryDy=0;jumpStyle=arc;" parent="iKwgrwwHFy8eXeqNAH09-822" source="iKwgrwwHFy8eXeqNAH09-645" target="iKwgrwwHFy8eXeqNAH09-631" edge="1">
          <mxGeometry relative="1" as="geometry">
            <Array as="points">
              <mxPoint x="541" y="90" />
              <mxPoint x="411" y="90" />
              <mxPoint x="411" y="100" />
            </Array>
          </mxGeometry>
        </mxCell>
        <mxCell id="iKwgrwwHFy8eXeqNAH09-650" style="edgeStyle=orthogonalEdgeStyle;rounded=0;orthogonalLoop=1;jettySize=auto;html=1;entryX=0;entryY=0.5;entryDx=0;entryDy=0;" parent="iKwgrwwHFy8eXeqNAH09-822" source="iKwgrwwHFy8eXeqNAH09-651" target="iKwgrwwHFy8eXeqNAH09-648" edge="1">
          <mxGeometry relative="1" as="geometry" />
        </mxCell>
        <mxCell id="iKwgrwwHFy8eXeqNAH09-651" value="" style="shape=waypoint;sketch=0;size=6;pointerEvents=1;points=[];fillColor=none;resizable=0;rotatable=0;perimeter=centerPerimeter;snapToPoint=1;" parent="iKwgrwwHFy8eXeqNAH09-822" vertex="1">
          <mxGeometry x="281" y="160" width="20" height="20" as="geometry" />
        </mxCell>
        <mxCell id="iKwgrwwHFy8eXeqNAH09-652" style="edgeStyle=orthogonalEdgeStyle;rounded=0;orthogonalLoop=1;jettySize=auto;html=1;entryX=0;entryY=0.5;entryDx=0;entryDy=0;jumpStyle=arc;" parent="iKwgrwwHFy8eXeqNAH09-822" source="iKwgrwwHFy8eXeqNAH09-615" target="iKwgrwwHFy8eXeqNAH09-627" edge="1">
          <mxGeometry relative="1" as="geometry">
            <Array as="points">
              <mxPoint x="311" y="230" />
              <mxPoint x="311" y="230" />
            </Array>
          </mxGeometry>
        </mxCell>
        <mxCell id="iKwgrwwHFy8eXeqNAH09-653" value="" style="endArrow=classic;html=1;rounded=0;exitX=0.5;exitY=0;exitDx=0;exitDy=0;entryX=0;entryY=0.75;entryDx=0;entryDy=0;edgeStyle=orthogonalEdgeStyle;" parent="iKwgrwwHFy8eXeqNAH09-822" source="iKwgrwwHFy8eXeqNAH09-648" target="iKwgrwwHFy8eXeqNAH09-626" edge="1">
          <mxGeometry width="50" height="50" relative="1" as="geometry">
            <mxPoint x="311" y="370" as="sourcePoint" />
            <mxPoint x="361" y="320" as="targetPoint" />
            <Array as="points">
              <mxPoint x="314" y="355" />
              <mxPoint x="314" y="310" />
            </Array>
          </mxGeometry>
        </mxCell>
        <mxCell id="iKwgrwwHFy8eXeqNAH09-654" style="edgeStyle=orthogonalEdgeStyle;rounded=0;orthogonalLoop=1;jettySize=auto;html=1;entryX=1;entryY=0.5;entryDx=0;entryDy=0;jumpStyle=arc;exitX=0.5;exitY=0;exitDx=0;exitDy=0;" parent="iKwgrwwHFy8eXeqNAH09-822" source="iKwgrwwHFy8eXeqNAH09-629" target="iKwgrwwHFy8eXeqNAH09-634" edge="1">
          <mxGeometry relative="1" as="geometry">
            <Array as="points">
              <mxPoint x="541" y="125" />
            </Array>
          </mxGeometry>
        </mxCell>
        <mxCell id="iKwgrwwHFy8eXeqNAH09-655" style="edgeStyle=orthogonalEdgeStyle;rounded=0;orthogonalLoop=1;jettySize=auto;html=1;entryX=0.75;entryY=1;entryDx=0;entryDy=0;exitX=1;exitY=0.5;exitDx=0;exitDy=0;jumpStyle=arc;" parent="iKwgrwwHFy8eXeqNAH09-822" source="iKwgrwwHFy8eXeqNAH09-632" target="iKwgrwwHFy8eXeqNAH09-648" edge="1">
          <mxGeometry relative="1" as="geometry">
            <Array as="points">
              <mxPoint x="444" y="170" />
              <mxPoint x="444" y="410" />
              <mxPoint x="261" y="410" />
              <mxPoint x="261" y="375" />
            </Array>
          </mxGeometry>
        </mxCell>
        <mxCell id="iKwgrwwHFy8eXeqNAH09-656" value="" style="shape=waypoint;sketch=0;size=6;pointerEvents=1;points=[];fillColor=none;resizable=0;rotatable=0;perimeter=centerPerimeter;snapToPoint=1;" parent="iKwgrwwHFy8eXeqNAH09-822" vertex="1">
          <mxGeometry x="531" y="150" width="20" height="20" as="geometry" />
        </mxCell>
        <mxCell id="iKwgrwwHFy8eXeqNAH09-664" style="edgeStyle=orthogonalEdgeStyle;rounded=0;orthogonalLoop=1;jettySize=auto;html=1;entryX=0;entryY=0.5;entryDx=0;entryDy=0;jumpStyle=arc;" parent="iKwgrwwHFy8eXeqNAH09-822" source="iKwgrwwHFy8eXeqNAH09-665" target="iKwgrwwHFy8eXeqNAH09-658" edge="1">
          <mxGeometry relative="1" as="geometry" />
        </mxCell>
        <mxCell id="iKwgrwwHFy8eXeqNAH09-665" value="" style="shape=waypoint;sketch=0;size=6;pointerEvents=1;points=[];fillColor=none;resizable=0;rotatable=0;perimeter=centerPerimeter;snapToPoint=1;" parent="iKwgrwwHFy8eXeqNAH09-822" vertex="1">
          <mxGeometry x="281" y="190" width="20" height="20" as="geometry" />
        </mxCell>
        <mxCell id="iKwgrwwHFy8eXeqNAH09-666" style="edgeStyle=orthogonalEdgeStyle;rounded=0;orthogonalLoop=1;jettySize=auto;html=1;entryX=0;entryY=0.5;entryDx=0;entryDy=0;" parent="iKwgrwwHFy8eXeqNAH09-822" source="iKwgrwwHFy8eXeqNAH09-667" target="iKwgrwwHFy8eXeqNAH09-662" edge="1">
          <mxGeometry relative="1" as="geometry">
            <Array as="points">
              <mxPoint x="491" y="200" />
            </Array>
          </mxGeometry>
        </mxCell>
        <mxCell id="iKwgrwwHFy8eXeqNAH09-667" value="" style="shape=waypoint;sketch=0;size=6;pointerEvents=1;points=[];fillColor=none;resizable=0;rotatable=0;perimeter=centerPerimeter;snapToPoint=1;" parent="iKwgrwwHFy8eXeqNAH09-822" vertex="1">
          <mxGeometry x="461" y="190" width="20" height="20" as="geometry" />
        </mxCell>
        <mxCell id="iKwgrwwHFy8eXeqNAH09-668" style="rounded=0;orthogonalLoop=1;jettySize=auto;html=1;entryX=0;entryY=0.8;entryDx=0;entryDy=0;entryPerimeter=0;jumpStyle=arc;" parent="iKwgrwwHFy8eXeqNAH09-822" source="iKwgrwwHFy8eXeqNAH09-658" target="iKwgrwwHFy8eXeqNAH09-629" edge="1">
          <mxGeometry relative="1" as="geometry">
            <mxPoint x="491" y="280" as="targetPoint" />
          </mxGeometry>
        </mxCell>
        <mxCell id="iKwgrwwHFy8eXeqNAH09-669" value="" style="endArrow=classic;html=1;rounded=0;entryX=0;entryY=0.25;entryDx=0;entryDy=0;jumpStyle=arc;" parent="iKwgrwwHFy8eXeqNAH09-822" target="iKwgrwwHFy8eXeqNAH09-629" edge="1">
          <mxGeometry width="50" height="50" relative="1" as="geometry">
            <mxPoint x="401" y="225" as="sourcePoint" />
            <mxPoint x="421" y="225" as="targetPoint" />
          </mxGeometry>
        </mxCell>
        <mxCell id="iKwgrwwHFy8eXeqNAH09-670" style="edgeStyle=orthogonalEdgeStyle;rounded=0;orthogonalLoop=1;jettySize=auto;html=1;entryX=0;entryY=0.5;entryDx=0;entryDy=0;jumpStyle=arc;exitX=1;exitY=0.25;exitDx=0;exitDy=0;" parent="iKwgrwwHFy8eXeqNAH09-822" source="iKwgrwwHFy8eXeqNAH09-626" target="iKwgrwwHFy8eXeqNAH09-659" edge="1">
          <mxGeometry relative="1" as="geometry">
            <Array as="points">
              <mxPoint x="424" y="290" />
              <mxPoint x="424" y="280" />
            </Array>
            <mxPoint x="383.5" y="279.9999999999998" as="sourcePoint" />
            <mxPoint x="461" y="272.4999999999998" as="targetPoint" />
          </mxGeometry>
        </mxCell>
        <mxCell id="iKwgrwwHFy8eXeqNAH09-672" value="" style="shape=waypoint;sketch=0;size=6;pointerEvents=1;points=[];fillColor=none;resizable=0;rotatable=0;perimeter=centerPerimeter;snapToPoint=1;" parent="iKwgrwwHFy8eXeqNAH09-822" vertex="1">
          <mxGeometry x="231" y="325" width="20" height="20" as="geometry" />
        </mxCell>
        <mxCell id="iKwgrwwHFy8eXeqNAH09-673" style="edgeStyle=orthogonalEdgeStyle;rounded=0;orthogonalLoop=1;jettySize=auto;html=1;entryX=0.25;entryY=1;entryDx=0;entryDy=0;" parent="iKwgrwwHFy8eXeqNAH09-822" source="iKwgrwwHFy8eXeqNAH09-663" target="iKwgrwwHFy8eXeqNAH09-629" edge="1">
          <mxGeometry relative="1" as="geometry" />
        </mxCell>
        <mxCell id="iKwgrwwHFy8eXeqNAH09-674" style="edgeStyle=orthogonalEdgeStyle;rounded=0;orthogonalLoop=1;jettySize=auto;html=1;entryX=0.25;entryY=1;entryDx=0;entryDy=0;exitX=0.5;exitY=1;exitDx=0;exitDy=0;jumpStyle=arc;" parent="iKwgrwwHFy8eXeqNAH09-822" source="U4OhBhmkpJD2XP-6xcDB-31" edge="1">
          <mxGeometry relative="1" as="geometry">
            <mxPoint x="71" y="280" as="sourcePoint" />
            <mxPoint x="281" y="345" as="targetPoint" />
            <Array as="points">
              <mxPoint x="101" y="345" />
            </Array>
          </mxGeometry>
        </mxCell>
        <mxCell id="iKwgrwwHFy8eXeqNAH09-675" style="edgeStyle=orthogonalEdgeStyle;rounded=0;orthogonalLoop=1;jettySize=auto;html=1;entryX=0.75;entryY=1;entryDx=0;entryDy=0;jumpStyle=arc;" parent="iKwgrwwHFy8eXeqNAH09-822" source="iKwgrwwHFy8eXeqNAH09-636" target="iKwgrwwHFy8eXeqNAH09-658" edge="1">
          <mxGeometry relative="1" as="geometry">
            <Array as="points">
              <mxPoint x="11" y="400" />
              <mxPoint x="434" y="400" />
              <mxPoint x="434" y="295" />
            </Array>
            <mxPoint x="11" y="270" as="sourcePoint" />
          </mxGeometry>
        </mxCell>
        <mxCell id="iKwgrwwHFy8eXeqNAH09-676" style="edgeStyle=orthogonalEdgeStyle;rounded=0;orthogonalLoop=1;jettySize=auto;html=1;entryX=0.25;entryY=1;entryDx=0;entryDy=0;jumpStyle=arc;exitX=1;exitY=0.5;exitDx=0;exitDy=0;" parent="iKwgrwwHFy8eXeqNAH09-822" source="iKwgrwwHFy8eXeqNAH09-626" target="iKwgrwwHFy8eXeqNAH09-662" edge="1">
          <mxGeometry relative="1" as="geometry">
            <Array as="points">
              <mxPoint x="424" y="300" />
              <mxPoint x="424" y="330" />
            </Array>
          </mxGeometry>
        </mxCell>
        <mxCell id="iKwgrwwHFy8eXeqNAH09-677" value="&lt;font style=&quot;font-size: 24px;&quot;&gt;&lt;b&gt;[RV32I43F] &lt;br&gt;43F Architecture&lt;/b&gt;&lt;/font&gt;" style="text;html=1;align=left;verticalAlign=middle;whiteSpace=wrap;rounded=0;" parent="iKwgrwwHFy8eXeqNAH09-822" vertex="1">
          <mxGeometry x="1" width="320" height="60" as="geometry" />
        </mxCell>
        <mxCell id="iKwgrwwHFy8eXeqNAH09-1052" style="edgeStyle=orthogonalEdgeStyle;rounded=0;orthogonalLoop=1;jettySize=auto;html=1;entryX=0;entryY=0.5;entryDx=0;entryDy=0;exitX=1;exitY=0.25;exitDx=0;exitDy=0;jumpStyle=arc;" parent="iKwgrwwHFy8eXeqNAH09-822" source="iKwgrwwHFy8eXeqNAH09-1043" target="iKwgrwwHFy8eXeqNAH09-663" edge="1">
          <mxGeometry relative="1" as="geometry" />
        </mxCell>
        <mxCell id="iKwgrwwHFy8eXeqNAH09-1043" value="&lt;div style=&quot;line-height: 80%;&quot;&gt;&lt;span style=&quot;font-size: 13px;&quot;&gt;&lt;b&gt;CSR&lt;/b&gt;&lt;/span&gt;&lt;/div&gt;&lt;div style=&quot;line-height: 80%;&quot;&gt;&lt;span style=&quot;font-size: 13px;&quot;&gt;&lt;b&gt;File&lt;/b&gt;&lt;/span&gt;&lt;/div&gt;" style="whiteSpace=wrap;html=1;shadow=1;fontSize=18;fillColor=#dae8fc;strokeColor=#6c8ebf;align=center;" parent="iKwgrwwHFy8eXeqNAH09-822" vertex="1">
          <mxGeometry x="353.5" y="330" width="60" height="60" as="geometry" />
        </mxCell>
        <mxCell id="iKwgrwwHFy8eXeqNAH09-1045" style="edgeStyle=orthogonalEdgeStyle;rounded=0;orthogonalLoop=1;jettySize=auto;html=1;jumpStyle=arc;" parent="iKwgrwwHFy8eXeqNAH09-822" source="iKwgrwwHFy8eXeqNAH09-1044" edge="1">
          <mxGeometry relative="1" as="geometry">
            <mxPoint x="353.5" y="340" as="targetPoint" />
            <Array as="points">
              <mxPoint x="324" y="300" />
              <mxPoint x="324" y="340" />
            </Array>
          </mxGeometry>
        </mxCell>
        <mxCell id="iKwgrwwHFy8eXeqNAH09-1044" value="" style="shape=waypoint;sketch=0;size=6;pointerEvents=1;points=[];fillColor=none;resizable=0;rotatable=0;perimeter=centerPerimeter;snapToPoint=1;" parent="iKwgrwwHFy8eXeqNAH09-822" vertex="1">
          <mxGeometry x="281" y="290" width="20" height="20" as="geometry" />
        </mxCell>
        <mxCell id="iKwgrwwHFy8eXeqNAH09-1046" value="" style="shape=waypoint;sketch=0;size=6;pointerEvents=1;points=[];fillColor=none;resizable=0;rotatable=0;perimeter=centerPerimeter;snapToPoint=1;" parent="iKwgrwwHFy8eXeqNAH09-822" vertex="1">
          <mxGeometry x="321" y="410" width="20" height="20" as="geometry" />
        </mxCell>
        <mxCell id="iKwgrwwHFy8eXeqNAH09-1048" value="" style="shape=waypoint;sketch=0;size=6;pointerEvents=1;points=[];fillColor=none;resizable=0;rotatable=0;perimeter=centerPerimeter;snapToPoint=1;" parent="iKwgrwwHFy8eXeqNAH09-822" vertex="1">
          <mxGeometry x="313.5" y="420" width="20" height="20" as="geometry" />
        </mxCell>
        <mxCell id="iKwgrwwHFy8eXeqNAH09-662" value="" style="shape=trapezoid;perimeter=trapezoidPerimeter;whiteSpace=wrap;html=1;fixedSize=1;shadow=1;strokeColor=#6c8ebf;align=center;verticalAlign=middle;fontFamily=Helvetica;fontSize=18;fillColor=#dae8fc;rotation=90;container=0;" parent="iKwgrwwHFy8eXeqNAH09-822" vertex="1">
          <mxGeometry x="461" y="335" width="60" height="20" as="geometry" />
        </mxCell>
        <mxCell id="iKwgrwwHFy8eXeqNAH09-663" value="&lt;div style=&quot;line-height: 90%;&quot;&gt;&lt;b style=&quot;font-size: 10px; background-color: transparent; color: light-dark(rgb(0, 0, 0), rgb(255, 255, 255));&quot;&gt;src&lt;/b&gt;&lt;/div&gt;&lt;div style=&quot;line-height: 90%;&quot;&gt;&lt;span style=&quot;font-size: 10px;&quot;&gt;&lt;b&gt;B&lt;/b&gt;&lt;/span&gt;&lt;/div&gt;" style="text;html=1;align=center;verticalAlign=middle;whiteSpace=wrap;rounded=0;" parent="iKwgrwwHFy8eXeqNAH09-822" vertex="1">
          <mxGeometry x="481" y="330" width="20" height="30" as="geometry" />
        </mxCell>
        <mxCell id="iKwgrwwHFy8eXeqNAH09-658" value="" style="shape=trapezoid;perimeter=trapezoidPerimeter;whiteSpace=wrap;html=1;fixedSize=1;shadow=1;strokeColor=#6c8ebf;align=center;verticalAlign=middle;fontFamily=Helvetica;fontSize=18;fillColor=#dae8fc;rotation=90;container=0;" parent="iKwgrwwHFy8eXeqNAH09-822" vertex="1">
          <mxGeometry x="441" y="270" width="60" height="20" as="geometry" />
        </mxCell>
        <mxCell id="iKwgrwwHFy8eXeqNAH09-659" value="&lt;div style=&quot;line-height: 90%;&quot;&gt;&lt;b style=&quot;font-size: 10px; background-color: transparent; color: light-dark(rgb(0, 0, 0), rgb(255, 255, 255));&quot;&gt;src&lt;/b&gt;&lt;/div&gt;&lt;div style=&quot;line-height: 90%;&quot;&gt;&lt;span style=&quot;font-size: 10px;&quot;&gt;&lt;b&gt;A&lt;/b&gt;&lt;/span&gt;&lt;/div&gt;" style="text;html=1;align=center;verticalAlign=middle;whiteSpace=wrap;rounded=0;" parent="iKwgrwwHFy8eXeqNAH09-822" vertex="1">
          <mxGeometry x="461" y="265" width="20" height="30" as="geometry" />
        </mxCell>
        <mxCell id="iKwgrwwHFy8eXeqNAH09-1051" style="edgeStyle=orthogonalEdgeStyle;rounded=0;orthogonalLoop=1;jettySize=auto;html=1;entryX=0.153;entryY=1.002;entryDx=0;entryDy=0;entryPerimeter=0;" parent="iKwgrwwHFy8eXeqNAH09-822" source="iKwgrwwHFy8eXeqNAH09-1050" target="iKwgrwwHFy8eXeqNAH09-658" edge="1">
          <mxGeometry relative="1" as="geometry">
            <mxPoint x="461.5" y="260" as="targetPoint" />
            <Array as="points">
              <mxPoint x="434" y="255" />
              <mxPoint x="434" y="260" />
              <mxPoint x="461" y="260" />
            </Array>
          </mxGeometry>
        </mxCell>
        <mxCell id="iKwgrwwHFy8eXeqNAH09-1050" value="" style="shape=waypoint;sketch=0;size=6;pointerEvents=1;points=[];fillColor=none;resizable=0;rotatable=0;perimeter=centerPerimeter;snapToPoint=1;" parent="iKwgrwwHFy8eXeqNAH09-822" vertex="1">
          <mxGeometry x="291" y="245" width="20" height="20" as="geometry" />
        </mxCell>
        <mxCell id="iKwgrwwHFy8eXeqNAH09-649" value="&lt;div style=&quot;line-height: 90%;&quot;&gt;&lt;font style=&quot;font-size: 10px;&quot;&gt;&lt;b&gt;Reg&lt;/b&gt;&lt;/font&gt;&lt;div&gt;&lt;font style=&quot;font-size: 10px;&quot;&gt;&lt;b&gt;Src&lt;/b&gt;&lt;/font&gt;&lt;/div&gt;&lt;/div&gt;" style="text;html=1;align=center;verticalAlign=middle;whiteSpace=wrap;rounded=0;" parent="iKwgrwwHFy8eXeqNAH09-822" vertex="1">
          <mxGeometry x="261" y="340" width="60" height="30" as="geometry" />
        </mxCell>
        <mxCell id="iKwgrwwHFy8eXeqNAH09-1134" value="" style="shape=waypoint;sketch=0;size=6;pointerEvents=1;points=[];fillColor=none;resizable=0;rotatable=0;perimeter=centerPerimeter;snapToPoint=1;" parent="iKwgrwwHFy8eXeqNAH09-822" vertex="1">
          <mxGeometry x="413.5" y="335" width="20" height="20" as="geometry" />
        </mxCell>
        <mxCell id="U4OhBhmkpJD2XP-6xcDB-31" value="&lt;div style=&quot;line-height: 80%;&quot;&gt;&lt;span style=&quot;font-size: 13px;&quot;&gt;PC+4&lt;/span&gt;&lt;/div&gt;" style="whiteSpace=wrap;html=1;shadow=1;fontSize=18;fillColor=#f5f5f5;strokeColor=#666666;fontStyle=1" vertex="1" parent="iKwgrwwHFy8eXeqNAH09-822">
          <mxGeometry x="81" y="260" width="40" height="20" as="geometry" />
        </mxCell>
        <mxCell id="U4OhBhmkpJD2XP-6xcDB-32" style="edgeStyle=orthogonalEdgeStyle;rounded=0;orthogonalLoop=1;jettySize=auto;html=1;entryX=0.5;entryY=0;entryDx=0;entryDy=0;" edge="1" parent="iKwgrwwHFy8eXeqNAH09-822" source="U4OhBhmkpJD2XP-6xcDB-33" target="U4OhBhmkpJD2XP-6xcDB-31">
          <mxGeometry relative="1" as="geometry">
            <Array as="points" />
          </mxGeometry>
        </mxCell>
        <mxCell id="U4OhBhmkpJD2XP-6xcDB-33" value="" style="shape=waypoint;sketch=0;size=6;pointerEvents=1;points=[];fillColor=none;resizable=0;rotatable=0;perimeter=centerPerimeter;snapToPoint=1;" vertex="1" parent="iKwgrwwHFy8eXeqNAH09-822">
          <mxGeometry x="91" y="220" width="20" height="20" as="geometry" />
        </mxCell>
        <mxCell id="iKwgrwwHFy8eXeqNAH09-823" value="" style="group" parent="1" vertex="1" connectable="0">
          <mxGeometry x="4" y="4" width="580" height="460" as="geometry" />
        </mxCell>
        <mxCell id="iKwgrwwHFy8eXeqNAH09-824" value="" style="whiteSpace=wrap;html=1;shadow=1;fontSize=18;fillColor=#f5f5f5;strokeColor=#666666;" parent="iKwgrwwHFy8eXeqNAH09-823" vertex="1">
          <mxGeometry width="580" height="460" as="geometry" />
        </mxCell>
        <mxCell id="iKwgrwwHFy8eXeqNAH09-825" style="edgeStyle=orthogonalEdgeStyle;rounded=0;orthogonalLoop=1;jettySize=auto;html=1;entryX=0;entryY=0.5;entryDx=0;entryDy=0;" parent="iKwgrwwHFy8eXeqNAH09-823" source="iKwgrwwHFy8eXeqNAH09-827" target="iKwgrwwHFy8eXeqNAH09-829" edge="1">
          <mxGeometry relative="1" as="geometry" />
        </mxCell>
        <mxCell id="iKwgrwwHFy8eXeqNAH09-826" style="edgeStyle=orthogonalEdgeStyle;rounded=0;orthogonalLoop=1;jettySize=auto;html=1;entryX=0.75;entryY=1;entryDx=0;entryDy=0;" parent="iKwgrwwHFy8eXeqNAH09-823" source="iKwgrwwHFy8eXeqNAH09-878" target="iKwgrwwHFy8eXeqNAH09-837" edge="1">
          <mxGeometry relative="1" as="geometry">
            <Array as="points">
              <mxPoint x="101" y="200" />
              <mxPoint x="131" y="200" />
            </Array>
          </mxGeometry>
        </mxCell>
        <mxCell id="iKwgrwwHFy8eXeqNAH09-827" value="&lt;div style=&quot;line-height: 80%;&quot;&gt;&lt;font style=&quot;font-size: 13px; line-height: 80%;&quot;&gt;Program&lt;/font&gt;&lt;div&gt;&lt;font style=&quot;font-size: 13px; line-height: 80%;&quot;&gt;Counter&lt;/font&gt;&lt;/div&gt;&lt;/div&gt;" style="whiteSpace=wrap;html=1;shadow=1;fontSize=18;fillColor=#f5f5f5;strokeColor=#666666;fontStyle=1" parent="iKwgrwwHFy8eXeqNAH09-823" vertex="1">
          <mxGeometry x="31" y="210" width="60" height="40" as="geometry" />
        </mxCell>
        <mxCell id="iKwgrwwHFy8eXeqNAH09-828" style="edgeStyle=orthogonalEdgeStyle;rounded=0;orthogonalLoop=1;jettySize=auto;html=1;entryX=0;entryY=0.5;entryDx=0;entryDy=0;" parent="iKwgrwwHFy8eXeqNAH09-823" source="iKwgrwwHFy8eXeqNAH09-829" target="iKwgrwwHFy8eXeqNAH09-833" edge="1">
          <mxGeometry relative="1" as="geometry" />
        </mxCell>
        <mxCell id="iKwgrwwHFy8eXeqNAH09-829" value="&lt;div style=&quot;line-height: 80%;&quot;&gt;&lt;font style=&quot;font-size: 13px; line-height: 80%;&quot;&gt;&lt;b&gt;Instruction&lt;/b&gt;&lt;/font&gt;&lt;div&gt;&lt;font style=&quot;font-size: 13px; line-height: 80%;&quot;&gt;&lt;b&gt;Memory&lt;/b&gt;&lt;/font&gt;&lt;/div&gt;&lt;/div&gt;" style="whiteSpace=wrap;html=1;shadow=1;fontSize=18;fillColor=#f5f5f5;strokeColor=#666666;align=center;" parent="iKwgrwwHFy8eXeqNAH09-823" vertex="1">
          <mxGeometry x="115" y="210" width="70" height="40" as="geometry" />
        </mxCell>
        <mxCell id="iKwgrwwHFy8eXeqNAH09-830" style="edgeStyle=orthogonalEdgeStyle;rounded=0;orthogonalLoop=1;jettySize=auto;html=1;entryX=0.5;entryY=1;entryDx=0;entryDy=0;" parent="iKwgrwwHFy8eXeqNAH09-823" source="iKwgrwwHFy8eXeqNAH09-833" target="iKwgrwwHFy8eXeqNAH09-843" edge="1">
          <mxGeometry relative="1" as="geometry" />
        </mxCell>
        <mxCell id="iKwgrwwHFy8eXeqNAH09-831" style="edgeStyle=orthogonalEdgeStyle;rounded=0;orthogonalLoop=1;jettySize=auto;html=1;entryX=0;entryY=0.25;entryDx=0;entryDy=0;" parent="iKwgrwwHFy8eXeqNAH09-823" source="iKwgrwwHFy8eXeqNAH09-855" target="iKwgrwwHFy8eXeqNAH09-844" edge="1">
          <mxGeometry relative="1" as="geometry">
            <Array as="points">
              <mxPoint x="301" y="300" />
            </Array>
          </mxGeometry>
        </mxCell>
        <mxCell id="iKwgrwwHFy8eXeqNAH09-832" style="edgeStyle=orthogonalEdgeStyle;rounded=0;orthogonalLoop=1;jettySize=auto;html=1;entryX=0.5;entryY=0;entryDx=0;entryDy=0;" parent="iKwgrwwHFy8eXeqNAH09-823" source="iKwgrwwHFy8eXeqNAH09-833" target="iKwgrwwHFy8eXeqNAH09-839" edge="1">
          <mxGeometry relative="1" as="geometry" />
        </mxCell>
        <mxCell id="iKwgrwwHFy8eXeqNAH09-833" value="&lt;div style=&quot;line-height: 80%;&quot;&gt;&lt;font style=&quot;font-size: 13px; line-height: 80%;&quot;&gt;&lt;b&gt;Instruction&lt;/b&gt;&lt;/font&gt;&lt;div&gt;&lt;font style=&quot;font-size: 13px; line-height: 80%;&quot;&gt;&lt;b&gt;Decoder&lt;/b&gt;&lt;/font&gt;&lt;/div&gt;&lt;/div&gt;" style="whiteSpace=wrap;html=1;shadow=1;fontSize=18;fillColor=#f5f5f5;strokeColor=#666666;align=center;" parent="iKwgrwwHFy8eXeqNAH09-823" vertex="1">
          <mxGeometry x="201" y="210" width="80" height="40" as="geometry" />
        </mxCell>
        <mxCell id="iKwgrwwHFy8eXeqNAH09-834" style="edgeStyle=orthogonalEdgeStyle;rounded=0;orthogonalLoop=1;jettySize=auto;html=1;entryX=0;entryY=0.5;entryDx=0;entryDy=0;exitX=0;exitY=0.5;exitDx=0;exitDy=0;" parent="iKwgrwwHFy8eXeqNAH09-823" source="iKwgrwwHFy8eXeqNAH09-835" target="iKwgrwwHFy8eXeqNAH09-827" edge="1">
          <mxGeometry relative="1" as="geometry">
            <mxPoint x="46" y="225" as="targetPoint" />
            <Array as="points">
              <mxPoint x="11" y="170" />
              <mxPoint x="11" y="230" />
            </Array>
          </mxGeometry>
        </mxCell>
        <mxCell id="iKwgrwwHFy8eXeqNAH09-835" value="&lt;div style=&quot;line-height: 80%;&quot;&gt;&lt;font style=&quot;font-size: 13px; line-height: 80%;&quot;&gt;PC&lt;/font&gt;&lt;div&gt;&lt;font style=&quot;font-size: 13px; line-height: 80%;&quot;&gt;Aligner&lt;/font&gt;&lt;/div&gt;&lt;/div&gt;" style="whiteSpace=wrap;html=1;shadow=1;fontSize=18;fillColor=#f5f5f5;strokeColor=#666666;fontStyle=1" parent="iKwgrwwHFy8eXeqNAH09-823" vertex="1">
          <mxGeometry x="31" y="150" width="50" height="40" as="geometry" />
        </mxCell>
        <mxCell id="iKwgrwwHFy8eXeqNAH09-836" style="edgeStyle=orthogonalEdgeStyle;rounded=0;orthogonalLoop=1;jettySize=auto;html=1;entryX=1;entryY=0.5;entryDx=0;entryDy=0;" parent="iKwgrwwHFy8eXeqNAH09-823" source="iKwgrwwHFy8eXeqNAH09-837" target="iKwgrwwHFy8eXeqNAH09-835" edge="1">
          <mxGeometry relative="1" as="geometry" />
        </mxCell>
        <mxCell id="iKwgrwwHFy8eXeqNAH09-837" value="&lt;div style=&quot;line-height: 80%;&quot;&gt;&lt;font style=&quot;font-size: 13px; line-height: 80%;&quot;&gt;PC&lt;/font&gt;&lt;div&gt;&lt;font style=&quot;font-size: 13px; line-height: 80%;&quot;&gt;Controller&lt;/font&gt;&lt;/div&gt;&lt;/div&gt;" style="whiteSpace=wrap;html=1;shadow=1;fontSize=18;fillColor=#f5f5f5;strokeColor=#666666;fontStyle=1" parent="iKwgrwwHFy8eXeqNAH09-823" vertex="1">
          <mxGeometry x="71" y="100" width="80" height="40" as="geometry" />
        </mxCell>
        <mxCell id="iKwgrwwHFy8eXeqNAH09-838" style="edgeStyle=orthogonalEdgeStyle;rounded=0;orthogonalLoop=1;jettySize=auto;html=1;entryX=0.25;entryY=1;entryDx=0;entryDy=0;" parent="iKwgrwwHFy8eXeqNAH09-823" source="iKwgrwwHFy8eXeqNAH09-839" target="iKwgrwwHFy8eXeqNAH09-866" edge="1">
          <mxGeometry relative="1" as="geometry">
            <mxPoint x="281" y="330" as="targetPoint" />
            <Array as="points">
              <mxPoint x="241" y="335" />
            </Array>
          </mxGeometry>
        </mxCell>
        <mxCell id="iKwgrwwHFy8eXeqNAH09-839" value="&lt;div style=&quot;line-height: 80%;&quot;&gt;&lt;span style=&quot;font-size: 13px;&quot;&gt;&lt;b&gt;Immediate&lt;/b&gt;&lt;/span&gt;&lt;/div&gt;&lt;div style=&quot;line-height: 80%;&quot;&gt;&lt;span style=&quot;font-size: 13px;&quot;&gt;&lt;b&gt;Generator&lt;/b&gt;&lt;/span&gt;&lt;/div&gt;" style="whiteSpace=wrap;html=1;shadow=1;fontSize=18;fillColor=#f5f5f5;strokeColor=#666666;align=center;" parent="iKwgrwwHFy8eXeqNAH09-823" vertex="1">
          <mxGeometry x="201" y="270" width="80" height="40" as="geometry" />
        </mxCell>
        <mxCell id="iKwgrwwHFy8eXeqNAH09-840" value="&lt;div style=&quot;line-height: 80%;&quot;&gt;&lt;span style=&quot;font-size: 13px;&quot;&gt;PC+4&lt;/span&gt;&lt;/div&gt;" style="whiteSpace=wrap;html=1;shadow=1;fontSize=18;fillColor=#f5f5f5;strokeColor=#666666;fontStyle=1" parent="iKwgrwwHFy8eXeqNAH09-823" vertex="1">
          <mxGeometry x="81" y="260" width="40" height="20" as="geometry" />
        </mxCell>
        <mxCell id="iKwgrwwHFy8eXeqNAH09-841" style="edgeStyle=orthogonalEdgeStyle;rounded=0;orthogonalLoop=1;jettySize=auto;html=1;entryX=1;entryY=0.5;entryDx=0;entryDy=0;" parent="iKwgrwwHFy8eXeqNAH09-823" source="iKwgrwwHFy8eXeqNAH09-843" target="iKwgrwwHFy8eXeqNAH09-837" edge="1">
          <mxGeometry relative="1" as="geometry">
            <mxPoint x="161" y="120" as="targetPoint" />
          </mxGeometry>
        </mxCell>
        <mxCell id="iKwgrwwHFy8eXeqNAH09-842" style="edgeStyle=orthogonalEdgeStyle;rounded=0;orthogonalLoop=1;jettySize=auto;html=1;entryX=0;entryY=0.5;entryDx=0;entryDy=0;" parent="iKwgrwwHFy8eXeqNAH09-823" source="iKwgrwwHFy8eXeqNAH09-843" target="iKwgrwwHFy8eXeqNAH09-850" edge="1">
          <mxGeometry relative="1" as="geometry">
            <Array as="points">
              <mxPoint x="291" y="100" />
              <mxPoint x="291" y="170" />
            </Array>
          </mxGeometry>
        </mxCell>
        <mxCell id="iKwgrwwHFy8eXeqNAH09-843" value="&lt;div style=&quot;line-height: 80%;&quot;&gt;&lt;span style=&quot;font-size: 13px;&quot;&gt;&lt;b&gt;Control&lt;/b&gt;&lt;/span&gt;&lt;/div&gt;&lt;div style=&quot;line-height: 80%;&quot;&gt;&lt;span style=&quot;font-size: 13px;&quot;&gt;&lt;b&gt;Unit&lt;/b&gt;&lt;/span&gt;&lt;/div&gt;" style="whiteSpace=wrap;html=1;shadow=1;fontSize=18;fillColor=#f5f5f5;strokeColor=#666666;align=center;" parent="iKwgrwwHFy8eXeqNAH09-823" vertex="1">
          <mxGeometry x="211" y="80" width="60" height="80" as="geometry" />
        </mxCell>
        <mxCell id="iKwgrwwHFy8eXeqNAH09-844" value="&lt;div style=&quot;line-height: 80%;&quot;&gt;&lt;span style=&quot;font-size: 13px;&quot;&gt;&lt;b&gt;Register&lt;/b&gt;&lt;/span&gt;&lt;/div&gt;&lt;div style=&quot;line-height: 80%;&quot;&gt;&lt;span style=&quot;font-size: 13px;&quot;&gt;&lt;b&gt;File&lt;/b&gt;&lt;/span&gt;&lt;/div&gt;" style="whiteSpace=wrap;html=1;shadow=1;fontSize=18;fillColor=#f5f5f5;strokeColor=#666666;align=center;" parent="iKwgrwwHFy8eXeqNAH09-823" vertex="1">
          <mxGeometry x="331" y="280" width="60" height="80" as="geometry" />
        </mxCell>
        <mxCell id="iKwgrwwHFy8eXeqNAH09-845" value="&lt;div style=&quot;line-height: 80%;&quot;&gt;&lt;span style=&quot;font-size: 13px;&quot;&gt;&lt;b&gt;ALU&lt;/b&gt;&lt;/span&gt;&lt;/div&gt;&lt;div style=&quot;line-height: 80%;&quot;&gt;&lt;span style=&quot;font-size: 13px;&quot;&gt;&lt;b&gt;Controller&lt;/b&gt;&lt;/span&gt;&lt;/div&gt;" style="whiteSpace=wrap;html=1;shadow=1;fontSize=18;fillColor=#f5f5f5;strokeColor=#666666;align=center;" parent="iKwgrwwHFy8eXeqNAH09-823" vertex="1">
          <mxGeometry x="321" y="210" width="80" height="40" as="geometry" />
        </mxCell>
        <mxCell id="iKwgrwwHFy8eXeqNAH09-846" style="edgeStyle=orthogonalEdgeStyle;rounded=0;orthogonalLoop=1;jettySize=auto;html=1;entryX=0.75;entryY=1;entryDx=0;entryDy=0;exitX=0.5;exitY=1;exitDx=0;exitDy=0;" parent="iKwgrwwHFy8eXeqNAH09-823" source="iKwgrwwHFy8eXeqNAH09-847" edge="1">
          <mxGeometry relative="1" as="geometry">
            <mxPoint x="451" y="290" as="sourcePoint" />
            <mxPoint x="281" y="355" as="targetPoint" />
            <Array as="points">
              <mxPoint x="541" y="420" />
              <mxPoint x="251" y="420" />
              <mxPoint x="251" y="355" />
            </Array>
          </mxGeometry>
        </mxCell>
        <mxCell id="iKwgrwwHFy8eXeqNAH09-847" value="&lt;div style=&quot;line-height: 80%;&quot;&gt;&lt;span style=&quot;font-size: 13px;&quot;&gt;&lt;b&gt;ALU&lt;/b&gt;&lt;/span&gt;&lt;/div&gt;" style="whiteSpace=wrap;html=1;shadow=1;fontSize=18;fillColor=#f5f5f5;strokeColor=#666666;align=center;" parent="iKwgrwwHFy8eXeqNAH09-823" vertex="1">
          <mxGeometry x="511" y="200" width="60" height="100" as="geometry" />
        </mxCell>
        <mxCell id="iKwgrwwHFy8eXeqNAH09-848" style="edgeStyle=orthogonalEdgeStyle;rounded=0;orthogonalLoop=1;jettySize=auto;html=1;entryX=0.5;entryY=0;entryDx=0;entryDy=0;" parent="iKwgrwwHFy8eXeqNAH09-823" source="iKwgrwwHFy8eXeqNAH09-849" target="iKwgrwwHFy8eXeqNAH09-850" edge="1">
          <mxGeometry relative="1" as="geometry" />
        </mxCell>
        <mxCell id="iKwgrwwHFy8eXeqNAH09-849" value="&lt;div style=&quot;line-height: 80%;&quot;&gt;&lt;span style=&quot;font-size: 13px;&quot;&gt;&lt;b&gt;Data&lt;br&gt;Memory&lt;/b&gt;&lt;/span&gt;&lt;/div&gt;" style="whiteSpace=wrap;html=1;shadow=1;fontSize=18;fillColor=#f5f5f5;strokeColor=#666666;align=center;" parent="iKwgrwwHFy8eXeqNAH09-823" vertex="1">
          <mxGeometry x="311" y="80" width="80" height="40" as="geometry" />
        </mxCell>
        <mxCell id="iKwgrwwHFy8eXeqNAH09-850" value="&lt;div style=&quot;line-height: 80%;&quot;&gt;&lt;span style=&quot;font-size: 13px;&quot;&gt;&lt;b&gt;Byte Enable&lt;br&gt;Logic&lt;/b&gt;&lt;/span&gt;&lt;/div&gt;" style="whiteSpace=wrap;html=1;shadow=1;fontSize=18;fillColor=#f5f5f5;strokeColor=#666666;align=center;" parent="iKwgrwwHFy8eXeqNAH09-823" vertex="1">
          <mxGeometry x="311" y="150" width="80" height="40" as="geometry" />
        </mxCell>
        <mxCell id="iKwgrwwHFy8eXeqNAH09-851" style="edgeStyle=orthogonalEdgeStyle;rounded=0;orthogonalLoop=1;jettySize=auto;html=1;entryX=0.75;entryY=0;entryDx=0;entryDy=0;" parent="iKwgrwwHFy8eXeqNAH09-823" source="iKwgrwwHFy8eXeqNAH09-852" target="iKwgrwwHFy8eXeqNAH09-837" edge="1">
          <mxGeometry relative="1" as="geometry">
            <Array as="points">
              <mxPoint x="451" y="70" />
              <mxPoint x="131" y="70" />
            </Array>
          </mxGeometry>
        </mxCell>
        <mxCell id="iKwgrwwHFy8eXeqNAH09-852" value="&lt;div style=&quot;line-height: 80%;&quot;&gt;&lt;span style=&quot;font-size: 13px;&quot;&gt;&lt;b&gt;Branch&lt;/b&gt;&lt;/span&gt;&lt;/div&gt;&lt;div style=&quot;line-height: 80%;&quot;&gt;&lt;span style=&quot;font-size: 13px;&quot;&gt;&lt;b&gt;Logic&lt;/b&gt;&lt;/span&gt;&lt;/div&gt;" style="whiteSpace=wrap;html=1;shadow=1;fontSize=18;fillColor=#f5f5f5;strokeColor=#666666;align=center;" parent="iKwgrwwHFy8eXeqNAH09-823" vertex="1">
          <mxGeometry x="421" y="100" width="60" height="50" as="geometry" />
        </mxCell>
        <mxCell id="iKwgrwwHFy8eXeqNAH09-853" style="edgeStyle=orthogonalEdgeStyle;rounded=0;orthogonalLoop=1;jettySize=auto;html=1;entryX=0.5;entryY=0;entryDx=0;entryDy=0;" parent="iKwgrwwHFy8eXeqNAH09-823" source="iKwgrwwHFy8eXeqNAH09-878" target="iKwgrwwHFy8eXeqNAH09-840" edge="1">
          <mxGeometry relative="1" as="geometry">
            <Array as="points" />
          </mxGeometry>
        </mxCell>
        <mxCell id="iKwgrwwHFy8eXeqNAH09-854" value="" style="shape=waypoint;sketch=0;size=6;pointerEvents=1;points=[];fillColor=none;resizable=0;rotatable=0;perimeter=centerPerimeter;snapToPoint=1;" parent="iKwgrwwHFy8eXeqNAH09-823" vertex="1">
          <mxGeometry x="1" y="220" width="20" height="20" as="geometry" />
        </mxCell>
        <mxCell id="iKwgrwwHFy8eXeqNAH09-855" value="" style="shape=waypoint;sketch=0;size=6;pointerEvents=1;points=[];fillColor=none;resizable=0;rotatable=0;perimeter=centerPerimeter;snapToPoint=1;" parent="iKwgrwwHFy8eXeqNAH09-823" vertex="1">
          <mxGeometry x="291" y="220" width="20" height="20" as="geometry" />
        </mxCell>
        <mxCell id="iKwgrwwHFy8eXeqNAH09-856" style="edgeStyle=orthogonalEdgeStyle;rounded=0;orthogonalLoop=1;jettySize=auto;html=1;entryX=0;entryY=0.5;entryDx=0;entryDy=0;" parent="iKwgrwwHFy8eXeqNAH09-823" source="iKwgrwwHFy8eXeqNAH09-857" target="iKwgrwwHFy8eXeqNAH09-849" edge="1">
          <mxGeometry relative="1" as="geometry">
            <Array as="points">
              <mxPoint x="291" y="100" />
            </Array>
          </mxGeometry>
        </mxCell>
        <mxCell id="iKwgrwwHFy8eXeqNAH09-857" value="" style="shape=waypoint;sketch=0;size=6;pointerEvents=1;points=[];fillColor=none;resizable=0;rotatable=0;perimeter=centerPerimeter;snapToPoint=1;" parent="iKwgrwwHFy8eXeqNAH09-823" vertex="1">
          <mxGeometry x="281" y="90" width="20" height="20" as="geometry" />
        </mxCell>
        <mxCell id="iKwgrwwHFy8eXeqNAH09-858" style="edgeStyle=orthogonalEdgeStyle;rounded=0;orthogonalLoop=1;jettySize=auto;html=1;entryX=0.5;entryY=0;entryDx=0;entryDy=0;" parent="iKwgrwwHFy8eXeqNAH09-823" source="iKwgrwwHFy8eXeqNAH09-859" target="iKwgrwwHFy8eXeqNAH09-837" edge="1">
          <mxGeometry relative="1" as="geometry">
            <mxPoint x="121" y="100" as="targetPoint" />
            <Array as="points">
              <mxPoint x="541" y="60" />
              <mxPoint x="111" y="60" />
            </Array>
          </mxGeometry>
        </mxCell>
        <mxCell id="iKwgrwwHFy8eXeqNAH09-859" value="" style="shape=waypoint;sketch=0;size=6;pointerEvents=1;points=[];fillColor=none;resizable=0;rotatable=0;perimeter=centerPerimeter;snapToPoint=1;" parent="iKwgrwwHFy8eXeqNAH09-823" vertex="1">
          <mxGeometry x="531" y="80" width="20" height="20" as="geometry" />
        </mxCell>
        <mxCell id="iKwgrwwHFy8eXeqNAH09-860" value="" style="shape=waypoint;sketch=0;size=6;pointerEvents=1;points=[];fillColor=none;resizable=0;rotatable=0;perimeter=centerPerimeter;snapToPoint=1;" parent="iKwgrwwHFy8eXeqNAH09-823" vertex="1">
          <mxGeometry x="281" y="125" width="20" height="20" as="geometry" />
        </mxCell>
        <mxCell id="iKwgrwwHFy8eXeqNAH09-861" style="edgeStyle=orthogonalEdgeStyle;rounded=0;orthogonalLoop=1;jettySize=auto;html=1;entryX=0;entryY=0.5;entryDx=0;entryDy=0;jumpStyle=arc;" parent="iKwgrwwHFy8eXeqNAH09-823" source="iKwgrwwHFy8eXeqNAH09-860" target="iKwgrwwHFy8eXeqNAH09-852" edge="1">
          <mxGeometry relative="1" as="geometry" />
        </mxCell>
        <mxCell id="iKwgrwwHFy8eXeqNAH09-862" style="edgeStyle=orthogonalEdgeStyle;rounded=0;orthogonalLoop=1;jettySize=auto;html=1;entryX=1;entryY=0.25;entryDx=0;entryDy=0;" parent="iKwgrwwHFy8eXeqNAH09-823" source="iKwgrwwHFy8eXeqNAH09-874" target="iKwgrwwHFy8eXeqNAH09-850" edge="1">
          <mxGeometry relative="1" as="geometry">
            <Array as="points" />
          </mxGeometry>
        </mxCell>
        <mxCell id="iKwgrwwHFy8eXeqNAH09-863" value="" style="shape=waypoint;sketch=0;size=6;pointerEvents=1;points=[];fillColor=none;resizable=0;rotatable=0;perimeter=centerPerimeter;snapToPoint=1;" parent="iKwgrwwHFy8eXeqNAH09-823" vertex="1">
          <mxGeometry x="531" y="115" width="20" height="20" as="geometry" />
        </mxCell>
        <mxCell id="iKwgrwwHFy8eXeqNAH09-864" style="edgeStyle=orthogonalEdgeStyle;rounded=0;orthogonalLoop=1;jettySize=auto;html=1;entryX=1;entryY=0.5;entryDx=0;entryDy=0;jumpStyle=arc;" parent="iKwgrwwHFy8eXeqNAH09-823" source="iKwgrwwHFy8eXeqNAH09-863" target="iKwgrwwHFy8eXeqNAH09-849" edge="1">
          <mxGeometry relative="1" as="geometry">
            <Array as="points">
              <mxPoint x="541" y="90" />
              <mxPoint x="411" y="90" />
              <mxPoint x="411" y="100" />
            </Array>
          </mxGeometry>
        </mxCell>
        <mxCell id="iKwgrwwHFy8eXeqNAH09-865" value="" style="group" parent="iKwgrwwHFy8eXeqNAH09-823" vertex="1" connectable="0">
          <mxGeometry x="281" y="320" width="50" height="60" as="geometry" />
        </mxCell>
        <mxCell id="iKwgrwwHFy8eXeqNAH09-866" value="" style="shape=trapezoid;perimeter=trapezoidPerimeter;whiteSpace=wrap;html=1;fixedSize=1;shadow=1;strokeColor=#666666;align=center;verticalAlign=middle;fontFamily=Helvetica;fontSize=18;fillColor=#f5f5f5;rotation=90;container=0;fontColor=#000000;" parent="iKwgrwwHFy8eXeqNAH09-865" vertex="1">
          <mxGeometry x="-20" y="20" width="60" height="20" as="geometry" />
        </mxCell>
        <mxCell id="iKwgrwwHFy8eXeqNAH09-867" value="&lt;div style=&quot;line-height: 90%;&quot;&gt;&lt;font style=&quot;font-size: 10px;&quot;&gt;&lt;b&gt;Reg&lt;/b&gt;&lt;/font&gt;&lt;div&gt;&lt;font style=&quot;font-size: 10px;&quot;&gt;&lt;b&gt;Src&lt;/b&gt;&lt;/font&gt;&lt;/div&gt;&lt;/div&gt;" style="text;html=1;align=center;verticalAlign=middle;whiteSpace=wrap;rounded=0;" parent="iKwgrwwHFy8eXeqNAH09-865" vertex="1">
          <mxGeometry x="-20" y="15" width="60" height="30" as="geometry" />
        </mxCell>
        <mxCell id="iKwgrwwHFy8eXeqNAH09-868" style="edgeStyle=orthogonalEdgeStyle;rounded=0;orthogonalLoop=1;jettySize=auto;html=1;entryX=0;entryY=0.5;entryDx=0;entryDy=0;" parent="iKwgrwwHFy8eXeqNAH09-823" source="iKwgrwwHFy8eXeqNAH09-869" target="iKwgrwwHFy8eXeqNAH09-866" edge="1">
          <mxGeometry relative="1" as="geometry" />
        </mxCell>
        <mxCell id="iKwgrwwHFy8eXeqNAH09-869" value="" style="shape=waypoint;sketch=0;size=6;pointerEvents=1;points=[];fillColor=none;resizable=0;rotatable=0;perimeter=centerPerimeter;snapToPoint=1;" parent="iKwgrwwHFy8eXeqNAH09-823" vertex="1">
          <mxGeometry x="281" y="160" width="20" height="20" as="geometry" />
        </mxCell>
        <mxCell id="iKwgrwwHFy8eXeqNAH09-870" style="edgeStyle=orthogonalEdgeStyle;rounded=0;orthogonalLoop=1;jettySize=auto;html=1;entryX=0;entryY=0.5;entryDx=0;entryDy=0;jumpStyle=arc;" parent="iKwgrwwHFy8eXeqNAH09-823" source="iKwgrwwHFy8eXeqNAH09-833" target="iKwgrwwHFy8eXeqNAH09-845" edge="1">
          <mxGeometry relative="1" as="geometry">
            <Array as="points">
              <mxPoint x="311" y="230" />
              <mxPoint x="311" y="230" />
            </Array>
          </mxGeometry>
        </mxCell>
        <mxCell id="iKwgrwwHFy8eXeqNAH09-871" value="" style="endArrow=classic;html=1;rounded=0;exitX=0.5;exitY=0;exitDx=0;exitDy=0;entryX=0;entryY=0.75;entryDx=0;entryDy=0;edgeStyle=orthogonalEdgeStyle;" parent="iKwgrwwHFy8eXeqNAH09-823" source="iKwgrwwHFy8eXeqNAH09-866" target="iKwgrwwHFy8eXeqNAH09-844" edge="1">
          <mxGeometry width="50" height="50" relative="1" as="geometry">
            <mxPoint x="311" y="370" as="sourcePoint" />
            <mxPoint x="361" y="320" as="targetPoint" />
            <Array as="points">
              <mxPoint x="311" y="350" />
              <mxPoint x="311" y="340" />
            </Array>
          </mxGeometry>
        </mxCell>
        <mxCell id="iKwgrwwHFy8eXeqNAH09-872" style="edgeStyle=orthogonalEdgeStyle;rounded=0;orthogonalLoop=1;jettySize=auto;html=1;entryX=1;entryY=0.5;entryDx=0;entryDy=0;jumpStyle=arc;exitX=0.5;exitY=0;exitDx=0;exitDy=0;" parent="iKwgrwwHFy8eXeqNAH09-823" source="iKwgrwwHFy8eXeqNAH09-847" target="iKwgrwwHFy8eXeqNAH09-852" edge="1">
          <mxGeometry relative="1" as="geometry">
            <Array as="points">
              <mxPoint x="541" y="125" />
            </Array>
          </mxGeometry>
        </mxCell>
        <mxCell id="iKwgrwwHFy8eXeqNAH09-873" style="edgeStyle=orthogonalEdgeStyle;rounded=0;orthogonalLoop=1;jettySize=auto;html=1;entryX=0.75;entryY=1;entryDx=0;entryDy=0;exitX=1;exitY=0.5;exitDx=0;exitDy=0;jumpStyle=arc;" parent="iKwgrwwHFy8eXeqNAH09-823" source="iKwgrwwHFy8eXeqNAH09-850" target="iKwgrwwHFy8eXeqNAH09-866" edge="1">
          <mxGeometry relative="1" as="geometry">
            <Array as="points">
              <mxPoint x="421" y="170" />
              <mxPoint x="421" y="410" />
              <mxPoint x="261" y="410" />
              <mxPoint x="261" y="365" />
            </Array>
          </mxGeometry>
        </mxCell>
        <mxCell id="iKwgrwwHFy8eXeqNAH09-874" value="" style="shape=waypoint;sketch=0;size=6;pointerEvents=1;points=[];fillColor=none;resizable=0;rotatable=0;perimeter=centerPerimeter;snapToPoint=1;" parent="iKwgrwwHFy8eXeqNAH09-823" vertex="1">
          <mxGeometry x="531" y="150" width="20" height="20" as="geometry" />
        </mxCell>
        <mxCell id="iKwgrwwHFy8eXeqNAH09-875" value="" style="group" parent="iKwgrwwHFy8eXeqNAH09-823" vertex="1" connectable="0">
          <mxGeometry x="441" y="250" width="50" height="60" as="geometry" />
        </mxCell>
        <mxCell id="iKwgrwwHFy8eXeqNAH09-876" value="" style="shape=trapezoid;perimeter=trapezoidPerimeter;whiteSpace=wrap;html=1;fixedSize=1;shadow=1;strokeColor=#666666;align=center;verticalAlign=middle;fontFamily=Helvetica;fontSize=18;fillColor=#f5f5f5;rotation=90;container=0;fontColor=#000000;" parent="iKwgrwwHFy8eXeqNAH09-875" vertex="1">
          <mxGeometry x="-20" y="20" width="60" height="20" as="geometry" />
        </mxCell>
        <mxCell id="iKwgrwwHFy8eXeqNAH09-877" value="&lt;div style=&quot;line-height: 90%;&quot;&gt;&lt;b style=&quot;font-size: 10px; background-color: transparent; color: light-dark(rgb(0, 0, 0), rgb(255, 255, 255));&quot;&gt;src&lt;/b&gt;&lt;/div&gt;&lt;div style=&quot;line-height: 90%;&quot;&gt;&lt;span style=&quot;font-size: 10px;&quot;&gt;&lt;b&gt;A&lt;/b&gt;&lt;/span&gt;&lt;/div&gt;" style="text;html=1;align=center;verticalAlign=middle;whiteSpace=wrap;rounded=0;" parent="iKwgrwwHFy8eXeqNAH09-875" vertex="1">
          <mxGeometry y="15" width="20" height="30" as="geometry" />
        </mxCell>
        <mxCell id="iKwgrwwHFy8eXeqNAH09-878" value="" style="shape=waypoint;sketch=0;size=6;pointerEvents=1;points=[];fillColor=none;resizable=0;rotatable=0;perimeter=centerPerimeter;snapToPoint=1;" parent="iKwgrwwHFy8eXeqNAH09-823" vertex="1">
          <mxGeometry x="91" y="220" width="20" height="20" as="geometry" />
        </mxCell>
        <mxCell id="iKwgrwwHFy8eXeqNAH09-879" value="" style="group" parent="iKwgrwwHFy8eXeqNAH09-823" vertex="1" connectable="0">
          <mxGeometry x="461" y="320" width="50" height="60" as="geometry" />
        </mxCell>
        <mxCell id="iKwgrwwHFy8eXeqNAH09-880" value="" style="shape=trapezoid;perimeter=trapezoidPerimeter;whiteSpace=wrap;html=1;fixedSize=1;shadow=1;strokeColor=#666666;align=center;verticalAlign=middle;fontFamily=Helvetica;fontSize=18;fillColor=#f5f5f5;rotation=90;container=0;fontColor=#000000;" parent="iKwgrwwHFy8eXeqNAH09-879" vertex="1">
          <mxGeometry x="-20" y="20" width="60" height="20" as="geometry" />
        </mxCell>
        <mxCell id="iKwgrwwHFy8eXeqNAH09-881" value="&lt;div style=&quot;line-height: 90%;&quot;&gt;&lt;b style=&quot;font-size: 10px; background-color: transparent; color: light-dark(rgb(0, 0, 0), rgb(255, 255, 255));&quot;&gt;src&lt;/b&gt;&lt;/div&gt;&lt;div style=&quot;line-height: 90%;&quot;&gt;&lt;span style=&quot;font-size: 10px;&quot;&gt;&lt;b&gt;B&lt;/b&gt;&lt;/span&gt;&lt;/div&gt;" style="text;html=1;align=center;verticalAlign=middle;whiteSpace=wrap;rounded=0;" parent="iKwgrwwHFy8eXeqNAH09-879" vertex="1">
          <mxGeometry y="15" width="20" height="30" as="geometry" />
        </mxCell>
        <mxCell id="iKwgrwwHFy8eXeqNAH09-882" style="edgeStyle=orthogonalEdgeStyle;rounded=0;orthogonalLoop=1;jettySize=auto;html=1;entryX=0;entryY=0.5;entryDx=0;entryDy=0;jumpStyle=arc;" parent="iKwgrwwHFy8eXeqNAH09-823" source="iKwgrwwHFy8eXeqNAH09-883" target="iKwgrwwHFy8eXeqNAH09-876" edge="1">
          <mxGeometry relative="1" as="geometry" />
        </mxCell>
        <mxCell id="iKwgrwwHFy8eXeqNAH09-883" value="" style="shape=waypoint;sketch=0;size=6;pointerEvents=1;points=[];fillColor=none;resizable=0;rotatable=0;perimeter=centerPerimeter;snapToPoint=1;" parent="iKwgrwwHFy8eXeqNAH09-823" vertex="1">
          <mxGeometry x="281" y="190" width="20" height="20" as="geometry" />
        </mxCell>
        <mxCell id="iKwgrwwHFy8eXeqNAH09-884" style="edgeStyle=orthogonalEdgeStyle;rounded=0;orthogonalLoop=1;jettySize=auto;html=1;entryX=0;entryY=0.5;entryDx=0;entryDy=0;" parent="iKwgrwwHFy8eXeqNAH09-823" source="iKwgrwwHFy8eXeqNAH09-885" target="iKwgrwwHFy8eXeqNAH09-880" edge="1">
          <mxGeometry relative="1" as="geometry">
            <Array as="points">
              <mxPoint x="471" y="200" />
            </Array>
          </mxGeometry>
        </mxCell>
        <mxCell id="iKwgrwwHFy8eXeqNAH09-885" value="" style="shape=waypoint;sketch=0;size=6;pointerEvents=1;points=[];fillColor=none;resizable=0;rotatable=0;perimeter=centerPerimeter;snapToPoint=1;" parent="iKwgrwwHFy8eXeqNAH09-823" vertex="1">
          <mxGeometry x="441" y="190" width="20" height="20" as="geometry" />
        </mxCell>
        <mxCell id="iKwgrwwHFy8eXeqNAH09-886" style="edgeStyle=orthogonalEdgeStyle;rounded=0;orthogonalLoop=1;jettySize=auto;html=1;entryX=0;entryY=0.8;entryDx=0;entryDy=0;entryPerimeter=0;jumpStyle=arc;" parent="iKwgrwwHFy8eXeqNAH09-823" source="iKwgrwwHFy8eXeqNAH09-876" target="iKwgrwwHFy8eXeqNAH09-847" edge="1">
          <mxGeometry relative="1" as="geometry">
            <mxPoint x="491" y="280" as="targetPoint" />
          </mxGeometry>
        </mxCell>
        <mxCell id="iKwgrwwHFy8eXeqNAH09-887" value="" style="endArrow=classic;html=1;rounded=0;entryX=0;entryY=0.25;entryDx=0;entryDy=0;jumpStyle=arc;" parent="iKwgrwwHFy8eXeqNAH09-823" target="iKwgrwwHFy8eXeqNAH09-847" edge="1">
          <mxGeometry width="50" height="50" relative="1" as="geometry">
            <mxPoint x="401" y="225" as="sourcePoint" />
            <mxPoint x="421" y="225" as="targetPoint" />
          </mxGeometry>
        </mxCell>
        <mxCell id="iKwgrwwHFy8eXeqNAH09-888" style="edgeStyle=orthogonalEdgeStyle;rounded=0;orthogonalLoop=1;jettySize=auto;html=1;entryX=0.25;entryY=1;entryDx=0;entryDy=0;jumpStyle=arc;exitX=0.5;exitY=0;exitDx=0;exitDy=0;" parent="iKwgrwwHFy8eXeqNAH09-823" source="iKwgrwwHFy8eXeqNAH09-844" target="iKwgrwwHFy8eXeqNAH09-876" edge="1">
          <mxGeometry relative="1" as="geometry">
            <Array as="points">
              <mxPoint x="361" y="265" />
            </Array>
          </mxGeometry>
        </mxCell>
        <mxCell id="iKwgrwwHFy8eXeqNAH09-889" style="edgeStyle=orthogonalEdgeStyle;rounded=0;orthogonalLoop=1;jettySize=auto;html=1;entryX=0.75;entryY=1;entryDx=0;entryDy=0;" parent="iKwgrwwHFy8eXeqNAH09-823" source="iKwgrwwHFy8eXeqNAH09-890" target="iKwgrwwHFy8eXeqNAH09-880" edge="1">
          <mxGeometry relative="1" as="geometry">
            <Array as="points">
              <mxPoint x="241" y="430" />
              <mxPoint x="431" y="430" />
              <mxPoint x="431" y="365" />
            </Array>
          </mxGeometry>
        </mxCell>
        <mxCell id="iKwgrwwHFy8eXeqNAH09-890" value="" style="shape=waypoint;sketch=0;size=6;pointerEvents=1;points=[];fillColor=none;resizable=0;rotatable=0;perimeter=centerPerimeter;snapToPoint=1;" parent="iKwgrwwHFy8eXeqNAH09-823" vertex="1">
          <mxGeometry x="231" y="325" width="20" height="20" as="geometry" />
        </mxCell>
        <mxCell id="iKwgrwwHFy8eXeqNAH09-891" style="edgeStyle=orthogonalEdgeStyle;rounded=0;orthogonalLoop=1;jettySize=auto;html=1;entryX=0.25;entryY=1;entryDx=0;entryDy=0;" parent="iKwgrwwHFy8eXeqNAH09-823" source="iKwgrwwHFy8eXeqNAH09-881" target="iKwgrwwHFy8eXeqNAH09-847" edge="1">
          <mxGeometry relative="1" as="geometry" />
        </mxCell>
        <mxCell id="iKwgrwwHFy8eXeqNAH09-892" style="edgeStyle=orthogonalEdgeStyle;rounded=0;orthogonalLoop=1;jettySize=auto;html=1;entryX=0.25;entryY=1;entryDx=0;entryDy=0;exitX=0.5;exitY=1;exitDx=0;exitDy=0;jumpStyle=arc;" parent="iKwgrwwHFy8eXeqNAH09-823" source="iKwgrwwHFy8eXeqNAH09-840" edge="1">
          <mxGeometry relative="1" as="geometry">
            <mxPoint x="101" y="280" as="sourcePoint" />
            <mxPoint x="281" y="345" as="targetPoint" />
            <Array as="points">
              <mxPoint x="101" y="345" />
            </Array>
          </mxGeometry>
        </mxCell>
        <mxCell id="iKwgrwwHFy8eXeqNAH09-893" style="edgeStyle=orthogonalEdgeStyle;rounded=0;orthogonalLoop=1;jettySize=auto;html=1;entryX=0.75;entryY=1;entryDx=0;entryDy=0;jumpStyle=arc;" parent="iKwgrwwHFy8eXeqNAH09-823" source="iKwgrwwHFy8eXeqNAH09-854" target="iKwgrwwHFy8eXeqNAH09-876" edge="1">
          <mxGeometry relative="1" as="geometry">
            <Array as="points">
              <mxPoint x="11" y="390" />
              <mxPoint x="411" y="390" />
              <mxPoint x="411" y="295" />
            </Array>
          </mxGeometry>
        </mxCell>
        <mxCell id="iKwgrwwHFy8eXeqNAH09-894" style="edgeStyle=orthogonalEdgeStyle;rounded=0;orthogonalLoop=1;jettySize=auto;html=1;entryX=0.25;entryY=1;entryDx=0;entryDy=0;jumpStyle=arc;" parent="iKwgrwwHFy8eXeqNAH09-823" source="iKwgrwwHFy8eXeqNAH09-844" target="iKwgrwwHFy8eXeqNAH09-880" edge="1">
          <mxGeometry relative="1" as="geometry">
            <Array as="points">
              <mxPoint x="401" y="320" />
              <mxPoint x="401" y="335" />
            </Array>
          </mxGeometry>
        </mxCell>
        <mxCell id="iKwgrwwHFy8eXeqNAH09-895" value="&lt;font style=&quot;font-size: 24px;&quot;&gt;&lt;b&gt;[RV32I37F] &lt;br&gt;37F Architecture&lt;/b&gt;&lt;/font&gt;" style="text;html=1;align=left;verticalAlign=middle;whiteSpace=wrap;rounded=0;" parent="iKwgrwwHFy8eXeqNAH09-823" vertex="1">
          <mxGeometry x="1" width="320" height="60" as="geometry" />
        </mxCell>
        <mxCell id="iKwgrwwHFy8eXeqNAH09-1136" value="" style="group" parent="1" vertex="1" connectable="0">
          <mxGeometry x="1165.5" y="4" width="580" height="460" as="geometry" />
        </mxCell>
        <mxCell id="iKwgrwwHFy8eXeqNAH09-1137" value="" style="whiteSpace=wrap;html=1;shadow=1;fontSize=18;fillColor=#f5f5f5;strokeColor=#666666;" parent="iKwgrwwHFy8eXeqNAH09-1136" vertex="1">
          <mxGeometry width="580" height="460" as="geometry" />
        </mxCell>
        <mxCell id="iKwgrwwHFy8eXeqNAH09-1242" style="edgeStyle=orthogonalEdgeStyle;rounded=0;orthogonalLoop=1;jettySize=auto;html=1;entryX=0.5;entryY=1;entryDx=0;entryDy=0;exitX=1;exitY=0.75;exitDx=0;exitDy=0;endArrow=none;endFill=0;" parent="iKwgrwwHFy8eXeqNAH09-1136" target="iKwgrwwHFy8eXeqNAH09-1245" edge="1">
          <mxGeometry relative="1" as="geometry">
            <mxPoint x="176.5" y="370" as="sourcePoint" />
            <mxPoint x="353.49999999999955" y="320" as="targetPoint" />
            <Array as="points">
              <mxPoint x="197" y="370" />
              <mxPoint x="197" y="445" />
              <mxPoint x="317" y="445" />
            </Array>
          </mxGeometry>
        </mxCell>
        <mxCell id="iKwgrwwHFy8eXeqNAH09-1230" style="edgeStyle=orthogonalEdgeStyle;rounded=0;orthogonalLoop=1;jettySize=auto;html=1;entryX=0.5;entryY=0;entryDx=0;entryDy=0;" parent="iKwgrwwHFy8eXeqNAH09-1136" source="iKwgrwwHFy8eXeqNAH09-1218" target="iKwgrwwHFy8eXeqNAH09-1219" edge="1">
          <mxGeometry relative="1" as="geometry" />
        </mxCell>
        <mxCell id="iKwgrwwHFy8eXeqNAH09-1139" value="" style="shape=trapezoid;perimeter=trapezoidPerimeter;whiteSpace=wrap;html=1;fixedSize=1;shadow=1;strokeColor=#666666;align=center;verticalAlign=middle;fontFamily=Helvetica;fontSize=18;fillColor=#f5f5f5;rotation=90;container=0;fontColor=#000000;" parent="iKwgrwwHFy8eXeqNAH09-1136" vertex="1">
          <mxGeometry x="242" y="355" width="80" height="20" as="geometry" />
        </mxCell>
        <mxCell id="iKwgrwwHFy8eXeqNAH09-1141" style="edgeStyle=orthogonalEdgeStyle;rounded=0;orthogonalLoop=1;jettySize=auto;html=1;entryX=0.75;entryY=1;entryDx=0;entryDy=0;jumpStyle=arc;" parent="iKwgrwwHFy8eXeqNAH09-1136" source="iKwgrwwHFy8eXeqNAH09-1209" target="iKwgrwwHFy8eXeqNAH09-1247" edge="1">
          <mxGeometry relative="1" as="geometry">
            <Array as="points">
              <mxPoint x="307" y="440" />
              <mxPoint x="307" y="377" />
            </Array>
          </mxGeometry>
        </mxCell>
        <mxCell id="iKwgrwwHFy8eXeqNAH09-1142" style="edgeStyle=orthogonalEdgeStyle;rounded=0;orthogonalLoop=1;jettySize=auto;html=1;entryX=0.25;entryY=1;entryDx=0;entryDy=0;exitX=0.5;exitY=0;exitDx=0;exitDy=0;" parent="iKwgrwwHFy8eXeqNAH09-1136" source="iKwgrwwHFy8eXeqNAH09-1254" target="iKwgrwwHFy8eXeqNAH09-1205" edge="1">
          <mxGeometry relative="1" as="geometry">
            <Array as="points">
              <mxPoint x="350" y="390" />
              <mxPoint x="350" y="405" />
              <mxPoint x="369" y="405" />
            </Array>
            <mxPoint x="347" y="395" as="sourcePoint" />
            <mxPoint x="371.5" y="395" as="targetPoint" />
          </mxGeometry>
        </mxCell>
        <mxCell id="iKwgrwwHFy8eXeqNAH09-1145" value="&lt;div style=&quot;line-height: 80%;&quot;&gt;&lt;span style=&quot;font-size: 13px;&quot;&gt;PC&lt;/span&gt;&lt;/div&gt;" style="whiteSpace=wrap;html=1;shadow=1;fontSize=18;fillColor=#f5f5f5;strokeColor=#666666;fontStyle=1" parent="iKwgrwwHFy8eXeqNAH09-1136" vertex="1">
          <mxGeometry x="31" y="200" width="40" height="40" as="geometry" />
        </mxCell>
        <mxCell id="iKwgrwwHFy8eXeqNAH09-1147" value="&lt;div style=&quot;line-height: 80%;&quot;&gt;&lt;span style=&quot;font-size: 13px;&quot;&gt;&lt;b&gt;I.MEM&lt;/b&gt;&lt;/span&gt;&lt;/div&gt;" style="whiteSpace=wrap;html=1;shadow=1;fontSize=18;fillColor=#f5f5f5;strokeColor=#666666;align=center;" parent="iKwgrwwHFy8eXeqNAH09-1136" vertex="1">
          <mxGeometry x="111" y="210" width="40" height="20" as="geometry" />
        </mxCell>
        <mxCell id="iKwgrwwHFy8eXeqNAH09-1148" style="edgeStyle=orthogonalEdgeStyle;rounded=0;orthogonalLoop=1;jettySize=auto;html=1;entryX=0.5;entryY=1;entryDx=0;entryDy=0;" parent="iKwgrwwHFy8eXeqNAH09-1136" source="iKwgrwwHFy8eXeqNAH09-1151" target="iKwgrwwHFy8eXeqNAH09-1161" edge="1">
          <mxGeometry relative="1" as="geometry" />
        </mxCell>
        <mxCell id="iKwgrwwHFy8eXeqNAH09-1149" style="edgeStyle=orthogonalEdgeStyle;rounded=0;orthogonalLoop=1;jettySize=auto;html=1;entryX=0;entryY=0.25;entryDx=0;entryDy=0;" parent="iKwgrwwHFy8eXeqNAH09-1136" source="iKwgrwwHFy8eXeqNAH09-1173" target="iKwgrwwHFy8eXeqNAH09-1162" edge="1">
          <mxGeometry relative="1" as="geometry">
            <Array as="points">
              <mxPoint x="301" y="270" />
            </Array>
          </mxGeometry>
        </mxCell>
        <mxCell id="iKwgrwwHFy8eXeqNAH09-1150" style="edgeStyle=orthogonalEdgeStyle;rounded=0;orthogonalLoop=1;jettySize=auto;html=1;entryX=0.5;entryY=0;entryDx=0;entryDy=0;" parent="iKwgrwwHFy8eXeqNAH09-1136" source="iKwgrwwHFy8eXeqNAH09-1151" target="iKwgrwwHFy8eXeqNAH09-1157" edge="1">
          <mxGeometry relative="1" as="geometry" />
        </mxCell>
        <mxCell id="iKwgrwwHFy8eXeqNAH09-1151" value="&lt;div style=&quot;line-height: 80%;&quot;&gt;&lt;b style=&quot;font-size: 13px; background-color: transparent; color: light-dark(rgb(0, 0, 0), rgb(255, 255, 255));&quot;&gt;Decoder&lt;/b&gt;&lt;/div&gt;" style="whiteSpace=wrap;html=1;shadow=1;fontSize=18;fillColor=#f5f5f5;strokeColor=#666666;align=center;" parent="iKwgrwwHFy8eXeqNAH09-1136" vertex="1">
          <mxGeometry x="211" y="210" width="60" height="40" as="geometry" />
        </mxCell>
        <mxCell id="iKwgrwwHFy8eXeqNAH09-1154" style="edgeStyle=orthogonalEdgeStyle;rounded=0;orthogonalLoop=1;jettySize=auto;html=1;endArrow=none;endFill=0;" parent="iKwgrwwHFy8eXeqNAH09-1136" source="iKwgrwwHFy8eXeqNAH09-1155" target="iKwgrwwHFy8eXeqNAH09-1172" edge="1">
          <mxGeometry relative="1" as="geometry">
            <mxPoint x="81" y="170" as="targetPoint" />
          </mxGeometry>
        </mxCell>
        <mxCell id="iKwgrwwHFy8eXeqNAH09-1155" value="&lt;div style=&quot;line-height: 80%;&quot;&gt;&lt;font style=&quot;font-size: 13px; line-height: 80%;&quot;&gt;PC&lt;/font&gt;&lt;div&gt;&lt;font style=&quot;font-size: 13px; line-height: 80%;&quot;&gt;Controller&lt;/font&gt;&lt;/div&gt;&lt;/div&gt;" style="whiteSpace=wrap;html=1;shadow=1;fontSize=18;fillColor=#f5f5f5;strokeColor=#666666;fontStyle=1" parent="iKwgrwwHFy8eXeqNAH09-1136" vertex="1">
          <mxGeometry x="71" y="100" width="80" height="40" as="geometry" />
        </mxCell>
        <mxCell id="iKwgrwwHFy8eXeqNAH09-1156" style="edgeStyle=orthogonalEdgeStyle;rounded=0;orthogonalLoop=1;jettySize=auto;html=1;entryX=0.25;entryY=1;entryDx=0;entryDy=0;" parent="iKwgrwwHFy8eXeqNAH09-1136" source="iKwgrwwHFy8eXeqNAH09-1157" target="iKwgrwwHFy8eXeqNAH09-1139" edge="1">
          <mxGeometry relative="1" as="geometry">
            <mxPoint x="281" y="330" as="targetPoint" />
            <Array as="points">
              <mxPoint x="241" y="345" />
            </Array>
          </mxGeometry>
        </mxCell>
        <mxCell id="iKwgrwwHFy8eXeqNAH09-1157" value="&lt;div style=&quot;line-height: 80%;&quot;&gt;&lt;span style=&quot;font-size: 13px;&quot;&gt;&lt;b&gt;imm&lt;/b&gt;&lt;/span&gt;&lt;/div&gt;&lt;div style=&quot;line-height: 80%;&quot;&gt;&lt;span style=&quot;font-size: 13px;&quot;&gt;&lt;b&gt;gen&lt;/b&gt;&lt;/span&gt;&lt;/div&gt;" style="whiteSpace=wrap;html=1;shadow=1;fontSize=18;fillColor=#f5f5f5;strokeColor=#666666;align=center;" parent="iKwgrwwHFy8eXeqNAH09-1136" vertex="1">
          <mxGeometry x="221" y="295" width="40" height="40" as="geometry" />
        </mxCell>
        <mxCell id="iKwgrwwHFy8eXeqNAH09-1158" value="&lt;div style=&quot;line-height: 80%;&quot;&gt;&lt;span style=&quot;font-size: 13px;&quot;&gt;PC+4&lt;/span&gt;&lt;/div&gt;" style="whiteSpace=wrap;html=1;shadow=1;fontSize=18;fillColor=#f5f5f5;strokeColor=#666666;fontStyle=1" parent="iKwgrwwHFy8eXeqNAH09-1136" vertex="1">
          <mxGeometry x="31" y="250" width="40" height="20" as="geometry" />
        </mxCell>
        <mxCell id="iKwgrwwHFy8eXeqNAH09-1160" style="edgeStyle=orthogonalEdgeStyle;rounded=0;orthogonalLoop=1;jettySize=auto;html=1;entryX=0;entryY=0.5;entryDx=0;entryDy=0;" parent="iKwgrwwHFy8eXeqNAH09-1136" source="iKwgrwwHFy8eXeqNAH09-1161" target="iKwgrwwHFy8eXeqNAH09-1168" edge="1">
          <mxGeometry relative="1" as="geometry">
            <Array as="points">
              <mxPoint x="291" y="100" />
              <mxPoint x="291" y="170" />
            </Array>
          </mxGeometry>
        </mxCell>
        <mxCell id="iKwgrwwHFy8eXeqNAH09-1161" value="&lt;div style=&quot;line-height: 80%;&quot;&gt;&lt;span style=&quot;font-size: 13px;&quot;&gt;&lt;b&gt;Control&lt;/b&gt;&lt;/span&gt;&lt;/div&gt;&lt;div style=&quot;line-height: 80%;&quot;&gt;&lt;span style=&quot;font-size: 13px;&quot;&gt;&lt;b&gt;Unit&lt;/b&gt;&lt;/span&gt;&lt;/div&gt;" style="whiteSpace=wrap;html=1;shadow=1;fontSize=18;fillColor=#f5f5f5;strokeColor=#666666;align=center;" parent="iKwgrwwHFy8eXeqNAH09-1136" vertex="1">
          <mxGeometry x="211" y="80" width="60" height="80" as="geometry" />
        </mxCell>
        <mxCell id="iKwgrwwHFy8eXeqNAH09-1162" value="&lt;div style=&quot;line-height: 80%;&quot;&gt;&lt;span style=&quot;font-size: 13px;&quot;&gt;&lt;b&gt;Register&lt;/b&gt;&lt;/span&gt;&lt;/div&gt;&lt;div style=&quot;line-height: 80%;&quot;&gt;&lt;span style=&quot;font-size: 13px;&quot;&gt;&lt;b&gt;File&lt;/b&gt;&lt;/span&gt;&lt;/div&gt;" style="whiteSpace=wrap;html=1;shadow=1;fontSize=18;fillColor=#f5f5f5;strokeColor=#666666;align=center;" parent="iKwgrwwHFy8eXeqNAH09-1136" vertex="1">
          <mxGeometry x="353.5" y="260" width="60" height="40" as="geometry" />
        </mxCell>
        <mxCell id="iKwgrwwHFy8eXeqNAH09-1163" value="&lt;div style=&quot;line-height: 80%;&quot;&gt;&lt;span style=&quot;font-size: 13px;&quot;&gt;&lt;b&gt;ALU&lt;/b&gt;&lt;/span&gt;&lt;/div&gt;&lt;div style=&quot;line-height: 80%;&quot;&gt;&lt;span style=&quot;font-size: 13px;&quot;&gt;&lt;b&gt;Controller&lt;/b&gt;&lt;/span&gt;&lt;/div&gt;" style="whiteSpace=wrap;html=1;shadow=1;fontSize=18;fillColor=#f5f5f5;strokeColor=#666666;align=center;" parent="iKwgrwwHFy8eXeqNAH09-1136" vertex="1">
          <mxGeometry x="321" y="210" width="80" height="40" as="geometry" />
        </mxCell>
        <mxCell id="iKwgrwwHFy8eXeqNAH09-1165" value="&lt;div style=&quot;line-height: 80%;&quot;&gt;&lt;span style=&quot;font-size: 13px;&quot;&gt;&lt;b&gt;ALU&lt;/b&gt;&lt;/span&gt;&lt;/div&gt;" style="whiteSpace=wrap;html=1;shadow=1;fontSize=18;fillColor=#f5f5f5;strokeColor=#666666;align=center;" parent="iKwgrwwHFy8eXeqNAH09-1136" vertex="1">
          <mxGeometry x="511" y="200" width="60" height="100" as="geometry" />
        </mxCell>
        <mxCell id="iKwgrwwHFy8eXeqNAH09-1166" style="edgeStyle=orthogonalEdgeStyle;rounded=0;orthogonalLoop=1;jettySize=auto;html=1;entryX=0.5;entryY=0;entryDx=0;entryDy=0;" parent="iKwgrwwHFy8eXeqNAH09-1136" source="iKwgrwwHFy8eXeqNAH09-1167" target="iKwgrwwHFy8eXeqNAH09-1168" edge="1">
          <mxGeometry relative="1" as="geometry" />
        </mxCell>
        <mxCell id="iKwgrwwHFy8eXeqNAH09-1167" value="&lt;div style=&quot;line-height: 80%;&quot;&gt;&lt;span style=&quot;font-size: 13px;&quot;&gt;&lt;b&gt;Data&lt;br&gt;Memory&lt;/b&gt;&lt;/span&gt;&lt;/div&gt;" style="whiteSpace=wrap;html=1;shadow=1;fontSize=18;fillColor=#f5f5f5;strokeColor=#666666;align=center;" parent="iKwgrwwHFy8eXeqNAH09-1136" vertex="1">
          <mxGeometry x="311" y="80" width="80" height="40" as="geometry" />
        </mxCell>
        <mxCell id="iKwgrwwHFy8eXeqNAH09-1168" value="&lt;div style=&quot;line-height: 80%;&quot;&gt;&lt;span style=&quot;font-size: 13px;&quot;&gt;&lt;b&gt;Byte Enable&lt;br&gt;Logic&lt;/b&gt;&lt;/span&gt;&lt;/div&gt;" style="whiteSpace=wrap;html=1;shadow=1;fontSize=18;fillColor=#f5f5f5;strokeColor=#666666;align=center;" parent="iKwgrwwHFy8eXeqNAH09-1136" vertex="1">
          <mxGeometry x="311" y="150" width="80" height="40" as="geometry" />
        </mxCell>
        <mxCell id="iKwgrwwHFy8eXeqNAH09-1169" style="edgeStyle=orthogonalEdgeStyle;rounded=0;orthogonalLoop=1;jettySize=auto;html=1;entryX=0.75;entryY=0;entryDx=0;entryDy=0;" parent="iKwgrwwHFy8eXeqNAH09-1136" source="iKwgrwwHFy8eXeqNAH09-1170" target="iKwgrwwHFy8eXeqNAH09-1155" edge="1">
          <mxGeometry relative="1" as="geometry">
            <Array as="points">
              <mxPoint x="451" y="70" />
              <mxPoint x="131" y="70" />
            </Array>
          </mxGeometry>
        </mxCell>
        <mxCell id="iKwgrwwHFy8eXeqNAH09-1170" value="&lt;div style=&quot;line-height: 80%;&quot;&gt;&lt;span style=&quot;font-size: 13px;&quot;&gt;&lt;b&gt;Branch&lt;/b&gt;&lt;/span&gt;&lt;/div&gt;&lt;div style=&quot;line-height: 80%;&quot;&gt;&lt;span style=&quot;font-size: 13px;&quot;&gt;&lt;b&gt;Logic&lt;/b&gt;&lt;/span&gt;&lt;/div&gt;" style="whiteSpace=wrap;html=1;shadow=1;fontSize=18;fillColor=#f5f5f5;strokeColor=#666666;align=center;" parent="iKwgrwwHFy8eXeqNAH09-1136" vertex="1">
          <mxGeometry x="421" y="100" width="60" height="50" as="geometry" />
        </mxCell>
        <mxCell id="U4OhBhmkpJD2XP-6xcDB-35" style="edgeStyle=orthogonalEdgeStyle;rounded=0;orthogonalLoop=1;jettySize=auto;html=1;entryX=0;entryY=0.5;entryDx=0;entryDy=0;" edge="1" parent="iKwgrwwHFy8eXeqNAH09-1136" source="iKwgrwwHFy8eXeqNAH09-1172" target="iKwgrwwHFy8eXeqNAH09-1145">
          <mxGeometry relative="1" as="geometry" />
        </mxCell>
        <mxCell id="iKwgrwwHFy8eXeqNAH09-1172" value="" style="shape=waypoint;sketch=0;size=6;pointerEvents=1;points=[];fillColor=none;resizable=0;rotatable=0;perimeter=centerPerimeter;snapToPoint=1;" parent="iKwgrwwHFy8eXeqNAH09-1136" vertex="1">
          <mxGeometry x="1" y="210" width="20" height="20" as="geometry" />
        </mxCell>
        <mxCell id="iKwgrwwHFy8eXeqNAH09-1173" value="" style="shape=waypoint;sketch=0;size=6;pointerEvents=1;points=[];fillColor=none;resizable=0;rotatable=0;perimeter=centerPerimeter;snapToPoint=1;" parent="iKwgrwwHFy8eXeqNAH09-1136" vertex="1">
          <mxGeometry x="291" y="220" width="20" height="20" as="geometry" />
        </mxCell>
        <mxCell id="iKwgrwwHFy8eXeqNAH09-1174" style="edgeStyle=orthogonalEdgeStyle;rounded=0;orthogonalLoop=1;jettySize=auto;html=1;entryX=0;entryY=0.5;entryDx=0;entryDy=0;" parent="iKwgrwwHFy8eXeqNAH09-1136" source="iKwgrwwHFy8eXeqNAH09-1175" target="iKwgrwwHFy8eXeqNAH09-1167" edge="1">
          <mxGeometry relative="1" as="geometry">
            <Array as="points">
              <mxPoint x="291" y="100" />
            </Array>
          </mxGeometry>
        </mxCell>
        <mxCell id="iKwgrwwHFy8eXeqNAH09-1175" value="" style="shape=waypoint;sketch=0;size=6;pointerEvents=1;points=[];fillColor=none;resizable=0;rotatable=0;perimeter=centerPerimeter;snapToPoint=1;" parent="iKwgrwwHFy8eXeqNAH09-1136" vertex="1">
          <mxGeometry x="281" y="90" width="20" height="20" as="geometry" />
        </mxCell>
        <mxCell id="iKwgrwwHFy8eXeqNAH09-1176" style="edgeStyle=orthogonalEdgeStyle;rounded=0;orthogonalLoop=1;jettySize=auto;html=1;entryX=0.5;entryY=0;entryDx=0;entryDy=0;" parent="iKwgrwwHFy8eXeqNAH09-1136" source="iKwgrwwHFy8eXeqNAH09-1177" target="iKwgrwwHFy8eXeqNAH09-1155" edge="1">
          <mxGeometry relative="1" as="geometry">
            <mxPoint x="121" y="100" as="targetPoint" />
            <Array as="points">
              <mxPoint x="541" y="60" />
              <mxPoint x="111" y="60" />
            </Array>
          </mxGeometry>
        </mxCell>
        <mxCell id="iKwgrwwHFy8eXeqNAH09-1177" value="" style="shape=waypoint;sketch=0;size=6;pointerEvents=1;points=[];fillColor=none;resizable=0;rotatable=0;perimeter=centerPerimeter;snapToPoint=1;" parent="iKwgrwwHFy8eXeqNAH09-1136" vertex="1">
          <mxGeometry x="531" y="80" width="20" height="20" as="geometry" />
        </mxCell>
        <mxCell id="iKwgrwwHFy8eXeqNAH09-1178" value="" style="shape=waypoint;sketch=0;size=6;pointerEvents=1;points=[];fillColor=none;resizable=0;rotatable=0;perimeter=centerPerimeter;snapToPoint=1;" parent="iKwgrwwHFy8eXeqNAH09-1136" vertex="1">
          <mxGeometry x="281" y="125" width="20" height="20" as="geometry" />
        </mxCell>
        <mxCell id="iKwgrwwHFy8eXeqNAH09-1179" style="edgeStyle=orthogonalEdgeStyle;rounded=0;orthogonalLoop=1;jettySize=auto;html=1;entryX=0;entryY=0.5;entryDx=0;entryDy=0;jumpStyle=arc;" parent="iKwgrwwHFy8eXeqNAH09-1136" source="iKwgrwwHFy8eXeqNAH09-1178" target="iKwgrwwHFy8eXeqNAH09-1170" edge="1">
          <mxGeometry relative="1" as="geometry" />
        </mxCell>
        <mxCell id="iKwgrwwHFy8eXeqNAH09-1180" style="edgeStyle=orthogonalEdgeStyle;rounded=0;orthogonalLoop=1;jettySize=auto;html=1;entryX=1;entryY=0.25;entryDx=0;entryDy=0;" parent="iKwgrwwHFy8eXeqNAH09-1136" source="iKwgrwwHFy8eXeqNAH09-1189" target="iKwgrwwHFy8eXeqNAH09-1168" edge="1">
          <mxGeometry relative="1" as="geometry">
            <Array as="points" />
          </mxGeometry>
        </mxCell>
        <mxCell id="iKwgrwwHFy8eXeqNAH09-1181" value="" style="shape=waypoint;sketch=0;size=6;pointerEvents=1;points=[];fillColor=none;resizable=0;rotatable=0;perimeter=centerPerimeter;snapToPoint=1;" parent="iKwgrwwHFy8eXeqNAH09-1136" vertex="1">
          <mxGeometry x="531" y="115" width="20" height="20" as="geometry" />
        </mxCell>
        <mxCell id="iKwgrwwHFy8eXeqNAH09-1182" style="edgeStyle=orthogonalEdgeStyle;rounded=0;orthogonalLoop=1;jettySize=auto;html=1;entryX=1;entryY=0.5;entryDx=0;entryDy=0;jumpStyle=arc;" parent="iKwgrwwHFy8eXeqNAH09-1136" source="iKwgrwwHFy8eXeqNAH09-1181" target="iKwgrwwHFy8eXeqNAH09-1167" edge="1">
          <mxGeometry relative="1" as="geometry">
            <Array as="points">
              <mxPoint x="541" y="90" />
              <mxPoint x="411" y="90" />
              <mxPoint x="411" y="100" />
            </Array>
          </mxGeometry>
        </mxCell>
        <mxCell id="iKwgrwwHFy8eXeqNAH09-1183" style="edgeStyle=orthogonalEdgeStyle;rounded=0;orthogonalLoop=1;jettySize=auto;html=1;entryX=0;entryY=0.5;entryDx=0;entryDy=0;" parent="iKwgrwwHFy8eXeqNAH09-1136" source="iKwgrwwHFy8eXeqNAH09-1184" target="iKwgrwwHFy8eXeqNAH09-1139" edge="1">
          <mxGeometry relative="1" as="geometry" />
        </mxCell>
        <mxCell id="iKwgrwwHFy8eXeqNAH09-1184" value="" style="shape=waypoint;sketch=0;size=6;pointerEvents=1;points=[];fillColor=none;resizable=0;rotatable=0;perimeter=centerPerimeter;snapToPoint=1;" parent="iKwgrwwHFy8eXeqNAH09-1136" vertex="1">
          <mxGeometry x="281" y="160" width="20" height="20" as="geometry" />
        </mxCell>
        <mxCell id="iKwgrwwHFy8eXeqNAH09-1185" style="edgeStyle=orthogonalEdgeStyle;rounded=0;orthogonalLoop=1;jettySize=auto;html=1;entryX=0;entryY=0.5;entryDx=0;entryDy=0;jumpStyle=arc;" parent="iKwgrwwHFy8eXeqNAH09-1136" source="iKwgrwwHFy8eXeqNAH09-1151" target="iKwgrwwHFy8eXeqNAH09-1163" edge="1">
          <mxGeometry relative="1" as="geometry">
            <Array as="points">
              <mxPoint x="311" y="230" />
              <mxPoint x="311" y="230" />
            </Array>
          </mxGeometry>
        </mxCell>
        <mxCell id="iKwgrwwHFy8eXeqNAH09-1186" value="" style="endArrow=classic;html=1;rounded=0;exitX=0.5;exitY=0;exitDx=0;exitDy=0;entryX=0;entryY=0.75;entryDx=0;entryDy=0;edgeStyle=orthogonalEdgeStyle;" parent="iKwgrwwHFy8eXeqNAH09-1136" source="iKwgrwwHFy8eXeqNAH09-1139" target="iKwgrwwHFy8eXeqNAH09-1162" edge="1">
          <mxGeometry width="50" height="50" relative="1" as="geometry">
            <mxPoint x="311" y="370" as="sourcePoint" />
            <mxPoint x="361" y="320" as="targetPoint" />
            <Array as="points">
              <mxPoint x="297" y="365" />
              <mxPoint x="297" y="290" />
            </Array>
          </mxGeometry>
        </mxCell>
        <mxCell id="iKwgrwwHFy8eXeqNAH09-1187" style="edgeStyle=orthogonalEdgeStyle;rounded=0;orthogonalLoop=1;jettySize=auto;html=1;entryX=1;entryY=0.5;entryDx=0;entryDy=0;jumpStyle=arc;exitX=0.5;exitY=0;exitDx=0;exitDy=0;" parent="iKwgrwwHFy8eXeqNAH09-1136" source="iKwgrwwHFy8eXeqNAH09-1165" target="iKwgrwwHFy8eXeqNAH09-1170" edge="1">
          <mxGeometry relative="1" as="geometry">
            <Array as="points">
              <mxPoint x="541" y="125" />
            </Array>
          </mxGeometry>
        </mxCell>
        <mxCell id="iKwgrwwHFy8eXeqNAH09-1189" value="" style="shape=waypoint;sketch=0;size=6;pointerEvents=1;points=[];fillColor=none;resizable=0;rotatable=0;perimeter=centerPerimeter;snapToPoint=1;" parent="iKwgrwwHFy8eXeqNAH09-1136" vertex="1">
          <mxGeometry x="531" y="150" width="20" height="20" as="geometry" />
        </mxCell>
        <mxCell id="iKwgrwwHFy8eXeqNAH09-1191" style="edgeStyle=orthogonalEdgeStyle;rounded=0;orthogonalLoop=1;jettySize=auto;html=1;entryX=0;entryY=0.5;entryDx=0;entryDy=0;jumpStyle=arc;" parent="iKwgrwwHFy8eXeqNAH09-1136" source="iKwgrwwHFy8eXeqNAH09-1192" target="iKwgrwwHFy8eXeqNAH09-1212" edge="1">
          <mxGeometry relative="1" as="geometry" />
        </mxCell>
        <mxCell id="iKwgrwwHFy8eXeqNAH09-1192" value="" style="shape=waypoint;sketch=0;size=6;pointerEvents=1;points=[];fillColor=none;resizable=0;rotatable=0;perimeter=centerPerimeter;snapToPoint=1;" parent="iKwgrwwHFy8eXeqNAH09-1136" vertex="1">
          <mxGeometry x="281" y="190" width="20" height="20" as="geometry" />
        </mxCell>
        <mxCell id="iKwgrwwHFy8eXeqNAH09-1193" style="edgeStyle=orthogonalEdgeStyle;rounded=0;orthogonalLoop=1;jettySize=auto;html=1;entryX=0;entryY=0.5;entryDx=0;entryDy=0;" parent="iKwgrwwHFy8eXeqNAH09-1136" source="iKwgrwwHFy8eXeqNAH09-1194" target="iKwgrwwHFy8eXeqNAH09-1210" edge="1">
          <mxGeometry relative="1" as="geometry">
            <Array as="points">
              <mxPoint x="491" y="200" />
            </Array>
          </mxGeometry>
        </mxCell>
        <mxCell id="iKwgrwwHFy8eXeqNAH09-1194" value="" style="shape=waypoint;sketch=0;size=6;pointerEvents=1;points=[];fillColor=none;resizable=0;rotatable=0;perimeter=centerPerimeter;snapToPoint=1;" parent="iKwgrwwHFy8eXeqNAH09-1136" vertex="1">
          <mxGeometry x="461" y="190" width="20" height="20" as="geometry" />
        </mxCell>
        <mxCell id="iKwgrwwHFy8eXeqNAH09-1195" style="rounded=0;orthogonalLoop=1;jettySize=auto;html=1;entryX=0;entryY=0.8;entryDx=0;entryDy=0;entryPerimeter=0;jumpStyle=arc;" parent="iKwgrwwHFy8eXeqNAH09-1136" source="iKwgrwwHFy8eXeqNAH09-1212" target="iKwgrwwHFy8eXeqNAH09-1165" edge="1">
          <mxGeometry relative="1" as="geometry">
            <mxPoint x="491" y="280" as="targetPoint" />
          </mxGeometry>
        </mxCell>
        <mxCell id="iKwgrwwHFy8eXeqNAH09-1198" value="" style="shape=waypoint;sketch=0;size=6;pointerEvents=1;points=[];fillColor=none;resizable=0;rotatable=0;perimeter=centerPerimeter;snapToPoint=1;" parent="iKwgrwwHFy8eXeqNAH09-1136" vertex="1">
          <mxGeometry x="231" y="335" width="20" height="20" as="geometry" />
        </mxCell>
        <mxCell id="iKwgrwwHFy8eXeqNAH09-1199" style="edgeStyle=orthogonalEdgeStyle;rounded=0;orthogonalLoop=1;jettySize=auto;html=1;entryX=0.25;entryY=1;entryDx=0;entryDy=0;" parent="iKwgrwwHFy8eXeqNAH09-1136" source="iKwgrwwHFy8eXeqNAH09-1211" target="iKwgrwwHFy8eXeqNAH09-1165" edge="1">
          <mxGeometry relative="1" as="geometry" />
        </mxCell>
        <mxCell id="iKwgrwwHFy8eXeqNAH09-1203" value="&lt;font style=&quot;font-size: 24px;&quot;&gt;&lt;b&gt;[RV32I46F] &lt;br&gt;46F Architecture&lt;/b&gt;&lt;/font&gt;" style="text;html=1;align=left;verticalAlign=middle;whiteSpace=wrap;rounded=0;" parent="iKwgrwwHFy8eXeqNAH09-1136" vertex="1">
          <mxGeometry x="1" width="320" height="60" as="geometry" />
        </mxCell>
        <mxCell id="iKwgrwwHFy8eXeqNAH09-1205" value="&lt;div style=&quot;line-height: 80%;&quot;&gt;&lt;span style=&quot;font-size: 13px;&quot;&gt;&lt;b&gt;CSR&lt;/b&gt;&lt;/span&gt;&lt;/div&gt;&lt;div style=&quot;line-height: 80%;&quot;&gt;&lt;span style=&quot;font-size: 13px;&quot;&gt;&lt;b&gt;File&lt;/b&gt;&lt;/span&gt;&lt;/div&gt;" style="whiteSpace=wrap;html=1;shadow=1;fontSize=18;fillColor=#dae8fc;strokeColor=#6c8ebf;align=center;" parent="iKwgrwwHFy8eXeqNAH09-1136" vertex="1">
          <mxGeometry x="353.5" y="310" width="60" height="80" as="geometry" />
        </mxCell>
        <mxCell id="iKwgrwwHFy8eXeqNAH09-1206" style="edgeStyle=orthogonalEdgeStyle;rounded=0;orthogonalLoop=1;jettySize=auto;html=1;jumpStyle=arc;" parent="iKwgrwwHFy8eXeqNAH09-1136" source="iKwgrwwHFy8eXeqNAH09-1207" target="iKwgrwwHFy8eXeqNAH09-1205" edge="1">
          <mxGeometry relative="1" as="geometry">
            <mxPoint x="346.5" y="320" as="targetPoint" />
            <Array as="points">
              <mxPoint x="317" y="300" />
              <mxPoint x="317" y="315" />
            </Array>
            <mxPoint x="291" y="295" as="sourcePoint" />
          </mxGeometry>
        </mxCell>
        <mxCell id="iKwgrwwHFy8eXeqNAH09-1207" value="" style="shape=waypoint;sketch=0;size=6;pointerEvents=1;points=[];fillColor=none;resizable=0;rotatable=0;perimeter=centerPerimeter;snapToPoint=1;" parent="iKwgrwwHFy8eXeqNAH09-1136" vertex="1">
          <mxGeometry x="271.5" y="290" width="20" height="20" as="geometry" />
        </mxCell>
        <mxCell id="iKwgrwwHFy8eXeqNAH09-1255" style="edgeStyle=orthogonalEdgeStyle;rounded=0;orthogonalLoop=1;jettySize=auto;html=1;entryX=0.75;entryY=1;entryDx=0;entryDy=0;" parent="iKwgrwwHFy8eXeqNAH09-1136" source="iKwgrwwHFy8eXeqNAH09-1208" target="iKwgrwwHFy8eXeqNAH09-1254" edge="1">
          <mxGeometry relative="1" as="geometry">
            <Array as="points">
              <mxPoint x="327" y="430" />
              <mxPoint x="327" y="398" />
            </Array>
          </mxGeometry>
        </mxCell>
        <mxCell id="iKwgrwwHFy8eXeqNAH09-1208" value="" style="shape=waypoint;sketch=0;size=6;pointerEvents=1;points=[];fillColor=none;resizable=0;rotatable=0;perimeter=centerPerimeter;snapToPoint=1;" parent="iKwgrwwHFy8eXeqNAH09-1136" vertex="1">
          <mxGeometry x="317.25" y="420" width="20" height="20" as="geometry" />
        </mxCell>
        <mxCell id="iKwgrwwHFy8eXeqNAH09-1209" value="" style="shape=waypoint;sketch=0;size=6;pointerEvents=1;points=[];fillColor=none;resizable=0;rotatable=0;perimeter=centerPerimeter;snapToPoint=1;" parent="iKwgrwwHFy8eXeqNAH09-1136" vertex="1">
          <mxGeometry x="297.25" y="430" width="20" height="20" as="geometry" />
        </mxCell>
        <mxCell id="iKwgrwwHFy8eXeqNAH09-1210" value="" style="shape=trapezoid;perimeter=trapezoidPerimeter;whiteSpace=wrap;html=1;fixedSize=1;shadow=1;strokeColor=#666666;align=center;verticalAlign=middle;fontFamily=Helvetica;fontSize=18;fillColor=#f5f5f5;rotation=90;container=0;fontColor=#000000;" parent="iKwgrwwHFy8eXeqNAH09-1136" vertex="1">
          <mxGeometry x="461" y="335" width="60" height="20" as="geometry" />
        </mxCell>
        <mxCell id="iKwgrwwHFy8eXeqNAH09-1211" value="&lt;div style=&quot;line-height: 90%;&quot;&gt;&lt;b style=&quot;font-size: 10px; background-color: transparent; color: light-dark(rgb(0, 0, 0), rgb(255, 255, 255));&quot;&gt;src&lt;/b&gt;&lt;/div&gt;&lt;div style=&quot;line-height: 90%;&quot;&gt;&lt;span style=&quot;font-size: 10px;&quot;&gt;&lt;b&gt;B&lt;/b&gt;&lt;/span&gt;&lt;/div&gt;" style="text;html=1;align=center;verticalAlign=middle;whiteSpace=wrap;rounded=0;" parent="iKwgrwwHFy8eXeqNAH09-1136" vertex="1">
          <mxGeometry x="481" y="330" width="20" height="30" as="geometry" />
        </mxCell>
        <mxCell id="iKwgrwwHFy8eXeqNAH09-1212" value="" style="shape=trapezoid;perimeter=trapezoidPerimeter;whiteSpace=wrap;html=1;fixedSize=1;shadow=1;strokeColor=#666666;align=center;verticalAlign=middle;fontFamily=Helvetica;fontSize=18;fillColor=#f5f5f5;rotation=90;container=0;fontColor=#000000;" parent="iKwgrwwHFy8eXeqNAH09-1136" vertex="1">
          <mxGeometry x="441" y="270" width="60" height="20" as="geometry" />
        </mxCell>
        <mxCell id="iKwgrwwHFy8eXeqNAH09-1213" value="&lt;div style=&quot;line-height: 90%;&quot;&gt;&lt;b style=&quot;font-size: 10px; background-color: transparent; color: light-dark(rgb(0, 0, 0), rgb(255, 255, 255));&quot;&gt;src&lt;/b&gt;&lt;/div&gt;&lt;div style=&quot;line-height: 90%;&quot;&gt;&lt;span style=&quot;font-size: 10px;&quot;&gt;&lt;b&gt;A&lt;/b&gt;&lt;/span&gt;&lt;/div&gt;" style="text;html=1;align=center;verticalAlign=middle;whiteSpace=wrap;rounded=0;" parent="iKwgrwwHFy8eXeqNAH09-1136" vertex="1">
          <mxGeometry x="461" y="265" width="20" height="30" as="geometry" />
        </mxCell>
        <mxCell id="iKwgrwwHFy8eXeqNAH09-1215" value="" style="shape=waypoint;sketch=0;size=6;pointerEvents=1;points=[];fillColor=none;resizable=0;rotatable=0;perimeter=centerPerimeter;snapToPoint=1;" parent="iKwgrwwHFy8eXeqNAH09-1136" vertex="1">
          <mxGeometry x="291" y="245" width="20" height="20" as="geometry" />
        </mxCell>
        <mxCell id="iKwgrwwHFy8eXeqNAH09-1216" value="&lt;div style=&quot;line-height: 90%;&quot;&gt;&lt;font style=&quot;font-size: 10px;&quot;&gt;&lt;b&gt;Reg&lt;/b&gt;&lt;/font&gt;&lt;div&gt;&lt;font style=&quot;font-size: 10px;&quot;&gt;&lt;b&gt;Src&lt;/b&gt;&lt;/font&gt;&lt;/div&gt;&lt;/div&gt;" style="text;html=1;align=center;verticalAlign=middle;whiteSpace=wrap;rounded=0;" parent="iKwgrwwHFy8eXeqNAH09-1136" vertex="1">
          <mxGeometry x="272.5" y="350" width="19" height="30" as="geometry" />
        </mxCell>
        <mxCell id="iKwgrwwHFy8eXeqNAH09-1217" value="" style="shape=waypoint;sketch=0;size=6;pointerEvents=1;points=[];fillColor=none;resizable=0;rotatable=0;perimeter=centerPerimeter;snapToPoint=1;" parent="iKwgrwwHFy8eXeqNAH09-1136" vertex="1">
          <mxGeometry x="413.5" y="310" width="20" height="20" as="geometry" />
        </mxCell>
        <mxCell id="iKwgrwwHFy8eXeqNAH09-1227" style="edgeStyle=orthogonalEdgeStyle;rounded=0;orthogonalLoop=1;jettySize=auto;html=1;entryX=0;entryY=0.75;entryDx=0;entryDy=0;exitX=1;exitY=0.25;exitDx=0;exitDy=0;" parent="iKwgrwwHFy8eXeqNAH09-1136" source="iKwgrwwHFy8eXeqNAH09-1218" target="iKwgrwwHFy8eXeqNAH09-1161" edge="1">
          <mxGeometry relative="1" as="geometry">
            <Array as="points">
              <mxPoint x="197" y="300" />
              <mxPoint x="197" y="140" />
            </Array>
          </mxGeometry>
        </mxCell>
        <mxCell id="iKwgrwwHFy8eXeqNAH09-1218" value="&lt;div style=&quot;line-height: 80%;&quot;&gt;&lt;span style=&quot;font-size: 13px;&quot;&gt;&lt;b&gt;Exception&lt;/b&gt;&lt;/span&gt;&lt;/div&gt;&lt;div style=&quot;line-height: 80%;&quot;&gt;&lt;span style=&quot;font-size: 13px;&quot;&gt;&lt;b&gt;Detector&lt;/b&gt;&lt;/span&gt;&lt;/div&gt;" style="whiteSpace=wrap;html=1;shadow=1;fontSize=18;fillColor=#dae8fc;strokeColor=#6c8ebf;align=center;" parent="iKwgrwwHFy8eXeqNAH09-1136" vertex="1">
          <mxGeometry x="106.5" y="290" width="70" height="40" as="geometry" />
        </mxCell>
        <mxCell id="iKwgrwwHFy8eXeqNAH09-1219" value="&lt;div style=&quot;line-height: 80%;&quot;&gt;&lt;span style=&quot;font-size: 13px;&quot;&gt;&lt;b&gt;Trap&lt;/b&gt;&lt;/span&gt;&lt;/div&gt;&lt;div style=&quot;line-height: 80%;&quot;&gt;&lt;span style=&quot;font-size: 13px;&quot;&gt;&lt;b&gt;Controller&lt;/b&gt;&lt;/span&gt;&lt;/div&gt;" style="whiteSpace=wrap;html=1;shadow=1;fontSize=18;fillColor=#dae8fc;strokeColor=#6c8ebf;align=center;" parent="iKwgrwwHFy8eXeqNAH09-1136" vertex="1">
          <mxGeometry x="106.5" y="350" width="70" height="40" as="geometry" />
        </mxCell>
        <mxCell id="iKwgrwwHFy8eXeqNAH09-1221" style="edgeStyle=orthogonalEdgeStyle;rounded=0;orthogonalLoop=1;jettySize=auto;html=1;entryX=1;entryY=0.5;entryDx=0;entryDy=0;" parent="iKwgrwwHFy8eXeqNAH09-1136" source="iKwgrwwHFy8eXeqNAH09-1220" target="iKwgrwwHFy8eXeqNAH09-1218" edge="1">
          <mxGeometry relative="1" as="geometry">
            <mxPoint x="236" y="260" as="sourcePoint" />
            <mxPoint x="176.5" y="290" as="targetPoint" />
            <Array as="points">
              <mxPoint x="207" y="260" />
              <mxPoint x="207" y="310" />
            </Array>
          </mxGeometry>
        </mxCell>
        <mxCell id="iKwgrwwHFy8eXeqNAH09-1220" value="" style="shape=waypoint;sketch=0;size=6;pointerEvents=1;points=[];fillColor=none;resizable=0;rotatable=0;perimeter=centerPerimeter;snapToPoint=1;" parent="iKwgrwwHFy8eXeqNAH09-1136" vertex="1">
          <mxGeometry x="231" y="250" width="20" height="20" as="geometry" />
        </mxCell>
        <mxCell id="iKwgrwwHFy8eXeqNAH09-1223" style="edgeStyle=orthogonalEdgeStyle;rounded=0;orthogonalLoop=1;jettySize=auto;html=1;entryX=0.25;entryY=0;entryDx=0;entryDy=0;" parent="iKwgrwwHFy8eXeqNAH09-1136" source="iKwgrwwHFy8eXeqNAH09-1222" target="iKwgrwwHFy8eXeqNAH09-1218" edge="1">
          <mxGeometry relative="1" as="geometry">
            <Array as="points">
              <mxPoint x="177" y="260" />
              <mxPoint x="124" y="260" />
            </Array>
          </mxGeometry>
        </mxCell>
        <mxCell id="iKwgrwwHFy8eXeqNAH09-1222" value="" style="shape=waypoint;sketch=0;size=6;pointerEvents=1;points=[];fillColor=none;resizable=0;rotatable=0;perimeter=centerPerimeter;snapToPoint=1;" parent="iKwgrwwHFy8eXeqNAH09-1136" vertex="1">
          <mxGeometry x="166.5" y="50" width="20" height="20" as="geometry" />
        </mxCell>
        <mxCell id="iKwgrwwHFy8eXeqNAH09-1226" style="edgeStyle=orthogonalEdgeStyle;rounded=0;orthogonalLoop=1;jettySize=auto;html=1;entryX=0.5;entryY=0;entryDx=0;entryDy=0;" parent="iKwgrwwHFy8eXeqNAH09-1136" source="iKwgrwwHFy8eXeqNAH09-1225" target="iKwgrwwHFy8eXeqNAH09-1218" edge="1">
          <mxGeometry relative="1" as="geometry">
            <Array as="points">
              <mxPoint x="187" y="270" />
              <mxPoint x="142" y="270" />
              <mxPoint x="142" y="290" />
            </Array>
          </mxGeometry>
        </mxCell>
        <mxCell id="iKwgrwwHFy8eXeqNAH09-1225" value="" style="shape=waypoint;sketch=0;size=6;pointerEvents=1;points=[];fillColor=none;resizable=0;rotatable=0;perimeter=centerPerimeter;snapToPoint=1;" parent="iKwgrwwHFy8eXeqNAH09-1136" vertex="1">
          <mxGeometry x="176.5" y="60" width="20" height="20" as="geometry" />
        </mxCell>
        <mxCell id="iKwgrwwHFy8eXeqNAH09-1159" style="edgeStyle=orthogonalEdgeStyle;rounded=0;orthogonalLoop=1;jettySize=auto;html=1;entryX=1;entryY=0.5;entryDx=0;entryDy=0;jumpStyle=arc;" parent="iKwgrwwHFy8eXeqNAH09-1136" source="iKwgrwwHFy8eXeqNAH09-1161" target="iKwgrwwHFy8eXeqNAH09-1155" edge="1">
          <mxGeometry relative="1" as="geometry">
            <mxPoint x="161" y="120" as="targetPoint" />
          </mxGeometry>
        </mxCell>
        <mxCell id="iKwgrwwHFy8eXeqNAH09-1229" style="edgeStyle=orthogonalEdgeStyle;rounded=0;orthogonalLoop=1;jettySize=auto;html=1;entryX=0;entryY=0.25;entryDx=0;entryDy=0;" parent="iKwgrwwHFy8eXeqNAH09-1136" source="iKwgrwwHFy8eXeqNAH09-1228" target="iKwgrwwHFy8eXeqNAH09-1161" edge="1">
          <mxGeometry relative="1" as="geometry" />
        </mxCell>
        <mxCell id="iKwgrwwHFy8eXeqNAH09-1228" value="" style="shape=waypoint;sketch=0;size=6;pointerEvents=1;points=[];fillColor=none;resizable=0;rotatable=0;perimeter=centerPerimeter;snapToPoint=1;" parent="iKwgrwwHFy8eXeqNAH09-1136" vertex="1">
          <mxGeometry x="176.5" y="90" width="20" height="20" as="geometry" />
        </mxCell>
        <mxCell id="iKwgrwwHFy8eXeqNAH09-1200" style="edgeStyle=orthogonalEdgeStyle;rounded=0;orthogonalLoop=1;jettySize=auto;html=1;entryX=0.378;entryY=1.003;entryDx=0;entryDy=0;exitX=0.5;exitY=1;exitDx=0;exitDy=0;jumpStyle=arc;entryPerimeter=0;" parent="iKwgrwwHFy8eXeqNAH09-1136" source="iKwgrwwHFy8eXeqNAH09-1158" target="iKwgrwwHFy8eXeqNAH09-1139" edge="1">
          <mxGeometry relative="1" as="geometry">
            <mxPoint x="71.00000000000045" y="275" as="sourcePoint" />
            <mxPoint x="281" y="355" as="targetPoint" />
            <Array as="points">
              <mxPoint x="51" y="296" />
              <mxPoint x="87" y="296" />
              <mxPoint x="87" y="400" />
              <mxPoint x="227" y="400" />
              <mxPoint x="227" y="355" />
            </Array>
          </mxGeometry>
        </mxCell>
        <mxCell id="iKwgrwwHFy8eXeqNAH09-1138" style="edgeStyle=orthogonalEdgeStyle;rounded=0;orthogonalLoop=1;jettySize=auto;html=1;entryX=0.5;entryY=1;entryDx=0;entryDy=0;jumpStyle=arc;" parent="iKwgrwwHFy8eXeqNAH09-1136" source="iKwgrwwHFy8eXeqNAH09-1217" target="iKwgrwwHFy8eXeqNAH09-1139" edge="1">
          <mxGeometry relative="1" as="geometry">
            <mxPoint x="421.5" y="345" as="sourcePoint" />
            <mxPoint x="279" y="355" as="targetPoint" />
            <Array as="points">
              <mxPoint x="424" y="450" />
              <mxPoint x="232" y="450" />
              <mxPoint x="232" y="365" />
            </Array>
          </mxGeometry>
        </mxCell>
        <mxCell id="iKwgrwwHFy8eXeqNAH09-1188" style="edgeStyle=orthogonalEdgeStyle;rounded=0;orthogonalLoop=1;jettySize=auto;html=1;entryX=0.75;entryY=1;entryDx=0;entryDy=0;exitX=1;exitY=0.5;exitDx=0;exitDy=0;jumpStyle=arc;" parent="iKwgrwwHFy8eXeqNAH09-1136" source="iKwgrwwHFy8eXeqNAH09-1168" target="iKwgrwwHFy8eXeqNAH09-1139" edge="1">
          <mxGeometry relative="1" as="geometry">
            <Array as="points">
              <mxPoint x="444" y="170" />
              <mxPoint x="444" y="420" />
              <mxPoint x="261" y="420" />
              <mxPoint x="261" y="385" />
            </Array>
          </mxGeometry>
        </mxCell>
        <mxCell id="iKwgrwwHFy8eXeqNAH09-1164" style="edgeStyle=orthogonalEdgeStyle;rounded=0;orthogonalLoop=1;jettySize=auto;html=1;entryX=0.628;entryY=1;entryDx=0;entryDy=0;exitX=0.5;exitY=1;exitDx=0;exitDy=0;jumpStyle=arc;entryPerimeter=0;" parent="iKwgrwwHFy8eXeqNAH09-1136" source="iKwgrwwHFy8eXeqNAH09-1165" target="iKwgrwwHFy8eXeqNAH09-1139" edge="1">
          <mxGeometry relative="1" as="geometry">
            <mxPoint x="541" y="295" as="sourcePoint" />
            <mxPoint x="281" y="360" as="targetPoint" />
            <Array as="points">
              <mxPoint x="541" y="430" />
              <mxPoint x="251" y="430" />
              <mxPoint x="251" y="375" />
            </Array>
          </mxGeometry>
        </mxCell>
        <mxCell id="iKwgrwwHFy8eXeqNAH09-1140" style="edgeStyle=orthogonalEdgeStyle;rounded=0;orthogonalLoop=1;jettySize=auto;html=1;entryX=0.75;entryY=1;entryDx=0;entryDy=0;jumpStyle=arc;" parent="iKwgrwwHFy8eXeqNAH09-1136" source="iKwgrwwHFy8eXeqNAH09-1198" target="iKwgrwwHFy8eXeqNAH09-1210" edge="1">
          <mxGeometry relative="1" as="geometry">
            <Array as="points">
              <mxPoint x="241" y="440" />
              <mxPoint x="464" y="440" />
              <mxPoint x="464" y="360" />
            </Array>
          </mxGeometry>
        </mxCell>
        <mxCell id="iKwgrwwHFy8eXeqNAH09-1201" style="edgeStyle=orthogonalEdgeStyle;rounded=0;orthogonalLoop=1;jettySize=auto;html=1;entryX=0.75;entryY=1;entryDx=0;entryDy=0;jumpStyle=arc;" parent="iKwgrwwHFy8eXeqNAH09-1136" source="iKwgrwwHFy8eXeqNAH09-1172" target="iKwgrwwHFy8eXeqNAH09-1212" edge="1">
          <mxGeometry relative="1" as="geometry">
            <Array as="points">
              <mxPoint x="11" y="450" />
              <mxPoint x="227" y="450" />
              <mxPoint x="227" y="410" />
              <mxPoint x="434" y="410" />
              <mxPoint x="434" y="295" />
            </Array>
            <mxPoint x="11" y="270" as="sourcePoint" />
          </mxGeometry>
        </mxCell>
        <mxCell id="iKwgrwwHFy8eXeqNAH09-1202" style="edgeStyle=orthogonalEdgeStyle;rounded=0;orthogonalLoop=1;jettySize=auto;html=1;entryX=0.25;entryY=1;entryDx=0;entryDy=0;jumpStyle=arc;exitX=1;exitY=0.75;exitDx=0;exitDy=0;" parent="iKwgrwwHFy8eXeqNAH09-1136" source="iKwgrwwHFy8eXeqNAH09-1162" target="iKwgrwwHFy8eXeqNAH09-1210" edge="1">
          <mxGeometry relative="1" as="geometry">
            <Array as="points">
              <mxPoint x="424" y="290" />
              <mxPoint x="424" y="320" />
              <mxPoint x="467" y="320" />
              <mxPoint x="467" y="330" />
            </Array>
          </mxGeometry>
        </mxCell>
        <mxCell id="iKwgrwwHFy8eXeqNAH09-1204" style="edgeStyle=orthogonalEdgeStyle;rounded=0;orthogonalLoop=1;jettySize=auto;html=1;entryX=0;entryY=0.5;entryDx=0;entryDy=0;exitX=1;exitY=0.25;exitDx=0;exitDy=0;jumpStyle=arc;" parent="iKwgrwwHFy8eXeqNAH09-1136" source="iKwgrwwHFy8eXeqNAH09-1205" target="iKwgrwwHFy8eXeqNAH09-1211" edge="1">
          <mxGeometry relative="1" as="geometry">
            <Array as="points">
              <mxPoint x="457" y="330" />
              <mxPoint x="457" y="345" />
            </Array>
          </mxGeometry>
        </mxCell>
        <mxCell id="iKwgrwwHFy8eXeqNAH09-1197" style="edgeStyle=orthogonalEdgeStyle;rounded=0;orthogonalLoop=1;jettySize=auto;html=1;entryX=0;entryY=0.5;entryDx=0;entryDy=0;jumpStyle=arc;exitX=1;exitY=0.25;exitDx=0;exitDy=0;" parent="iKwgrwwHFy8eXeqNAH09-1136" source="iKwgrwwHFy8eXeqNAH09-1162" target="iKwgrwwHFy8eXeqNAH09-1213" edge="1">
          <mxGeometry relative="1" as="geometry">
            <Array as="points">
              <mxPoint x="424" y="270" />
              <mxPoint x="424" y="280" />
            </Array>
            <mxPoint x="383.5" y="279.9999999999998" as="sourcePoint" />
            <mxPoint x="461" y="272.4999999999998" as="targetPoint" />
          </mxGeometry>
        </mxCell>
        <mxCell id="iKwgrwwHFy8eXeqNAH09-1214" style="edgeStyle=orthogonalEdgeStyle;rounded=0;orthogonalLoop=1;jettySize=auto;html=1;entryX=0.153;entryY=1.002;entryDx=0;entryDy=0;entryPerimeter=0;jumpStyle=arc;" parent="iKwgrwwHFy8eXeqNAH09-1136" source="iKwgrwwHFy8eXeqNAH09-1215" target="iKwgrwwHFy8eXeqNAH09-1212" edge="1">
          <mxGeometry relative="1" as="geometry">
            <mxPoint x="461.5" y="260" as="targetPoint" />
            <Array as="points">
              <mxPoint x="434" y="255" />
              <mxPoint x="434" y="260" />
              <mxPoint x="461" y="260" />
            </Array>
          </mxGeometry>
        </mxCell>
        <mxCell id="iKwgrwwHFy8eXeqNAH09-1196" value="" style="endArrow=classic;html=1;rounded=0;entryX=0;entryY=0.25;entryDx=0;entryDy=0;jumpStyle=arc;" parent="iKwgrwwHFy8eXeqNAH09-1136" target="iKwgrwwHFy8eXeqNAH09-1165" edge="1">
          <mxGeometry width="50" height="50" relative="1" as="geometry">
            <mxPoint x="401" y="225" as="sourcePoint" />
            <mxPoint x="421" y="225" as="targetPoint" />
          </mxGeometry>
        </mxCell>
        <mxCell id="iKwgrwwHFy8eXeqNAH09-1232" style="edgeStyle=orthogonalEdgeStyle;rounded=0;orthogonalLoop=1;jettySize=auto;html=1;entryX=0;entryY=0.75;entryDx=0;entryDy=0;" parent="iKwgrwwHFy8eXeqNAH09-1136" source="iKwgrwwHFy8eXeqNAH09-1231" target="iKwgrwwHFy8eXeqNAH09-1219" edge="1">
          <mxGeometry relative="1" as="geometry" />
        </mxCell>
        <mxCell id="iKwgrwwHFy8eXeqNAH09-1231" value="" style="shape=waypoint;sketch=0;size=6;pointerEvents=1;points=[];fillColor=none;resizable=0;rotatable=0;perimeter=centerPerimeter;snapToPoint=1;" parent="iKwgrwwHFy8eXeqNAH09-1136" vertex="1">
          <mxGeometry x="1" y="370" width="20" height="20" as="geometry" />
        </mxCell>
        <mxCell id="iKwgrwwHFy8eXeqNAH09-1234" style="edgeStyle=orthogonalEdgeStyle;rounded=0;orthogonalLoop=1;jettySize=auto;html=1;entryX=1;entryY=0.25;entryDx=0;entryDy=0;" parent="iKwgrwwHFy8eXeqNAH09-1136" source="iKwgrwwHFy8eXeqNAH09-1233" target="iKwgrwwHFy8eXeqNAH09-1219" edge="1">
          <mxGeometry relative="1" as="geometry" />
        </mxCell>
        <mxCell id="iKwgrwwHFy8eXeqNAH09-1233" value="" style="shape=waypoint;sketch=0;size=6;pointerEvents=1;points=[];fillColor=none;resizable=0;rotatable=0;perimeter=centerPerimeter;snapToPoint=1;" parent="iKwgrwwHFy8eXeqNAH09-1136" vertex="1">
          <mxGeometry x="222" y="355" width="20" height="20" as="geometry" />
        </mxCell>
        <mxCell id="iKwgrwwHFy8eXeqNAH09-1235" style="edgeStyle=orthogonalEdgeStyle;rounded=0;orthogonalLoop=1;jettySize=auto;html=1;entryX=0;entryY=0.75;entryDx=0;entryDy=0;exitX=0;exitY=0.5;exitDx=0;exitDy=0;jumpStyle=arc;" parent="iKwgrwwHFy8eXeqNAH09-1136" edge="1">
          <mxGeometry relative="1" as="geometry">
            <mxPoint x="106.5" y="370" as="sourcePoint" />
            <mxPoint x="211" y="130" as="targetPoint" />
            <Array as="points">
              <mxPoint x="97" y="370" />
              <mxPoint x="97" y="200" />
              <mxPoint x="167" y="200" />
              <mxPoint x="167" y="130" />
            </Array>
          </mxGeometry>
        </mxCell>
        <mxCell id="iKwgrwwHFy8eXeqNAH09-1238" style="edgeStyle=orthogonalEdgeStyle;rounded=0;orthogonalLoop=1;jettySize=auto;html=1;entryX=1;entryY=0.75;entryDx=0;entryDy=0;" parent="iKwgrwwHFy8eXeqNAH09-1136" source="iKwgrwwHFy8eXeqNAH09-1237" target="iKwgrwwHFy8eXeqNAH09-1155" edge="1">
          <mxGeometry relative="1" as="geometry" />
        </mxCell>
        <mxCell id="iKwgrwwHFy8eXeqNAH09-1237" value="" style="shape=waypoint;sketch=0;size=6;pointerEvents=1;points=[];fillColor=none;resizable=0;rotatable=0;perimeter=centerPerimeter;snapToPoint=1;" parent="iKwgrwwHFy8eXeqNAH09-1136" vertex="1">
          <mxGeometry x="157" y="120" width="20" height="20" as="geometry" />
        </mxCell>
        <mxCell id="iKwgrwwHFy8eXeqNAH09-1245" value="+" style="rounded=0;whiteSpace=wrap;html=1;fillColor=#dae8fc;strokeColor=#6c8ebf;" parent="iKwgrwwHFy8eXeqNAH09-1136" vertex="1">
          <mxGeometry x="312" y="310" width="10" height="10" as="geometry" />
        </mxCell>
        <mxCell id="iKwgrwwHFy8eXeqNAH09-1249" value="" style="group" parent="iKwgrwwHFy8eXeqNAH09-1136" vertex="1" connectable="0">
          <mxGeometry x="327" y="336" width="13.5" height="30" as="geometry" />
        </mxCell>
        <mxCell id="iKwgrwwHFy8eXeqNAH09-1247" value="" style="shape=trapezoid;perimeter=trapezoidPerimeter;whiteSpace=wrap;html=1;fixedSize=1;shadow=1;strokeColor=#6c8ebf;align=center;verticalAlign=middle;fontFamily=Helvetica;fontSize=18;fillColor=#dae8fc;rotation=90;container=0;size=10;" parent="iKwgrwwHFy8eXeqNAH09-1249" vertex="1">
          <mxGeometry x="-8.25" y="10" width="30" height="10" as="geometry" />
        </mxCell>
        <mxCell id="iKwgrwwHFy8eXeqNAH09-1251" style="edgeStyle=orthogonalEdgeStyle;rounded=0;orthogonalLoop=1;jettySize=auto;html=1;entryX=0.25;entryY=1;entryDx=0;entryDy=0;" parent="iKwgrwwHFy8eXeqNAH09-1136" source="iKwgrwwHFy8eXeqNAH09-1250" target="iKwgrwwHFy8eXeqNAH09-1247" edge="1">
          <mxGeometry relative="1" as="geometry" />
        </mxCell>
        <mxCell id="iKwgrwwHFy8eXeqNAH09-1250" value="" style="shape=waypoint;sketch=0;size=6;pointerEvents=1;points=[];fillColor=none;resizable=0;rotatable=0;perimeter=centerPerimeter;snapToPoint=1;" parent="iKwgrwwHFy8eXeqNAH09-1136" vertex="1">
          <mxGeometry x="307" y="334" width="20" height="20" as="geometry" />
        </mxCell>
        <mxCell id="iKwgrwwHFy8eXeqNAH09-1252" style="edgeStyle=orthogonalEdgeStyle;rounded=0;orthogonalLoop=1;jettySize=auto;html=1;entryX=0;entryY=0.512;entryDx=0;entryDy=0;exitX=0.5;exitY=0;exitDx=0;exitDy=0;entryPerimeter=0;" parent="iKwgrwwHFy8eXeqNAH09-1136" source="iKwgrwwHFy8eXeqNAH09-1247" target="iKwgrwwHFy8eXeqNAH09-1205" edge="1">
          <mxGeometry relative="1" as="geometry">
            <mxPoint x="338.75" y="364" as="sourcePoint" />
            <mxPoint x="353.55999999999995" y="364" as="targetPoint" />
            <Array as="points">
              <mxPoint x="354" y="351" />
            </Array>
          </mxGeometry>
        </mxCell>
        <mxCell id="iKwgrwwHFy8eXeqNAH09-1253" value="" style="group" parent="iKwgrwwHFy8eXeqNAH09-1136" vertex="1" connectable="0">
          <mxGeometry x="335.25" y="375" width="13.5" height="30" as="geometry" />
        </mxCell>
        <mxCell id="iKwgrwwHFy8eXeqNAH09-1254" value="" style="shape=trapezoid;perimeter=trapezoidPerimeter;whiteSpace=wrap;html=1;fixedSize=1;shadow=1;strokeColor=#6c8ebf;align=center;verticalAlign=middle;fontFamily=Helvetica;fontSize=18;fillColor=#dae8fc;rotation=90;container=0;size=10;" parent="iKwgrwwHFy8eXeqNAH09-1253" vertex="1">
          <mxGeometry x="-8.25" y="10" width="30" height="10" as="geometry" />
        </mxCell>
        <mxCell id="iKwgrwwHFy8eXeqNAH09-1257" style="edgeStyle=orthogonalEdgeStyle;rounded=0;orthogonalLoop=1;jettySize=auto;html=1;entryX=0.341;entryY=1.002;entryDx=0;entryDy=0;entryPerimeter=0;" parent="iKwgrwwHFy8eXeqNAH09-1136" source="iKwgrwwHFy8eXeqNAH09-1256" target="iKwgrwwHFy8eXeqNAH09-1254" edge="1">
          <mxGeometry relative="1" as="geometry" />
        </mxCell>
        <mxCell id="iKwgrwwHFy8eXeqNAH09-1256" value="" style="shape=waypoint;sketch=0;size=6;pointerEvents=1;points=[];fillColor=none;resizable=0;rotatable=0;perimeter=centerPerimeter;snapToPoint=1;" parent="iKwgrwwHFy8eXeqNAH09-1136" vertex="1">
          <mxGeometry x="307" y="375" width="20" height="20" as="geometry" />
        </mxCell>
        <mxCell id="iKwgrwwHFy8eXeqNAH09-1258" style="edgeStyle=orthogonalEdgeStyle;rounded=0;orthogonalLoop=1;jettySize=auto;html=1;entryX=0;entryY=0.5;entryDx=0;entryDy=0;exitX=0.75;exitY=0;exitDx=0;exitDy=0;jumpStyle=arc;" parent="iKwgrwwHFy8eXeqNAH09-1136" source="iKwgrwwHFy8eXeqNAH09-1218" target="iKwgrwwHFy8eXeqNAH09-1247" edge="1">
          <mxGeometry relative="1" as="geometry">
            <Array as="points">
              <mxPoint x="159" y="280" />
              <mxPoint x="334" y="280" />
            </Array>
          </mxGeometry>
        </mxCell>
        <mxCell id="iKwgrwwHFy8eXeqNAH09-1259" value="" style="endArrow=none;html=1;rounded=0;entryX=0.5;entryY=1;entryDx=0;entryDy=0;" parent="iKwgrwwHFy8eXeqNAH09-1136" source="iKwgrwwHFy8eXeqNAH09-1250" target="iKwgrwwHFy8eXeqNAH09-1245" edge="1">
          <mxGeometry width="50" height="50" relative="1" as="geometry">
            <mxPoint x="286.5" y="380" as="sourcePoint" />
            <mxPoint x="336.5" y="330" as="targetPoint" />
          </mxGeometry>
        </mxCell>
        <mxCell id="iKwgrwwHFy8eXeqNAH09-1261" style="edgeStyle=orthogonalEdgeStyle;rounded=0;orthogonalLoop=1;jettySize=auto;html=1;entryX=0;entryY=0.5;entryDx=0;entryDy=0;" parent="iKwgrwwHFy8eXeqNAH09-1136" source="iKwgrwwHFy8eXeqNAH09-1260" target="iKwgrwwHFy8eXeqNAH09-1254" edge="1">
          <mxGeometry relative="1" as="geometry">
            <Array as="points">
              <mxPoint x="342" y="326" />
            </Array>
          </mxGeometry>
        </mxCell>
        <mxCell id="iKwgrwwHFy8eXeqNAH09-1260" value="" style="shape=waypoint;sketch=0;size=6;pointerEvents=1;points=[];fillColor=none;resizable=0;rotatable=0;perimeter=centerPerimeter;snapToPoint=1;" parent="iKwgrwwHFy8eXeqNAH09-1136" vertex="1">
          <mxGeometry x="323.75" y="316" width="20" height="20" as="geometry" />
        </mxCell>
        <mxCell id="iKwgrwwHFy8eXeqNAH09-1267" style="edgeStyle=orthogonalEdgeStyle;rounded=0;orthogonalLoop=1;jettySize=auto;html=1;entryX=0.858;entryY=1.009;entryDx=0;entryDy=0;entryPerimeter=0;exitX=1;exitY=0.5;exitDx=0;exitDy=0;jumpStyle=arc;" parent="iKwgrwwHFy8eXeqNAH09-1136" source="iKwgrwwHFy8eXeqNAH09-1262" target="iKwgrwwHFy8eXeqNAH09-1266" edge="1">
          <mxGeometry relative="1" as="geometry">
            <mxPoint x="76" y="325.0000000000002" as="sourcePoint" />
            <mxPoint x="157" y="234.99999999999977" as="targetPoint" />
            <Array as="points">
              <mxPoint x="102" y="320" />
              <mxPoint x="102" y="240" />
              <mxPoint x="157" y="240" />
              <mxPoint x="157" y="231" />
            </Array>
          </mxGeometry>
        </mxCell>
        <mxCell id="iKwgrwwHFy8eXeqNAH09-1262" value="&lt;div style=&quot;line-height: 80%;&quot;&gt;&lt;span style=&quot;font-size: 13px;&quot;&gt;Debug&lt;/span&gt;&lt;/div&gt;&lt;div style=&quot;line-height: 80%;&quot;&gt;&lt;span style=&quot;font-size: 13px;&quot;&gt;Interface&lt;/span&gt;&lt;/div&gt;" style="whiteSpace=wrap;html=1;shadow=1;fontSize=18;fillColor=#dae8fc;strokeColor=#6c8ebf;fontStyle=1" parent="iKwgrwwHFy8eXeqNAH09-1136" vertex="1">
          <mxGeometry x="21" y="300" width="60" height="40" as="geometry" />
        </mxCell>
        <mxCell id="iKwgrwwHFy8eXeqNAH09-1143" style="edgeStyle=orthogonalEdgeStyle;rounded=0;orthogonalLoop=1;jettySize=auto;html=1;entryX=0;entryY=0.5;entryDx=0;entryDy=0;jumpStyle=arc;exitX=1;exitY=0.5;exitDx=0;exitDy=0;" parent="iKwgrwwHFy8eXeqNAH09-1136" source="iKwgrwwHFy8eXeqNAH09-1145" target="iKwgrwwHFy8eXeqNAH09-1147" edge="1">
          <mxGeometry relative="1" as="geometry" />
        </mxCell>
        <mxCell id="iKwgrwwHFy8eXeqNAH09-1265" value="" style="group" parent="iKwgrwwHFy8eXeqNAH09-1136" vertex="1" connectable="0">
          <mxGeometry x="160.25" y="205" width="13.5" height="30" as="geometry" />
        </mxCell>
        <mxCell id="iKwgrwwHFy8eXeqNAH09-1266" value="" style="shape=trapezoid;perimeter=trapezoidPerimeter;whiteSpace=wrap;html=1;fixedSize=1;shadow=1;strokeColor=#6c8ebf;align=center;verticalAlign=middle;fontFamily=Helvetica;fontSize=18;fillColor=#dae8fc;rotation=90;container=0;size=10;" parent="iKwgrwwHFy8eXeqNAH09-1265" vertex="1">
          <mxGeometry x="-8.25" y="10" width="30" height="10" as="geometry" />
        </mxCell>
        <mxCell id="iKwgrwwHFy8eXeqNAH09-1270" value="" style="endArrow=classic;html=1;rounded=0;" parent="iKwgrwwHFy8eXeqNAH09-1136" edge="1">
          <mxGeometry width="50" height="50" relative="1" as="geometry">
            <mxPoint x="151" y="214.79000000000002" as="sourcePoint" />
            <mxPoint x="162" y="214.79000000000002" as="targetPoint" />
          </mxGeometry>
        </mxCell>
        <mxCell id="iKwgrwwHFy8eXeqNAH09-1268" style="edgeStyle=orthogonalEdgeStyle;rounded=0;orthogonalLoop=1;jettySize=auto;html=1;entryX=0;entryY=0.25;entryDx=0;entryDy=0;jumpStyle=arc;" parent="iKwgrwwHFy8eXeqNAH09-1136" source="iKwgrwwHFy8eXeqNAH09-1266" target="iKwgrwwHFy8eXeqNAH09-1151" edge="1">
          <mxGeometry relative="1" as="geometry" />
        </mxCell>
        <mxCell id="iKwgrwwHFy8eXeqNAH09-1272" style="edgeStyle=orthogonalEdgeStyle;rounded=0;orthogonalLoop=1;jettySize=auto;html=1;entryX=1;entryY=0.5;entryDx=0;entryDy=0;jumpStyle=arc;" parent="iKwgrwwHFy8eXeqNAH09-1136" source="iKwgrwwHFy8eXeqNAH09-1271" target="iKwgrwwHFy8eXeqNAH09-1266" edge="1">
          <mxGeometry relative="1" as="geometry">
            <Array as="points">
              <mxPoint x="167" y="250" />
            </Array>
          </mxGeometry>
        </mxCell>
        <mxCell id="iKwgrwwHFy8eXeqNAH09-1271" value="" style="shape=waypoint;sketch=0;size=6;pointerEvents=1;points=[];fillColor=none;resizable=0;rotatable=0;perimeter=centerPerimeter;snapToPoint=1;" parent="iKwgrwwHFy8eXeqNAH09-1136" vertex="1">
          <mxGeometry x="87" y="240" width="20" height="20" as="geometry" />
        </mxCell>
        <mxCell id="U4OhBhmkpJD2XP-6xcDB-39" style="edgeStyle=orthogonalEdgeStyle;rounded=0;orthogonalLoop=1;jettySize=auto;html=1;entryX=1;entryY=0.5;entryDx=0;entryDy=0;" edge="1" parent="iKwgrwwHFy8eXeqNAH09-1136" source="U4OhBhmkpJD2XP-6xcDB-37" target="iKwgrwwHFy8eXeqNAH09-1158">
          <mxGeometry relative="1" as="geometry">
            <Array as="points">
              <mxPoint x="85" y="260" />
            </Array>
          </mxGeometry>
        </mxCell>
        <mxCell id="U4OhBhmkpJD2XP-6xcDB-54" style="edgeStyle=orthogonalEdgeStyle;rounded=0;orthogonalLoop=1;jettySize=auto;html=1;entryX=0.5;entryY=1;entryDx=0;entryDy=0;" edge="1" parent="iKwgrwwHFy8eXeqNAH09-1136" source="U4OhBhmkpJD2XP-6xcDB-37" target="iKwgrwwHFy8eXeqNAH09-1155">
          <mxGeometry relative="1" as="geometry">
            <mxPoint x="95.00000000000023" y="220" as="sourcePoint" />
            <mxPoint x="81" y="140" as="targetPoint" />
            <Array as="points">
              <mxPoint x="85" y="186" />
              <mxPoint x="111" y="186" />
            </Array>
          </mxGeometry>
        </mxCell>
        <mxCell id="U4OhBhmkpJD2XP-6xcDB-37" value="" style="shape=waypoint;sketch=0;size=6;pointerEvents=1;points=[];fillColor=none;resizable=0;rotatable=0;perimeter=centerPerimeter;snapToPoint=1;" vertex="1" parent="iKwgrwwHFy8eXeqNAH09-1136">
          <mxGeometry x="75" y="210" width="20" height="20" as="geometry" />
        </mxCell>
        <mxCell id="iKwgrwwHFy8eXeqNAH09-2181" value="Button Up&lt;div&gt;&lt;b&gt;BTNU(F15)&lt;/b&gt;&lt;/div&gt;" style="whiteSpace=wrap;html=1;shadow=1;fontSize=16;fillColor=#f5f5f5;strokeColor=#666666;" parent="1" vertex="1">
          <mxGeometry x="40.5" y="620" width="120" height="40" as="geometry" />
        </mxCell>
        <mxCell id="iKwgrwwHFy8eXeqNAH09-2182" value="&lt;div style=&quot;line-height: 90%;&quot;&gt;Reset button&lt;div&gt;&lt;b&gt;CPU_RESET(G4)&lt;/b&gt;&lt;/div&gt;&lt;/div&gt;" style="whiteSpace=wrap;html=1;shadow=1;fontSize=18;fillColor=#f5f5f5;strokeColor=#666666;fontColor=#000000;" parent="1" vertex="1">
          <mxGeometry x="4.5" y="960" width="160" height="40" as="geometry" />
        </mxCell>
        <mxCell id="iKwgrwwHFy8eXeqNAH09-2183" value="Button Center&lt;div&gt;&lt;b&gt;BTNC(B22)&lt;/b&gt;&lt;/div&gt;" style="whiteSpace=wrap;html=1;shadow=1;fontSize=16;fillColor=#f5f5f5;strokeColor=#666666;" parent="1" vertex="1">
          <mxGeometry x="40.5" y="670" width="120" height="40" as="geometry" />
        </mxCell>
        <mxCell id="iKwgrwwHFy8eXeqNAH09-2184" value="Button Down&lt;div&gt;&lt;b&gt;BTND(D22)&lt;/b&gt;&lt;/div&gt;" style="whiteSpace=wrap;html=1;shadow=1;fontSize=16;fillColor=#f5f5f5;strokeColor=#666666;" parent="1" vertex="1">
          <mxGeometry x="40.5" y="720" width="120" height="40" as="geometry" />
        </mxCell>
        <mxCell id="iKwgrwwHFy8eXeqNAH09-2185" value="Button Left&lt;div&gt;&lt;b&gt;BTNL(C22)&lt;/b&gt;&lt;/div&gt;" style="whiteSpace=wrap;html=1;shadow=1;fontSize=16;fillColor=#f5f5f5;strokeColor=#666666;" parent="1" vertex="1">
          <mxGeometry x="40.5" y="770" width="120" height="40" as="geometry" />
        </mxCell>
        <mxCell id="iKwgrwwHFy8eXeqNAH09-2191" value="Button Right&lt;div&gt;&lt;b&gt;BTNR(D14)&lt;/b&gt;&lt;/div&gt;" style="whiteSpace=wrap;html=1;shadow=1;fontSize=16;fillColor=#f5f5f5;strokeColor=#666666;" parent="1" vertex="1">
          <mxGeometry x="40.5" y="820" width="120" height="40" as="geometry" />
        </mxCell>
        <mxCell id="iKwgrwwHFy8eXeqNAH09-2193" value="&lt;b&gt;&lt;font style=&quot;font-size: 22px;&quot;&gt;46F5SP_SoC&lt;/font&gt;&lt;/b&gt;" style="text;html=1;align=center;verticalAlign=top;whiteSpace=wrap;rounded=0;labelPosition=center;verticalLabelPosition=middle;fontSize=18;" parent="1" vertex="1">
          <mxGeometry x="200" y="480" width="150" height="40" as="geometry" />
        </mxCell>
        <mxCell id="iKwgrwwHFy8eXeqNAH09-2176" value="&lt;div style=&quot;line-height: 90%;&quot;&gt;&lt;b&gt;&lt;font&gt;Button&lt;br&gt;&lt;/font&gt;&lt;/b&gt;&lt;div&gt;&lt;b&gt;&lt;font&gt;Controller&lt;/font&gt;&lt;/b&gt;&lt;/div&gt;&lt;div&gt;&lt;b&gt;&lt;font style=&quot;line-height: 80%;&quot;&gt;&lt;br&gt;&lt;/font&gt;&lt;/b&gt;&lt;/div&gt;&lt;div&gt;&lt;b&gt;&lt;font style=&quot;line-height: 80%;&quot;&gt;&lt;br&gt;&lt;/font&gt;&lt;/b&gt;&lt;/div&gt;&lt;div&gt;&lt;b&gt;&lt;font style=&quot;font-size: 16px; line-height: 80%;&quot;&gt;&lt;br&gt;&lt;/font&gt;&lt;/b&gt;&lt;/div&gt;&lt;/div&gt;" style="whiteSpace=wrap;html=1;shadow=1;fontSize=18;fillColor=#f5f5f5;strokeColor=#666666;" parent="1" vertex="1">
          <mxGeometry x="250" y="630" width="100" height="320" as="geometry" />
        </mxCell>
        <mxCell id="iKwgrwwHFy8eXeqNAH09-2177" value="CLK" style="text;html=1;align=right;verticalAlign=middle;whiteSpace=wrap;rounded=0;" parent="1" vertex="1">
          <mxGeometry x="300" y="610" width="40" height="20" as="geometry" />
        </mxCell>
        <mxCell id="iKwgrwwHFy8eXeqNAH09-2178" style="edgeStyle=elbowEdgeStyle;rounded=0;html=1;startArrow=none;startFill=0;jettySize=auto;orthogonalLoop=1;fontSize=18;elbow=vertical;entryX=0;entryY=0.5;entryDx=0;entryDy=0;" parent="1" target="iKwgrwwHFy8eXeqNAH09-2179" edge="1">
          <mxGeometry relative="1" as="geometry">
            <mxPoint x="1500" y="650" as="sourcePoint" />
            <mxPoint x="1310" y="660" as="targetPoint" />
            <Array as="points" />
          </mxGeometry>
        </mxCell>
        <mxCell id="iKwgrwwHFy8eXeqNAH09-2179" value="&lt;b&gt;UART TX&lt;/b&gt;&lt;div&gt;(FTDI VCP)&lt;/div&gt;" style="whiteSpace=wrap;html=1;shadow=1;fontSize=18;fillColor=#d5e8d4;strokeColor=#82b366;" parent="1" vertex="1">
          <mxGeometry x="1600" y="620" width="120" height="60" as="geometry" />
        </mxCell>
        <mxCell id="iKwgrwwHFy8eXeqNAH09-2180" value="&lt;b&gt;LED&lt;/b&gt;s [0] - [7]" style="whiteSpace=wrap;html=1;shadow=1;fontSize=18;fillColor=#d5e8d4;strokeColor=#82b366;" parent="1" vertex="1">
          <mxGeometry x="1600" y="750" width="120" height="60" as="geometry" />
        </mxCell>
        <mxCell id="iKwgrwwHFy8eXeqNAH09-2186" value="" style="endArrow=classic;html=1;rounded=0;exitX=1;exitY=0.5;exitDx=0;exitDy=0;" parent="1" source="iKwgrwwHFy8eXeqNAH09-2181" edge="1">
          <mxGeometry width="50" height="50" relative="1" as="geometry">
            <mxPoint x="880" y="690" as="sourcePoint" />
            <mxPoint x="220" y="640" as="targetPoint" />
            <Array as="points" />
          </mxGeometry>
        </mxCell>
        <mxCell id="iKwgrwwHFy8eXeqNAH09-2187" value="" style="endArrow=classic;html=1;rounded=0;exitX=1;exitY=0.5;exitDx=0;exitDy=0;" parent="1" source="iKwgrwwHFy8eXeqNAH09-2183" edge="1">
          <mxGeometry width="50" height="50" relative="1" as="geometry">
            <mxPoint x="830" y="700" as="sourcePoint" />
            <mxPoint x="220" y="690" as="targetPoint" />
          </mxGeometry>
        </mxCell>
        <mxCell id="iKwgrwwHFy8eXeqNAH09-2188" value="" style="endArrow=classic;html=1;rounded=0;exitX=1;exitY=0.5;exitDx=0;exitDy=0;edgeStyle=orthogonalEdgeStyle;" parent="1" source="iKwgrwwHFy8eXeqNAH09-2184" edge="1">
          <mxGeometry width="50" height="50" relative="1" as="geometry">
            <mxPoint x="830" y="759.8" as="sourcePoint" />
            <mxPoint x="220" y="740" as="targetPoint" />
          </mxGeometry>
        </mxCell>
        <mxCell id="iKwgrwwHFy8eXeqNAH09-2189" value="" style="endArrow=classic;html=1;rounded=0;exitX=1;exitY=0.5;exitDx=0;exitDy=0;" parent="1" source="iKwgrwwHFy8eXeqNAH09-2185" edge="1">
          <mxGeometry width="50" height="50" relative="1" as="geometry">
            <mxPoint x="830" y="820" as="sourcePoint" />
            <mxPoint x="220" y="790" as="targetPoint" />
          </mxGeometry>
        </mxCell>
        <mxCell id="iKwgrwwHFy8eXeqNAH09-2190" value="" style="endArrow=classic;html=1;rounded=0;exitX=1;exitY=0.5;exitDx=0;exitDy=0;" parent="1" source="iKwgrwwHFy8eXeqNAH09-2182" edge="1">
          <mxGeometry width="50" height="50" relative="1" as="geometry">
            <mxPoint x="830" y="975" as="sourcePoint" />
            <mxPoint x="220" y="980" as="targetPoint" />
          </mxGeometry>
        </mxCell>
        <mxCell id="iKwgrwwHFy8eXeqNAH09-2192" style="edgeStyle=orthogonalEdgeStyle;rounded=0;orthogonalLoop=1;jettySize=auto;html=1;exitX=1;exitY=0.5;exitDx=0;exitDy=0;" parent="1" source="iKwgrwwHFy8eXeqNAH09-2191" edge="1">
          <mxGeometry relative="1" as="geometry">
            <mxPoint x="220" y="840" as="targetPoint" />
          </mxGeometry>
        </mxCell>
        <mxCell id="iKwgrwwHFy8eXeqNAH09-2194" value="" style="endArrow=classic;html=1;rounded=0;edgeStyle=orthogonalEdgeStyle;dashed=1;" parent="1" edge="1">
          <mxGeometry width="50" height="50" relative="1" as="geometry">
            <mxPoint x="220" y="640" as="sourcePoint" />
            <mxPoint x="250" y="640" as="targetPoint" />
            <Array as="points">
              <mxPoint x="230" y="640" />
            </Array>
          </mxGeometry>
        </mxCell>
        <mxCell id="iKwgrwwHFy8eXeqNAH09-2195" value="" style="endArrow=classic;html=1;rounded=0;edgeStyle=orthogonalEdgeStyle;entryX=0.083;entryY=0.214;entryDx=0;entryDy=0;entryPerimeter=0;dashed=1;" parent="1" edge="1">
          <mxGeometry width="50" height="50" relative="1" as="geometry">
            <mxPoint x="220" y="690" as="sourcePoint" />
            <mxPoint x="250" y="690" as="targetPoint" />
            <Array as="points">
              <mxPoint x="230" y="690" />
            </Array>
          </mxGeometry>
        </mxCell>
        <mxCell id="iKwgrwwHFy8eXeqNAH09-2196" value="" style="endArrow=classic;html=1;rounded=0;edgeStyle=orthogonalEdgeStyle;entryX=0.083;entryY=0.214;entryDx=0;entryDy=0;entryPerimeter=0;dashed=1;" parent="1" edge="1">
          <mxGeometry width="50" height="50" relative="1" as="geometry">
            <mxPoint x="220" y="740" as="sourcePoint" />
            <mxPoint x="250" y="740" as="targetPoint" />
            <Array as="points">
              <mxPoint x="230" y="740" />
            </Array>
          </mxGeometry>
        </mxCell>
        <mxCell id="iKwgrwwHFy8eXeqNAH09-2197" value="" style="endArrow=classic;html=1;rounded=0;edgeStyle=orthogonalEdgeStyle;entryX=0.083;entryY=0.214;entryDx=0;entryDy=0;entryPerimeter=0;dashed=1;" parent="1" edge="1">
          <mxGeometry width="50" height="50" relative="1" as="geometry">
            <mxPoint x="220" y="790" as="sourcePoint" />
            <mxPoint x="250" y="790" as="targetPoint" />
            <Array as="points">
              <mxPoint x="230" y="790" />
            </Array>
          </mxGeometry>
        </mxCell>
        <mxCell id="iKwgrwwHFy8eXeqNAH09-2198" value="" style="endArrow=classic;html=1;rounded=0;edgeStyle=orthogonalEdgeStyle;entryX=0.083;entryY=0.214;entryDx=0;entryDy=0;entryPerimeter=0;dashed=1;" parent="1" edge="1">
          <mxGeometry width="50" height="50" relative="1" as="geometry">
            <mxPoint x="220" y="840" as="sourcePoint" />
            <mxPoint x="250" y="840" as="targetPoint" />
            <Array as="points">
              <mxPoint x="230" y="840" />
            </Array>
          </mxGeometry>
        </mxCell>
        <mxCell id="iKwgrwwHFy8eXeqNAH09-2216" value="" style="endArrow=classic;html=1;rounded=0;entryX=0;entryY=0.5;entryDx=0;entryDy=0;" parent="1" edge="1">
          <mxGeometry width="50" height="50" relative="1" as="geometry">
            <mxPoint x="310" y="610" as="sourcePoint" />
            <mxPoint x="310" y="630" as="targetPoint" />
          </mxGeometry>
        </mxCell>
        <mxCell id="iKwgrwwHFy8eXeqNAH09-2218" value="RST" style="text;html=1;align=center;verticalAlign=middle;whiteSpace=wrap;rounded=0;" parent="1" vertex="1">
          <mxGeometry x="260" y="610" width="40" height="20" as="geometry" />
        </mxCell>
        <mxCell id="iKwgrwwHFy8eXeqNAH09-2219" value="" style="endArrow=classic;html=1;rounded=0;entryX=0;entryY=0.5;entryDx=0;entryDy=0;" parent="1" edge="1">
          <mxGeometry width="50" height="50" relative="1" as="geometry">
            <mxPoint x="295" y="610" as="sourcePoint" />
            <mxPoint x="295" y="630" as="targetPoint" />
          </mxGeometry>
        </mxCell>
        <mxCell id="iKwgrwwHFy8eXeqNAH09-2220" value="" style="endArrow=classic;html=1;rounded=0;entryX=0;entryY=0.5;entryDx=0;entryDy=0;" parent="1" edge="1">
          <mxGeometry width="50" height="50" relative="1" as="geometry">
            <mxPoint x="1298.67" y="490" as="sourcePoint" />
            <mxPoint x="1298.67" y="510" as="targetPoint" />
          </mxGeometry>
        </mxCell>
        <mxCell id="iKwgrwwHFy8eXeqNAH09-2221" value="" style="endArrow=classic;html=1;rounded=0;entryX=0;entryY=0.5;entryDx=0;entryDy=0;" parent="1" edge="1">
          <mxGeometry width="50" height="50" relative="1" as="geometry">
            <mxPoint x="1328.67" y="490" as="sourcePoint" />
            <mxPoint x="1328.67" y="510" as="targetPoint" />
          </mxGeometry>
        </mxCell>
        <mxCell id="iKwgrwwHFy8eXeqNAH09-2223" value="" style="endArrow=classic;html=1;rounded=0;entryX=0;entryY=0.5;entryDx=0;entryDy=0;" parent="1" edge="1">
          <mxGeometry width="50" height="50" relative="1" as="geometry">
            <mxPoint x="1348.67" y="490" as="sourcePoint" />
            <mxPoint x="1348.67" y="510" as="targetPoint" />
          </mxGeometry>
        </mxCell>
        <mxCell id="iKwgrwwHFy8eXeqNAH09-2224" value="" style="shape=flexArrow;endArrow=classic;html=1;rounded=0;entryX=0;entryY=0.5;entryDx=0;entryDy=0;fillColor=#f5f5f5;strokeColor=#000000;" parent="1" target="iKwgrwwHFy8eXeqNAH09-2180" edge="1">
          <mxGeometry width="50" height="50" relative="1" as="geometry">
            <mxPoint x="1500" y="780" as="sourcePoint" />
            <mxPoint x="1450" y="780" as="targetPoint" />
          </mxGeometry>
        </mxCell>
        <mxCell id="iKwgrwwHFy8eXeqNAH09-2225" value="step_pulse" style="text;html=1;align=right;verticalAlign=middle;whiteSpace=wrap;rounded=0;" parent="1" vertex="1">
          <mxGeometry x="290" y="660" width="60" height="10" as="geometry" />
        </mxCell>
        <mxCell id="iKwgrwwHFy8eXeqNAH09-2230" value="" style="endArrow=classic;html=1;rounded=0;exitX=1;exitY=0.5;exitDx=0;exitDy=0;dashed=1;" parent="1" source="iKwgrwwHFy8eXeqNAH09-2237" edge="1">
          <mxGeometry width="50" height="50" relative="1" as="geometry">
            <mxPoint x="1380.0000000000005" y="650" as="sourcePoint" />
            <mxPoint x="1500" y="650" as="targetPoint" />
          </mxGeometry>
        </mxCell>
        <mxCell id="iKwgrwwHFy8eXeqNAH09-2231" value="btn_center" style="text;html=1;align=left;verticalAlign=middle;whiteSpace=wrap;rounded=0;" parent="1" vertex="1">
          <mxGeometry x="250" y="680" width="60" height="20" as="geometry" />
        </mxCell>
        <mxCell id="iKwgrwwHFy8eXeqNAH09-2232" value="btn_up" style="text;html=1;align=left;verticalAlign=middle;whiteSpace=wrap;rounded=0;" parent="1" vertex="1">
          <mxGeometry x="250" y="630" width="60" height="20" as="geometry" />
        </mxCell>
        <mxCell id="iKwgrwwHFy8eXeqNAH09-2233" value="btn_down" style="text;html=1;align=left;verticalAlign=middle;whiteSpace=wrap;rounded=0;" parent="1" vertex="1">
          <mxGeometry x="250" y="730" width="60" height="20" as="geometry" />
        </mxCell>
        <mxCell id="iKwgrwwHFy8eXeqNAH09-2234" value="btn_left" style="text;html=1;align=left;verticalAlign=middle;whiteSpace=wrap;rounded=0;" parent="1" vertex="1">
          <mxGeometry x="250" y="780" width="60" height="20" as="geometry" />
        </mxCell>
        <mxCell id="iKwgrwwHFy8eXeqNAH09-2235" value="btn_right" style="text;html=1;align=left;verticalAlign=middle;whiteSpace=wrap;rounded=0;" parent="1" vertex="1">
          <mxGeometry x="250" y="830" width="60" height="20" as="geometry" />
        </mxCell>
        <mxCell id="iKwgrwwHFy8eXeqNAH09-2275" style="edgeStyle=orthogonalEdgeStyle;rounded=0;orthogonalLoop=1;jettySize=auto;html=1;entryX=0.5;entryY=1;entryDx=0;entryDy=0;exitX=1;exitY=0.5;exitDx=0;exitDy=0;jumpStyle=arc;" parent="1" source="iKwgrwwHFy8eXeqNAH09-2248" target="iKwgrwwHFy8eXeqNAH09-2237" edge="1">
          <mxGeometry relative="1" as="geometry">
            <Array as="points">
              <mxPoint x="1335" y="1180" />
              <mxPoint x="1335" y="1130" />
              <mxPoint x="1390" y="1130" />
              <mxPoint x="1390" y="1080" />
              <mxPoint x="1430" y="1080" />
            </Array>
            <mxPoint x="1230.588235294117" y="860.0000000000005" as="sourcePoint" />
            <mxPoint x="1290.0000000000005" y="660" as="targetPoint" />
          </mxGeometry>
        </mxCell>
        <mxCell id="iKwgrwwHFy8eXeqNAH09-2276" style="edgeStyle=orthogonalEdgeStyle;rounded=0;orthogonalLoop=1;jettySize=auto;html=1;exitX=0;exitY=0.5;exitDx=0;exitDy=0;entryX=1;entryY=0.25;entryDx=0;entryDy=0;jumpStyle=arc;" parent="1" source="iKwgrwwHFy8eXeqNAH09-2237" target="iKwgrwwHFy8eXeqNAH09-2248" edge="1">
          <mxGeometry relative="1" as="geometry">
            <Array as="points">
              <mxPoint x="1380" y="650" />
              <mxPoint x="1380" y="1120" />
              <mxPoint x="1320" y="1120" />
              <mxPoint x="1320" y="1165" />
            </Array>
            <mxPoint x="1380.0000000000005" y="690" as="sourcePoint" />
            <mxPoint x="1190" y="820" as="targetPoint" />
          </mxGeometry>
        </mxCell>
        <mxCell id="iKwgrwwHFy8eXeqNAH09-2277" value="" style="endArrow=classic;html=1;rounded=0;dashed=1;" parent="1" edge="1">
          <mxGeometry width="50" height="50" relative="1" as="geometry">
            <mxPoint x="350" y="665" as="sourcePoint" />
            <mxPoint x="370" y="665" as="targetPoint" />
          </mxGeometry>
        </mxCell>
        <mxCell id="iKwgrwwHFy8eXeqNAH09-2278" value="reset_n" style="text;html=1;align=left;verticalAlign=middle;whiteSpace=wrap;rounded=0;strokeColor=default;dashed=1;" parent="1" vertex="1">
          <mxGeometry x="220" y="970" width="40" height="20" as="geometry" />
        </mxCell>
        <mxCell id="iKwgrwwHFy8eXeqNAH09-2279" value="" style="endArrow=classic;html=1;rounded=0;dashed=1;" parent="1" edge="1">
          <mxGeometry width="50" height="50" relative="1" as="geometry">
            <mxPoint x="263" y="979.8800000000001" as="sourcePoint" />
            <mxPoint x="283" y="979.8800000000001" as="targetPoint" />
          </mxGeometry>
        </mxCell>
        <mxCell id="iKwgrwwHFy8eXeqNAH09-2283" style="edgeStyle=orthogonalEdgeStyle;rounded=0;orthogonalLoop=1;jettySize=auto;html=1;entryX=0.5;entryY=0;entryDx=0;entryDy=0;exitX=0.5;exitY=1;exitDx=0;exitDy=0;" parent="1" source="iKwgrwwHFy8eXeqNAH09-2176" target="iKwgrwwHFy8eXeqNAH09-2248" edge="1">
          <mxGeometry relative="1" as="geometry">
            <Array as="points">
              <mxPoint x="300" y="1140" />
            </Array>
            <mxPoint x="350" y="940" as="sourcePoint" />
            <mxPoint x="1350.0000000000005" y="989.9999999999995" as="targetPoint" />
          </mxGeometry>
        </mxCell>
        <mxCell id="iKwgrwwHFy8eXeqNAH09-2294" style="edgeStyle=orthogonalEdgeStyle;rounded=0;orthogonalLoop=1;jettySize=auto;html=1;exitX=1;exitY=0.5;exitDx=0;exitDy=0;jumpStyle=arc;" parent="1" source="iKwgrwwHFy8eXeqNAH09-2301" edge="1">
          <mxGeometry relative="1" as="geometry">
            <mxPoint x="1500" y="780" as="targetPoint" />
            <Array as="points">
              <mxPoint x="1480" y="1180" />
              <mxPoint x="1480" y="780" />
            </Array>
            <mxPoint x="1450" y="855" as="sourcePoint" />
          </mxGeometry>
        </mxCell>
        <mxCell id="iKwgrwwHFy8eXeqNAH09-2313" style="edgeStyle=orthogonalEdgeStyle;rounded=0;orthogonalLoop=1;jettySize=auto;html=1;entryX=1;entryY=0.75;entryDx=0;entryDy=0;exitX=0;exitY=0.75;exitDx=0;exitDy=0;jumpStyle=arc;" parent="1" source="iKwgrwwHFy8eXeqNAH09-2301" target="iKwgrwwHFy8eXeqNAH09-2248" edge="1">
          <mxGeometry relative="1" as="geometry">
            <Array as="points">
              <mxPoint x="390" y="1195" />
              <mxPoint x="390" y="1195" />
            </Array>
            <mxPoint x="1450.0000000000005" y="939.9999999999995" as="sourcePoint" />
            <mxPoint x="1080.0000000000005" y="974.9999999999995" as="targetPoint" />
          </mxGeometry>
        </mxCell>
        <mxCell id="iKwgrwwHFy8eXeqNAH09-2317" value="" style="endArrow=classic;html=1;rounded=0;dashed=1;" parent="1" edge="1">
          <mxGeometry width="50" height="50" relative="1" as="geometry">
            <mxPoint x="1460" y="780" as="sourcePoint" />
            <mxPoint x="1500" y="780" as="targetPoint" />
          </mxGeometry>
        </mxCell>
        <mxCell id="iKwgrwwHFy8eXeqNAH09-2301" value="&lt;div style=&quot;line-height: 90%;&quot;&gt;&lt;div&gt;&lt;b&gt;&lt;font style=&quot;font-size: 17px;&quot;&gt;Benchmark&lt;/font&gt;&lt;/b&gt;&lt;/div&gt;&lt;div&gt;&lt;b&gt;&lt;font style=&quot;font-size: 17px;&quot;&gt;Controller&lt;/font&gt;&lt;/b&gt;&lt;/div&gt;&lt;/div&gt;" style="whiteSpace=wrap;html=1;shadow=1;fontSize=18;fillColor=#f5f5f5;strokeColor=#666666;" parent="1" vertex="1">
          <mxGeometry x="1350" y="1140" width="100" height="60" as="geometry" />
        </mxCell>
        <mxCell id="iKwgrwwHFy8eXeqNAH09-2237" value="&lt;div style=&quot;line-height: 80%;&quot;&gt;&lt;div&gt;&lt;b style=&quot;background-color: transparent; color: light-dark(rgb(0, 0, 0), rgb(255, 255, 255));&quot;&gt;UART TX&lt;/b&gt;&lt;/div&gt;&lt;/div&gt;" style="whiteSpace=wrap;html=1;shadow=1;fontSize=18;fillColor=#f5f5f5;strokeColor=#666666;" parent="1" vertex="1">
          <mxGeometry x="1390" y="630" width="80" height="40" as="geometry" />
        </mxCell>
        <mxCell id="iKwgrwwHFy8eXeqNAH09-2452" style="edgeStyle=orthogonalEdgeStyle;rounded=0;orthogonalLoop=1;jettySize=auto;html=1;entryX=0.75;entryY=0;entryDx=0;entryDy=0;jumpStyle=arc;" parent="1" source="iKwgrwwHFy8eXeqNAH09-2451" target="iKwgrwwHFy8eXeqNAH09-2248" edge="1">
          <mxGeometry relative="1" as="geometry">
            <Array as="points">
              <mxPoint x="1310" y="1110" />
              <mxPoint x="1310" y="1130" />
              <mxPoint x="330" y="1130" />
            </Array>
          </mxGeometry>
        </mxCell>
        <mxCell id="iKwgrwwHFy8eXeqNAH09-2451" value="" style="shape=waypoint;sketch=0;size=6;pointerEvents=1;points=[];fillColor=none;resizable=0;rotatable=0;perimeter=centerPerimeter;snapToPoint=1;" parent="1" vertex="1">
          <mxGeometry x="1390" y="1100" width="20" height="20" as="geometry" />
        </mxCell>
        <mxCell id="U4OhBhmkpJD2XP-6xcDB-21" style="edgeStyle=orthogonalEdgeStyle;rounded=0;orthogonalLoop=1;jettySize=auto;html=1;entryX=0.5;entryY=0;entryDx=0;entryDy=0;exitX=1;exitY=0.5;exitDx=0;exitDy=0;jumpStyle=arc;" edge="1" parent="1" source="iKwgrwwHFy8eXeqNAH09-2200" target="iKwgrwwHFy8eXeqNAH09-2301">
          <mxGeometry relative="1" as="geometry" />
        </mxCell>
        <mxCell id="iKwgrwwHFy8eXeqNAH09-2201" value="" style="triangle;whiteSpace=wrap;html=1;fillColor=#F5F5F5;fontColor=#333333;strokeColor=#000000;rotation=90;" parent="1" vertex="1">
          <mxGeometry x="1293.67" y="505" width="10" height="20" as="geometry" />
        </mxCell>
        <mxCell id="iKwgrwwHFy8eXeqNAH09-2202" value="" style="triangle;whiteSpace=wrap;html=1;fillColor=#f8cecc;strokeColor=#b85450;rotation=90;" parent="1" vertex="1">
          <mxGeometry x="1323.67" y="505" width="10" height="20" as="geometry" />
        </mxCell>
        <mxCell id="iKwgrwwHFy8eXeqNAH09-2203" value="CLK" style="text;html=1;align=center;verticalAlign=middle;whiteSpace=wrap;rounded=0;" parent="1" vertex="1">
          <mxGeometry x="1273.67" y="515" width="40" height="20" as="geometry" />
        </mxCell>
        <mxCell id="iKwgrwwHFy8eXeqNAH09-2204" value="&lt;div style=&quot;line-height: 80%;&quot;&gt;CLK&lt;br&gt;Enable&lt;/div&gt;" style="text;html=1;align=center;verticalAlign=middle;whiteSpace=wrap;rounded=0;" parent="1" vertex="1">
          <mxGeometry x="1308.67" y="520" width="40" height="20" as="geometry" />
        </mxCell>
        <mxCell id="iKwgrwwHFy8eXeqNAH09-2248" value="&lt;div style=&quot;line-height: 100%;&quot;&gt;&lt;b style=&quot;background-color: transparent; color: light-dark(rgb(0, 0, 0), rgb(255, 255, 255));&quot;&gt;DebugUART&lt;/b&gt;&lt;/div&gt;&lt;div style=&quot;line-height: 100%;&quot;&gt;&lt;div style=&quot;&quot;&gt;&lt;b&gt;Controller&lt;/b&gt;&lt;/div&gt;&lt;/div&gt;" style="whiteSpace=wrap;html=1;shadow=1;fontSize=18;fillColor=#f5f5f5;strokeColor=#666666;align=center;" parent="1" vertex="1">
          <mxGeometry x="240" y="1150" width="120" height="60" as="geometry" />
        </mxCell>
        <mxCell id="iKwgrwwHFy8eXeqNAH09-2454" style="edgeStyle=orthogonalEdgeStyle;rounded=0;orthogonalLoop=1;jettySize=auto;html=1;entryX=0.5;entryY=1;entryDx=0;entryDy=0;jumpStyle=arc;" parent="1" source="iKwgrwwHFy8eXeqNAH09-2453" target="iKwgrwwHFy8eXeqNAH09-2301" edge="1">
          <mxGeometry relative="1" as="geometry">
            <Array as="points">
              <mxPoint x="230" y="1130" />
              <mxPoint x="230" y="1220" />
              <mxPoint x="1400" y="1220" />
            </Array>
          </mxGeometry>
        </mxCell>
        <mxCell id="iKwgrwwHFy8eXeqNAH09-2453" value="" style="shape=waypoint;sketch=0;size=6;pointerEvents=1;points=[];fillColor=none;resizable=0;rotatable=0;perimeter=centerPerimeter;snapToPoint=1;" parent="1" vertex="1">
          <mxGeometry x="290" y="1120" width="20" height="20" as="geometry" />
        </mxCell>
        <mxCell id="iKwgrwwHFy8eXeqNAH09-2455" value="&lt;font&gt;&lt;b&gt;[RV32I46F_5SP] &lt;br&gt;46F5SP Architecture&lt;/b&gt;&lt;/font&gt;" style="text;html=1;align=right;verticalAlign=middle;whiteSpace=wrap;rounded=0;fontSize=19;" parent="1" vertex="1">
          <mxGeometry x="1050" y="1064" width="320" height="30" as="geometry" />
        </mxCell>
        <mxCell id="iKwgrwwHFy8eXeqNAH09-4725" value="" style="group" parent="1" vertex="1" connectable="0">
          <mxGeometry x="1499.5" y="1094" width="253.5" height="140" as="geometry" />
        </mxCell>
        <mxCell id="iKwgrwwHFy8eXeqNAH09-4722" value="&lt;h1 style=&quot;margin-top: 0px;&quot;&gt;&lt;font style=&quot;font-size: 38px;&quot;&gt;basic_RV32s&lt;/font&gt;&lt;/h1&gt;&lt;p&gt;&lt;font style=&quot;font-size: 16px;&quot;&gt;Total Architecture block diagram.&lt;br&gt;4 core designs and 1 SoC design.&lt;/font&gt;&lt;br&gt;&lt;br&gt;&lt;/p&gt;" style="text;html=1;whiteSpace=wrap;overflow=hidden;rounded=0;align=right;" parent="iKwgrwwHFy8eXeqNAH09-4725" vertex="1">
          <mxGeometry width="253.5" height="110" as="geometry" />
        </mxCell>
        <mxCell id="iKwgrwwHFy8eXeqNAH09-4724" value="23:24&amp;nbsp;&lt;b&gt;강현우 &lt;/b&gt;KHWL2025.&amp;nbsp;&lt;div&gt;2024.12.15. ~ 2025.07.12. (土)&lt;/div&gt;" style="text;html=1;align=right;verticalAlign=middle;whiteSpace=wrap;rounded=0;" parent="iKwgrwwHFy8eXeqNAH09-4725" vertex="1">
          <mxGeometry x="48" y="110" width="205" height="30" as="geometry" />
        </mxCell>
        <mxCell id="U4OhBhmkpJD2XP-6xcDB-66" style="edgeStyle=orthogonalEdgeStyle;rounded=0;orthogonalLoop=1;jettySize=auto;html=1;entryX=0.5;entryY=1;entryDx=0;entryDy=0;" edge="1" parent="1" source="U4OhBhmkpJD2XP-6xcDB-56" target="U4OhBhmkpJD2XP-6xcDB-58">
          <mxGeometry relative="1" as="geometry">
            <Array as="points">
              <mxPoint x="500" y="770" />
              <mxPoint x="500" y="730" />
              <mxPoint x="520" y="730" />
            </Array>
          </mxGeometry>
        </mxCell>
        <mxCell id="U4OhBhmkpJD2XP-6xcDB-67" style="edgeStyle=orthogonalEdgeStyle;rounded=0;orthogonalLoop=1;jettySize=auto;html=1;entryX=0;entryY=0.5;entryDx=0;entryDy=0;" edge="1" parent="1" source="U4OhBhmkpJD2XP-6xcDB-56" target="U4OhBhmkpJD2XP-6xcDB-57">
          <mxGeometry relative="1" as="geometry" />
        </mxCell>
        <mxCell id="U4OhBhmkpJD2XP-6xcDB-68" style="edgeStyle=orthogonalEdgeStyle;rounded=0;orthogonalLoop=1;jettySize=auto;html=1;entryX=0.5;entryY=0;entryDx=0;entryDy=0;exitX=1;exitY=0.5;exitDx=0;exitDy=0;" edge="1" parent="1" source="U4OhBhmkpJD2XP-6xcDB-56" target="U4OhBhmkpJD2XP-6xcDB-59">
          <mxGeometry relative="1" as="geometry">
            <Array as="points">
              <mxPoint x="500" y="770" />
              <mxPoint x="500" y="800" />
              <mxPoint x="460" y="800" />
            </Array>
          </mxGeometry>
        </mxCell>
        <mxCell id="U4OhBhmkpJD2XP-6xcDB-56" value="&lt;div style=&quot;line-height: 80%;&quot;&gt;&lt;span style=&quot;font-size: 13px;&quot;&gt;PC&lt;/span&gt;&lt;/div&gt;" style="whiteSpace=wrap;html=1;shadow=1;fontSize=18;fillColor=#f5f5f5;strokeColor=#666666;fontStyle=1" vertex="1" parent="1">
          <mxGeometry x="440" y="750" width="40" height="40" as="geometry" />
        </mxCell>
        <mxCell id="U4OhBhmkpJD2XP-6xcDB-70" style="edgeStyle=orthogonalEdgeStyle;rounded=0;orthogonalLoop=1;jettySize=auto;html=1;entryX=0.25;entryY=1;entryDx=0;entryDy=0;exitX=1;exitY=0.5;exitDx=0;exitDy=0;" edge="1" parent="1" source="U4OhBhmkpJD2XP-6xcDB-57" target="U4OhBhmkpJD2XP-6xcDB-64">
          <mxGeometry relative="1" as="geometry">
            <mxPoint x="560" y="780" as="sourcePoint" />
            <mxPoint x="580" y="780" as="targetPoint" />
            <Array as="points">
              <mxPoint x="570" y="770" />
              <mxPoint x="570" y="770" />
            </Array>
          </mxGeometry>
        </mxCell>
        <mxCell id="U4OhBhmkpJD2XP-6xcDB-57" value="&lt;div style=&quot;line-height: 80%;&quot;&gt;&lt;span style=&quot;font-size: 13px;&quot;&gt;&lt;b&gt;I.MEM&lt;/b&gt;&lt;/span&gt;&lt;/div&gt;" style="whiteSpace=wrap;html=1;shadow=1;fontSize=18;fillColor=#f5f5f5;strokeColor=#666666;align=center;" vertex="1" parent="1">
          <mxGeometry x="520" y="760" width="40" height="20" as="geometry" />
        </mxCell>
        <mxCell id="U4OhBhmkpJD2XP-6xcDB-65" style="edgeStyle=orthogonalEdgeStyle;rounded=0;orthogonalLoop=1;jettySize=auto;html=1;entryX=0;entryY=0.5;entryDx=0;entryDy=0;exitX=0;exitY=0.5;exitDx=0;exitDy=0;" edge="1" parent="1" source="U4OhBhmkpJD2XP-6xcDB-58" target="U4OhBhmkpJD2XP-6xcDB-56">
          <mxGeometry relative="1" as="geometry" />
        </mxCell>
        <mxCell id="U4OhBhmkpJD2XP-6xcDB-58" value="&lt;div style=&quot;line-height: 80%;&quot;&gt;&lt;font style=&quot;font-size: 13px; line-height: 80%;&quot;&gt;PC&lt;/font&gt;&lt;div&gt;&lt;font style=&quot;font-size: 13px; line-height: 80%;&quot;&gt;Controller&lt;/font&gt;&lt;/div&gt;&lt;/div&gt;" style="whiteSpace=wrap;html=1;shadow=1;fontSize=18;fillColor=#f5f5f5;strokeColor=#666666;fontStyle=1" vertex="1" parent="1">
          <mxGeometry x="480" y="660" width="80" height="40" as="geometry" />
        </mxCell>
        <mxCell id="U4OhBhmkpJD2XP-6xcDB-59" value="&lt;div style=&quot;line-height: 80%;&quot;&gt;&lt;span style=&quot;font-size: 13px;&quot;&gt;PC+4&lt;/span&gt;&lt;/div&gt;" style="whiteSpace=wrap;html=1;shadow=1;fontSize=18;fillColor=#f5f5f5;strokeColor=#666666;fontStyle=1" vertex="1" parent="1">
          <mxGeometry x="440" y="820" width="40" height="20" as="geometry" />
        </mxCell>
        <mxCell id="U4OhBhmkpJD2XP-6xcDB-85" style="edgeStyle=orthogonalEdgeStyle;rounded=0;orthogonalLoop=1;jettySize=auto;html=1;entryX=0.5;entryY=0;entryDx=0;entryDy=0;" edge="1" parent="1" source="U4OhBhmkpJD2XP-6xcDB-60" target="U4OhBhmkpJD2XP-6xcDB-61">
          <mxGeometry relative="1" as="geometry" />
        </mxCell>
        <mxCell id="U4OhBhmkpJD2XP-6xcDB-60" value="&lt;div style=&quot;line-height: 80%;&quot;&gt;&lt;span style=&quot;font-size: 13px;&quot;&gt;&lt;b&gt;Exception&lt;/b&gt;&lt;/span&gt;&lt;/div&gt;&lt;div style=&quot;line-height: 80%;&quot;&gt;&lt;span style=&quot;font-size: 13px;&quot;&gt;&lt;b&gt;Detector&lt;/b&gt;&lt;/span&gt;&lt;/div&gt;" style="whiteSpace=wrap;html=1;shadow=1;fontSize=18;fillColor=light-dark(#f5f5f5, #1d293b);strokeColor=light-dark(#666666, #5c79a3);align=center;" vertex="1" parent="1">
          <mxGeometry x="520" y="850" width="70" height="40" as="geometry" />
        </mxCell>
        <mxCell id="U4OhBhmkpJD2XP-6xcDB-61" value="&lt;div style=&quot;line-height: 80%;&quot;&gt;&lt;span style=&quot;font-size: 13px;&quot;&gt;&lt;b&gt;Trap&lt;/b&gt;&lt;/span&gt;&lt;/div&gt;&lt;div style=&quot;line-height: 80%;&quot;&gt;&lt;span style=&quot;font-size: 13px;&quot;&gt;&lt;b&gt;Controller&lt;/b&gt;&lt;/span&gt;&lt;/div&gt;" style="whiteSpace=wrap;html=1;shadow=1;fontSize=18;fillColor=light-dark(#f5f5f5, #1d293b);strokeColor=light-dark(#848484, #5c79a3);align=center;" vertex="1" parent="1">
          <mxGeometry x="520" y="910" width="70" height="40" as="geometry" />
        </mxCell>
        <mxCell id="U4OhBhmkpJD2XP-6xcDB-69" style="edgeStyle=orthogonalEdgeStyle;rounded=0;orthogonalLoop=1;jettySize=auto;html=1;entryX=0.75;entryY=1;entryDx=0;entryDy=0;" edge="1" parent="1" source="U4OhBhmkpJD2XP-6xcDB-62" target="U4OhBhmkpJD2XP-6xcDB-64">
          <mxGeometry relative="1" as="geometry">
            <Array as="points">
              <mxPoint x="510" y="870" />
              <mxPoint x="510" y="800" />
            </Array>
          </mxGeometry>
        </mxCell>
        <mxCell id="U4OhBhmkpJD2XP-6xcDB-62" value="&lt;div style=&quot;line-height: 80%;&quot;&gt;&lt;span style=&quot;font-size: 13px;&quot;&gt;Debug&lt;/span&gt;&lt;/div&gt;&lt;div style=&quot;line-height: 80%;&quot;&gt;&lt;span style=&quot;font-size: 13px;&quot;&gt;Interface&lt;/span&gt;&lt;/div&gt;" style="whiteSpace=wrap;html=1;shadow=1;fontSize=18;fillColor=light-dark(#f5f5f5, #1d293b);strokeColor=light-dark(#666666, #5c79a3);fontStyle=1" vertex="1" parent="1">
          <mxGeometry x="430" y="850" width="60" height="40" as="geometry" />
        </mxCell>
        <mxCell id="U4OhBhmkpJD2XP-6xcDB-72" style="edgeStyle=orthogonalEdgeStyle;rounded=0;orthogonalLoop=1;jettySize=auto;html=1;entryX=0;entryY=0.5;entryDx=0;entryDy=0;exitX=0.5;exitY=0;exitDx=0;exitDy=0;" edge="1" parent="1" source="U4OhBhmkpJD2XP-6xcDB-64" target="U4OhBhmkpJD2XP-6xcDB-71">
          <mxGeometry relative="1" as="geometry">
            <mxPoint x="595" y="785" as="sourcePoint" />
            <mxPoint x="629.9999999999999" y="790" as="targetPoint" />
          </mxGeometry>
        </mxCell>
        <mxCell id="U4OhBhmkpJD2XP-6xcDB-64" value="" style="shape=trapezoid;perimeter=trapezoidPerimeter;whiteSpace=wrap;html=1;fixedSize=1;shadow=1;strokeColor=light-dark(#666666, #5c79a3);align=center;verticalAlign=middle;fontFamily=Helvetica;fontSize=18;fillColor=light-dark(#f5f5f5, #1d293b);rotation=90;container=0;size=15;" vertex="1" parent="1">
          <mxGeometry x="560" y="780" width="60" height="10" as="geometry" />
        </mxCell>
        <mxCell id="U4OhBhmkpJD2XP-6xcDB-96" style="edgeStyle=orthogonalEdgeStyle;rounded=0;orthogonalLoop=1;jettySize=auto;html=1;entryX=0;entryY=0.5;entryDx=0;entryDy=0;" edge="1" parent="1" source="U4OhBhmkpJD2XP-6xcDB-71" target="U4OhBhmkpJD2XP-6xcDB-86">
          <mxGeometry relative="1" as="geometry" />
        </mxCell>
        <mxCell id="U4OhBhmkpJD2XP-6xcDB-71" value="&lt;div style=&quot;line-height: 80%;&quot;&gt;&lt;span style=&quot;font-size: 13px;&quot;&gt;&lt;b&gt;IF/ID&lt;/b&gt;&lt;/span&gt;&lt;/div&gt;&lt;div style=&quot;line-height: 80%;&quot;&gt;&lt;span style=&quot;font-size: 13px;&quot;&gt;&lt;b&gt;&lt;br&gt;&lt;/b&gt;&lt;/span&gt;&lt;/div&gt;&lt;div style=&quot;line-height: 80%;&quot;&gt;&lt;span style=&quot;font-size: 13px;&quot;&gt;&lt;b&gt;&lt;br&gt;&lt;/b&gt;&lt;/span&gt;&lt;/div&gt;&lt;div style=&quot;line-height: 80%;&quot;&gt;&lt;span style=&quot;font-size: 13px;&quot;&gt;&lt;b&gt;&lt;br&gt;&lt;/b&gt;&lt;/span&gt;&lt;/div&gt;&lt;div style=&quot;line-height: 80%;&quot;&gt;&lt;span style=&quot;font-size: 13px;&quot;&gt;&lt;b&gt;&lt;br&gt;&lt;/b&gt;&lt;/span&gt;&lt;/div&gt;&lt;div style=&quot;line-height: 80%;&quot;&gt;&lt;span style=&quot;font-size: 13px;&quot;&gt;&lt;b&gt;&lt;br&gt;&lt;/b&gt;&lt;/span&gt;&lt;/div&gt;" style="whiteSpace=wrap;html=1;shadow=1;fontSize=18;fillColor=#dae8fc;strokeColor=#6c8ebf;align=center;" vertex="1" parent="1">
          <mxGeometry x="630" y="725" width="40" height="120" as="geometry" />
        </mxCell>
        <mxCell id="U4OhBhmkpJD2XP-6xcDB-81" style="edgeStyle=orthogonalEdgeStyle;rounded=0;orthogonalLoop=1;jettySize=auto;html=1;entryX=0.5;entryY=0;entryDx=0;entryDy=0;" edge="1" parent="1" target="U4OhBhmkpJD2XP-6xcDB-58">
          <mxGeometry relative="1" as="geometry">
            <mxPoint x="620" y="640" as="sourcePoint" />
            <mxPoint x="520" y="650" as="targetPoint" />
            <Array as="points">
              <mxPoint x="520" y="640" />
            </Array>
          </mxGeometry>
        </mxCell>
        <mxCell id="U4OhBhmkpJD2XP-6xcDB-74" value="&lt;div style=&quot;line-height: 80%;&quot;&gt;&lt;span style=&quot;font-size: 13px;&quot;&gt;&lt;b&gt;Branch&lt;/b&gt;&lt;/span&gt;&lt;/div&gt;&lt;div style=&quot;line-height: 80%;&quot;&gt;&lt;span style=&quot;font-size: 13px;&quot;&gt;&lt;b&gt;Predictor&lt;/b&gt;&lt;/span&gt;&lt;/div&gt;" style="whiteSpace=wrap;html=1;shadow=1;fontSize=18;fillColor=#dae8fc;strokeColor=#6c8ebf;align=center;" vertex="1" parent="1">
          <mxGeometry x="620" y="620" width="60" height="60" as="geometry" />
        </mxCell>
        <mxCell id="U4OhBhmkpJD2XP-6xcDB-76" value="" style="shape=waypoint;sketch=0;size=6;pointerEvents=1;points=[];fillColor=none;resizable=0;rotatable=0;perimeter=centerPerimeter;snapToPoint=1;" vertex="1" parent="1">
          <mxGeometry x="490" y="760" width="20" height="20" as="geometry" />
        </mxCell>
        <mxCell id="U4OhBhmkpJD2XP-6xcDB-73" style="edgeStyle=orthogonalEdgeStyle;rounded=0;orthogonalLoop=1;jettySize=auto;html=1;entryX=0;entryY=0.75;entryDx=0;entryDy=0;exitX=1;exitY=0.5;exitDx=0;exitDy=0;jumpStyle=arc;" edge="1" parent="1" source="U4OhBhmkpJD2XP-6xcDB-59">
          <mxGeometry relative="1" as="geometry">
            <mxPoint x="480" y="835" as="sourcePoint" />
            <mxPoint x="630" y="830" as="targetPoint" />
          </mxGeometry>
        </mxCell>
        <mxCell id="U4OhBhmkpJD2XP-6xcDB-78" style="edgeStyle=orthogonalEdgeStyle;rounded=0;orthogonalLoop=1;jettySize=auto;html=1;entryX=0.25;entryY=1;entryDx=0;entryDy=0;" edge="1" parent="1" source="U4OhBhmkpJD2XP-6xcDB-77" target="U4OhBhmkpJD2XP-6xcDB-74">
          <mxGeometry relative="1" as="geometry">
            <Array as="points">
              <mxPoint x="580" y="730" />
              <mxPoint x="580" y="700" />
              <mxPoint x="635" y="700" />
            </Array>
          </mxGeometry>
        </mxCell>
        <mxCell id="U4OhBhmkpJD2XP-6xcDB-77" value="" style="shape=waypoint;sketch=0;size=6;pointerEvents=1;points=[];fillColor=none;resizable=0;rotatable=0;perimeter=centerPerimeter;snapToPoint=1;" vertex="1" parent="1">
          <mxGeometry x="510" y="720" width="20" height="20" as="geometry" />
        </mxCell>
        <mxCell id="U4OhBhmkpJD2XP-6xcDB-80" style="edgeStyle=orthogonalEdgeStyle;rounded=0;orthogonalLoop=1;jettySize=auto;html=1;entryX=0.5;entryY=1;entryDx=0;entryDy=0;" edge="1" parent="1" source="U4OhBhmkpJD2XP-6xcDB-79" target="U4OhBhmkpJD2XP-6xcDB-74">
          <mxGeometry relative="1" as="geometry">
            <Array as="points">
              <mxPoint x="570" y="740" />
              <mxPoint x="590" y="740" />
              <mxPoint x="590" y="710" />
              <mxPoint x="650" y="710" />
            </Array>
          </mxGeometry>
        </mxCell>
        <mxCell id="U4OhBhmkpJD2XP-6xcDB-79" value="" style="shape=waypoint;sketch=0;size=6;pointerEvents=1;points=[];fillColor=none;resizable=0;rotatable=0;perimeter=centerPerimeter;snapToPoint=1;" vertex="1" parent="1">
          <mxGeometry x="560" y="760" width="20" height="20" as="geometry" />
        </mxCell>
        <mxCell id="U4OhBhmkpJD2XP-6xcDB-84" style="edgeStyle=orthogonalEdgeStyle;rounded=0;orthogonalLoop=1;jettySize=auto;html=1;entryX=0;entryY=0.75;entryDx=0;entryDy=0;" edge="1" parent="1" source="U4OhBhmkpJD2XP-6xcDB-83" target="U4OhBhmkpJD2XP-6xcDB-60">
          <mxGeometry relative="1" as="geometry">
            <Array as="points">
              <mxPoint x="410" y="640" />
              <mxPoint x="410" y="900" />
              <mxPoint x="500" y="900" />
              <mxPoint x="500" y="880" />
            </Array>
          </mxGeometry>
        </mxCell>
        <mxCell id="U4OhBhmkpJD2XP-6xcDB-83" value="" style="shape=waypoint;sketch=0;size=6;pointerEvents=1;points=[];fillColor=none;resizable=0;rotatable=0;perimeter=centerPerimeter;snapToPoint=1;" vertex="1" parent="1">
          <mxGeometry x="510" y="630" width="20" height="20" as="geometry" />
        </mxCell>
        <mxCell id="U4OhBhmkpJD2XP-6xcDB-86" value="&lt;div style=&quot;line-height: 80%;&quot;&gt;&lt;b style=&quot;font-size: 13px; background-color: transparent; color: light-dark(rgb(0, 0, 0), rgb(255, 255, 255));&quot;&gt;Decoder&lt;/b&gt;&lt;/div&gt;" style="whiteSpace=wrap;html=1;shadow=1;fontSize=18;fillColor=#f5f5f5;strokeColor=#666666;align=center;" vertex="1" parent="1">
          <mxGeometry x="710" y="765" width="60" height="40" as="geometry" />
        </mxCell>
        <mxCell id="U4OhBhmkpJD2XP-6xcDB-87" value="&lt;div style=&quot;line-height: 80%;&quot;&gt;&lt;span style=&quot;font-size: 13px;&quot;&gt;&lt;b&gt;imm&lt;/b&gt;&lt;/span&gt;&lt;/div&gt;&lt;div style=&quot;line-height: 80%;&quot;&gt;&lt;span style=&quot;font-size: 13px;&quot;&gt;&lt;b&gt;gen&lt;/b&gt;&lt;/span&gt;&lt;/div&gt;" style="whiteSpace=wrap;html=1;shadow=1;fontSize=18;fillColor=#f5f5f5;strokeColor=#666666;align=center;" vertex="1" parent="1">
          <mxGeometry x="720" y="850" width="40" height="40" as="geometry" />
        </mxCell>
        <mxCell id="U4OhBhmkpJD2XP-6xcDB-88" value="&lt;div style=&quot;line-height: 80%;&quot;&gt;&lt;span style=&quot;font-size: 13px;&quot;&gt;&lt;b&gt;Control&lt;/b&gt;&lt;/span&gt;&lt;/div&gt;&lt;div style=&quot;line-height: 80%;&quot;&gt;&lt;span style=&quot;font-size: 13px;&quot;&gt;&lt;b&gt;Unit&lt;/b&gt;&lt;/span&gt;&lt;/div&gt;" style="whiteSpace=wrap;html=1;shadow=1;fontSize=18;fillColor=#f5f5f5;strokeColor=#666666;align=center;" vertex="1" parent="1">
          <mxGeometry x="710" y="635" width="60" height="80" as="geometry" />
        </mxCell>
        <mxCell id="U4OhBhmkpJD2XP-6xcDB-89" value="&lt;div style=&quot;line-height: 80%;&quot;&gt;&lt;span style=&quot;font-size: 13px;&quot;&gt;&lt;b&gt;Register&lt;/b&gt;&lt;/span&gt;&lt;/div&gt;&lt;div style=&quot;line-height: 80%;&quot;&gt;&lt;span style=&quot;font-size: 13px;&quot;&gt;&lt;b&gt;File&lt;/b&gt;&lt;/span&gt;&lt;/div&gt;" style="whiteSpace=wrap;html=1;shadow=1;fontSize=18;fillColor=#f5f5f5;strokeColor=#666666;align=center;" vertex="1" parent="1">
          <mxGeometry x="852.5" y="815" width="60" height="40" as="geometry" />
        </mxCell>
        <mxCell id="U4OhBhmkpJD2XP-6xcDB-90" value="&lt;div style=&quot;line-height: 80%;&quot;&gt;&lt;span style=&quot;font-size: 13px;&quot;&gt;&lt;b&gt;CSR&lt;/b&gt;&lt;/span&gt;&lt;/div&gt;&lt;div style=&quot;line-height: 80%;&quot;&gt;&lt;span style=&quot;font-size: 13px;&quot;&gt;&lt;b&gt;File&lt;/b&gt;&lt;/span&gt;&lt;/div&gt;" style="whiteSpace=wrap;html=1;shadow=1;fontSize=18;fillColor=#dae8fc;strokeColor=#6c8ebf;align=center;" vertex="1" parent="1">
          <mxGeometry x="852.5" y="865" width="60" height="80" as="geometry" />
        </mxCell>
        <mxCell id="U4OhBhmkpJD2XP-6xcDB-91" value="+" style="rounded=0;whiteSpace=wrap;html=1;fillColor=#dae8fc;strokeColor=#6c8ebf;" vertex="1" parent="1">
          <mxGeometry x="811" y="865" width="10" height="10" as="geometry" />
        </mxCell>
        <mxCell id="U4OhBhmkpJD2XP-6xcDB-92" value="" style="group" vertex="1" connectable="0" parent="1">
          <mxGeometry x="826" y="891" width="13.5" height="30" as="geometry" />
        </mxCell>
        <mxCell id="U4OhBhmkpJD2XP-6xcDB-93" value="" style="shape=trapezoid;perimeter=trapezoidPerimeter;whiteSpace=wrap;html=1;fixedSize=1;shadow=1;strokeColor=#6c8ebf;align=center;verticalAlign=middle;fontFamily=Helvetica;fontSize=18;fillColor=#dae8fc;rotation=90;container=0;size=10;" vertex="1" parent="U4OhBhmkpJD2XP-6xcDB-92">
          <mxGeometry x="-8.25" y="10" width="30" height="10" as="geometry" />
        </mxCell>
        <mxCell id="U4OhBhmkpJD2XP-6xcDB-94" value="" style="group" vertex="1" connectable="0" parent="1">
          <mxGeometry x="834.25" y="930" width="13.5" height="30" as="geometry" />
        </mxCell>
        <mxCell id="U4OhBhmkpJD2XP-6xcDB-95" value="" style="shape=trapezoid;perimeter=trapezoidPerimeter;whiteSpace=wrap;html=1;fixedSize=1;shadow=1;strokeColor=#6c8ebf;align=center;verticalAlign=middle;fontFamily=Helvetica;fontSize=18;fillColor=#dae8fc;rotation=90;container=0;size=10;" vertex="1" parent="U4OhBhmkpJD2XP-6xcDB-94">
          <mxGeometry x="-8.25" y="10" width="30" height="10" as="geometry" />
        </mxCell>
      </root>
    </mxGraphModel>
  </diagram>
</mxfile>
